<svg id="svg" version="1.1" xmlns="http://www.w3.org/2000/svg" xmlns:xlink="http://www.w3.org/1999/xlink" width="400" height="400" viewBox="0, 0, 400,400"><g id="svgg"><path id="path0" d="M189.457 47.800 C 189.127 48.130,188.755 48.400,188.629 48.400 C 188.329 48.400,56.400 180.325,56.400 180.625 C 56.400 180.753,56.130 181.127,55.800 181.457 C 54.888 182.369,54.888 310.995,55.800 311.345 C 56.130 311.471,56.400 311.851,56.400 312.187 C 56.400 312.533,56.748 312.800,57.200 312.800 C 57.640 312.800,58.000 312.980,58.000 313.200 C 58.000 313.442,59.722 313.600,62.367 313.600 C 65.505 313.600,66.780 313.741,66.899 314.100 C 67.018 314.456,68.550 314.637,72.233 314.730 C 75.075 314.801,77.571 315.026,77.780 315.230 C 77.989 315.433,80.363 315.600,83.056 315.600 C 85.889 315.600,88.057 315.769,88.200 316.000 C 88.344 316.233,90.604 316.400,93.624 316.400 C 96.808 316.400,98.800 316.554,98.800 316.800 C 98.800 317.046,100.792 317.200,103.976 317.200 C 106.996 317.200,109.256 317.367,109.400 317.600 C 109.544 317.833,111.793 318.000,114.790 318.000 C 118.549 318.000,119.978 318.135,120.099 318.500 C 120.218 318.857,121.772 319.038,125.533 319.132 C 128.430 319.204,130.800 319.429,130.800 319.632 C 130.800 319.837,133.099 320.000,136.000 320.000 C 139.200 320.000,141.200 320.154,141.200 320.400 C 141.200 320.647,143.267 320.800,146.600 320.800 C 149.933 320.800,152.000 320.953,152.000 321.200 C 152.000 321.446,154.000 321.600,157.200 321.600 C 160.400 321.600,162.400 321.754,162.400 322.000 C 162.400 322.246,164.410 322.400,167.629 322.400 C 171.743 322.400,172.985 322.528,173.457 323.000 C 173.923 323.466,175.118 323.600,178.805 323.600 C 181.539 323.600,183.658 323.770,183.800 324.000 C 183.944 324.233,186.204 324.400,189.224 324.400 C 192.408 324.400,194.400 324.554,194.400 324.800 C 194.400 325.046,196.392 325.200,199.576 325.200 C 202.596 325.200,204.856 325.367,205.000 325.600 C 205.144 325.833,207.404 326.000,210.424 326.000 C 213.608 326.000,215.600 326.154,215.600 326.400 C 215.600 326.645,217.543 326.800,220.629 326.800 C 224.565 326.800,225.787 326.930,226.257 327.400 C 226.726 327.869,227.943 328.000,231.829 328.000 C 234.876 328.000,236.800 328.155,236.800 328.400 C 236.800 328.647,238.867 328.800,242.200 328.800 C 245.533 328.800,247.600 328.953,247.600 329.200 C 247.600 329.446,249.600 329.600,252.800 329.600 C 256.000 329.600,258.000 329.754,258.000 330.000 C 258.000 330.247,260.056 330.400,263.367 330.400 C 267.305 330.400,268.778 330.533,268.899 330.900 C 269.017 331.255,270.511 331.438,274.033 331.531 C 276.765 331.602,279.171 331.827,279.380 332.031 C 279.589 332.234,282.064 332.400,284.880 332.400 C 288.027 332.400,290.000 332.554,290.000 332.800 C 290.000 333.046,292.000 333.200,295.200 333.200 C 298.400 333.200,300.400 333.354,300.400 333.600 C 300.400 333.847,302.467 334.000,305.800 334.000 C 309.133 334.000,311.200 334.153,311.200 334.400 C 311.200 334.645,313.143 334.800,316.229 334.800 C 320.165 334.800,321.387 334.930,321.857 335.400 C 322.326 335.869,323.543 336.000,327.429 336.000 C 330.476 336.000,332.400 336.155,332.400 336.400 C 332.400 336.645,334.344 336.800,337.431 336.800 L 342.462 336.800 343.653 335.608 L 344.845 334.417 344.639 329.308 C 344.204 318.528,343.799 313.638,343.300 313.139 C 342.952 312.792,342.800 311.083,342.800 307.520 C 342.800 304.373,342.646 302.400,342.400 302.400 C 342.154 302.400,342.000 300.408,342.000 297.224 C 342.000 294.204,341.833 291.944,341.600 291.800 C 341.368 291.657,341.200 289.470,341.200 286.600 C 341.200 283.730,341.032 281.543,340.800 281.400 C 340.568 281.257,340.400 279.072,340.400 276.205 C 340.400 272.340,340.269 271.126,339.800 270.657 C 339.330 270.187,339.200 268.965,339.200 265.029 C 339.200 261.943,339.045 260.000,338.800 260.000 C 338.553 260.000,338.400 257.933,338.400 254.600 C 338.400 251.267,338.247 249.200,338.000 249.200 C 337.754 249.200,337.600 247.200,337.600 244.000 C 337.600 240.800,337.446 238.800,337.200 238.800 C 336.954 238.800,336.800 236.808,336.800 233.624 C 336.800 230.604,336.633 228.344,336.400 228.200 C 336.170 228.058,336.000 225.955,336.000 223.253 C 336.000 219.740,335.852 218.357,335.413 217.776 C 334.969 217.190,334.822 215.749,334.813 211.900 C 334.805 208.775,334.645 206.800,334.400 206.800 C 334.154 206.800,334.000 204.808,334.000 201.624 C 334.000 198.604,333.833 196.344,333.600 196.200 C 333.369 196.057,333.200 193.889,333.200 191.056 C 333.200 188.363,333.030 185.989,332.823 185.780 C 332.615 185.571,332.352 183.150,332.238 180.400 C 331.764 168.949,331.403 164.667,330.900 164.500 C 330.533 164.378,330.400 162.905,330.400 158.967 C 330.400 155.656,330.247 153.600,330.000 153.600 C 329.754 153.600,329.600 151.600,329.600 148.400 C 329.600 145.200,329.446 143.200,329.200 143.200 C 328.954 143.200,328.800 141.208,328.800 138.024 C 328.800 135.004,328.633 132.744,328.400 132.600 C 328.170 132.458,328.000 130.355,328.000 127.653 C 328.000 124.140,327.852 122.757,327.413 122.176 C 326.969 121.590,326.822 120.149,326.813 116.300 C 326.805 113.175,326.645 111.200,326.400 111.200 C 326.154 111.200,326.000 109.208,326.000 106.024 C 326.000 103.004,325.833 100.744,325.600 100.600 C 325.367 100.456,325.200 98.196,325.200 95.176 C 325.200 91.992,325.046 90.000,324.800 90.000 C 324.554 90.000,324.400 88.008,324.400 84.824 C 324.400 81.804,324.233 79.544,324.000 79.400 C 323.770 79.258,323.600 77.139,323.600 74.405 C 323.600 70.718,323.466 69.523,323.000 69.057 C 322.528 68.585,322.400 67.343,322.400 63.229 C 322.400 60.010,322.246 58.000,322.000 58.000 C 321.760 58.000,321.600 56.400,321.600 54.000 C 321.600 51.600,321.440 50.000,321.200 50.000 C 320.980 50.000,320.800 49.706,320.800 49.347 C 320.800 48.988,320.412 48.358,319.939 47.947 C 318.738 46.905,190.496 46.761,189.457 47.800 M312.687 56.260 C 312.771 56.514,310.041 59.523,306.620 62.948 C 300.595 68.981,300.123 69.613,300.643 70.967 C 301.285 72.641,302.929 71.683,307.800 66.800 C 314.103 60.480,313.736 60.331,314.425 69.492 C 314.816 74.678,315.021 77.269,315.969 89.000 C 316.182 91.640,316.545 96.230,316.776 99.200 C 317.006 102.170,317.289 105.230,317.403 106.000 C 317.517 106.770,317.800 109.920,318.032 113.000 C 318.263 116.080,318.620 120.580,318.825 123.000 C 319.336 129.054,319.927 136.270,320.387 142.100 C 320.599 144.795,321.056 150.150,321.402 154.000 C 322.117 161.957,322.654 168.363,323.212 175.600 C 323.862 184.027,324.303 189.293,325.825 206.800 C 326.179 210.870,326.630 216.270,326.828 218.800 C 327.026 221.330,327.374 225.650,327.602 228.400 C 327.829 231.150,328.180 235.560,328.381 238.200 C 328.583 240.840,328.930 245.070,329.154 247.600 C 330.864 266.962,331.370 272.933,331.987 281.000 C 332.188 283.640,332.548 288.050,332.786 290.800 C 334.076 305.720,334.572 313.200,334.270 313.200 C 334.009 313.200,332.976 311.028,330.184 304.600 C 329.897 303.940,329.300 302.477,328.857 301.350 C 328.414 300.222,327.662 298.422,327.186 297.350 C 326.710 296.277,326.165 295.040,325.976 294.600 C 325.787 294.160,324.815 291.954,323.816 289.697 C 322.817 287.441,322.000 285.511,322.000 285.409 C 322.000 285.307,321.568 284.273,321.041 283.112 C 320.513 281.950,319.594 279.830,318.999 278.400 C 318.404 276.970,317.594 275.080,317.200 274.200 C 316.806 273.320,315.996 271.430,315.400 270.000 C 314.804 268.570,313.994 266.680,313.600 265.800 C 313.206 264.920,312.396 263.030,311.800 261.600 C 311.204 260.170,310.398 258.280,310.008 257.400 C 309.376 255.976,306.367 248.995,305.007 245.800 C 304.726 245.140,304.024 243.560,303.448 242.289 C 302.872 241.018,302.400 239.891,302.400 239.785 C 302.400 239.678,302.019 238.738,301.553 237.696 C 300.465 235.259,299.922 233.991,298.597 230.800 C 298.003 229.370,297.194 227.480,296.800 226.600 C 296.406 225.720,295.596 223.830,295.000 222.400 C 294.404 220.970,293.597 219.080,293.206 218.200 C 292.814 217.320,291.919 215.250,291.217 213.600 C 290.514 211.950,289.683 210.015,289.370 209.300 C 289.056 208.585,288.552 207.415,288.248 206.700 C 287.944 205.985,287.224 204.360,286.648 203.089 C 286.072 201.818,285.600 200.691,285.600 200.585 C 285.600 200.398,284.991 198.995,282.954 194.489 C 282.429 193.328,282.000 192.291,282.000 192.185 C 282.000 192.078,281.640 191.183,281.200 190.196 C 280.760 189.208,280.040 187.592,279.600 186.604 C 279.160 185.617,278.800 184.722,278.800 184.615 C 278.800 184.509,278.331 183.382,277.759 182.111 C 277.186 180.840,276.574 179.440,276.399 179.000 C 275.699 177.237,274.324 174.069,272.452 169.904 C 271.983 168.862,271.600 167.918,271.600 167.806 C 271.600 167.695,270.970 166.239,270.200 164.572 C 269.430 162.905,268.800 161.463,268.800 161.366 C 268.800 161.197,268.157 159.720,266.154 155.289 C 265.629 154.128,265.200 153.091,265.200 152.985 C 265.200 152.878,264.822 151.938,264.360 150.896 C 263.898 149.853,263.377 148.640,263.201 148.200 C 262.645 146.806,261.336 143.799,259.200 139.004 C 258.760 138.017,258.400 137.129,258.400 137.032 C 258.400 136.935,257.874 135.718,257.232 134.328 C 256.589 132.938,255.675 130.813,255.201 129.607 C 254.726 128.401,253.902 126.460,253.369 125.295 C 252.836 124.130,252.400 122.956,252.400 122.686 C 252.400 122.416,258.520 116.078,266.000 108.600 C 279.488 95.116,280.338 94.098,279.120 92.880 C 278.035 91.795,276.723 92.899,263.967 105.621 C 255.593 113.973,250.471 118.795,250.060 118.716 C 249.702 118.647,247.247 115.952,244.605 112.727 C 241.962 109.502,239.440 106.439,239.000 105.920 C 238.560 105.401,237.486 104.082,236.614 102.988 C 235.741 101.895,234.927 100.910,234.805 100.800 C 234.604 100.620,231.621 97.076,229.934 95.014 C 229.568 94.566,227.588 92.153,225.534 89.652 C 223.480 87.150,221.260 84.427,220.600 83.599 C 218.945 81.526,210.278 71.046,210.014 70.800 C 209.897 70.690,209.081 69.700,208.202 68.600 C 207.323 67.500,206.213 66.150,205.735 65.600 C 201.240 60.432,198.079 56.197,198.511 55.922 C 199.348 55.389,312.508 55.724,312.687 56.260 M197.000 60.550 C 197.660 61.396,198.674 62.654,199.253 63.344 C 199.832 64.035,202.317 67.030,204.775 70.000 C 207.233 72.970,209.550 75.760,209.923 76.200 C 210.296 76.640,211.321 77.900,212.201 79.000 C 213.080 80.100,213.897 81.090,214.014 81.200 C 214.132 81.310,216.286 83.920,218.800 87.000 C 221.314 90.080,223.474 92.690,223.599 92.800 C 223.725 92.910,224.541 93.900,225.414 95.000 C 226.286 96.100,227.093 97.090,227.208 97.200 C 227.322 97.310,228.668 98.930,230.200 100.800 C 231.732 102.670,233.078 104.290,233.192 104.400 C 233.307 104.510,234.114 105.500,234.986 106.600 C 235.859 107.700,236.674 108.690,236.798 108.800 C 238.782 110.567,245.707 119.759,245.335 120.132 C 244.922 120.545,130.482 120.455,130.226 120.042 C 130.104 119.845,144.266 105.431,161.697 88.012 L 193.390 56.340 194.595 57.676 C 195.258 58.410,196.340 59.704,197.000 60.550 M286.797 82.835 C 283.755 85.924,283.605 87.600,286.369 87.600 C 287.099 87.600,292.000 82.780,292.000 82.063 C 292.000 79.711,289.510 80.080,286.797 82.835 M128.400 179.757 C 128.400 211.277,128.286 237.180,128.147 237.319 C 127.870 237.597,126.762 237.089,125.931 236.303 C 125.639 236.026,124.770 235.323,124.000 234.741 C 123.230 234.158,122.240 233.346,121.800 232.935 C 121.360 232.524,120.100 231.471,119.000 230.594 C 117.900 229.717,116.910 228.907,116.800 228.792 C 116.690 228.678,115.070 227.332,113.200 225.800 C 111.330 224.268,109.710 222.921,109.600 222.805 C 109.490 222.690,108.770 222.114,108.000 221.526 C 107.230 220.937,105.986 219.918,105.236 219.261 C 102.400 216.777,100.750 216.643,100.480 218.875 C 100.379 219.706,100.999 220.387,104.263 223.034 C 106.410 224.776,108.907 226.830,109.812 227.600 C 110.717 228.370,112.074 229.505,112.829 230.123 C 121.941 237.582,126.800 241.776,126.800 242.182 C 126.800 242.889,64.773 304.858,64.242 304.681 C 63.610 304.470,63.612 190.729,64.244 190.519 C 64.489 190.437,65.479 191.028,66.444 191.832 C 67.410 192.636,68.996 193.948,69.968 194.747 C 70.941 195.546,72.525 196.874,73.489 197.697 C 76.028 199.865,76.524 200.069,77.538 199.358 C 79.218 198.182,78.226 196.710,72.988 192.600 C 72.147 191.940,71.265 191.213,71.029 190.985 C 70.793 190.757,69.307 189.544,67.726 188.289 C 66.145 187.034,64.752 185.846,64.630 185.648 C 64.343 185.184,127.584 121.943,128.048 122.230 C 128.248 122.353,128.400 147.251,128.400 179.757 M245.029 124.095 C 245.191 124.258,219.914 149.801,188.857 180.857 C 157.801 211.914,132.258 237.191,132.095 237.029 C 131.607 236.540,131.525 125.288,132.012 124.377 C 132.448 123.564,244.218 123.285,245.029 124.095 M250.325 127.300 C 250.763 128.235,251.388 129.630,251.714 130.400 C 252.040 131.170,252.688 132.653,253.153 133.696 C 253.619 134.738,254.000 135.678,254.000 135.785 C 254.000 135.891,254.469 137.018,255.041 138.289 C 255.614 139.560,256.226 140.960,256.402 141.400 C 256.577 141.840,257.098 143.053,257.560 144.096 C 258.022 145.138,258.400 146.078,258.400 146.185 C 258.400 146.291,258.843 147.328,259.385 148.489 C 260.362 150.582,262.349 155.179,264.274 159.800 C 264.824 161.120,265.797 163.338,266.437 164.728 C 267.077 166.118,267.600 167.335,267.600 167.432 C 267.600 167.529,267.978 168.462,268.440 169.504 C 268.902 170.547,269.423 171.760,269.599 172.200 C 270.010 173.229,270.891 175.278,272.008 177.800 C 273.188 180.467,273.721 181.711,275.003 184.800 C 275.597 186.230,276.415 188.135,276.821 189.032 C 277.226 189.930,277.916 191.572,278.354 192.682 C 278.791 193.792,279.541 195.578,280.021 196.650 C 280.501 197.723,281.123 199.140,281.404 199.800 C 281.686 200.460,282.276 201.810,282.716 202.800 C 283.157 203.790,284.004 205.770,284.600 207.200 C 285.196 208.630,286.006 210.520,286.400 211.400 C 286.794 212.280,287.603 214.170,288.197 215.600 C 289.681 219.175,290.141 220.242,291.352 222.911 C 291.928 224.182,292.400 225.309,292.400 225.415 C 292.400 225.522,292.778 226.462,293.240 227.504 C 293.702 228.547,294.235 229.760,294.424 230.200 C 294.613 230.640,295.593 232.890,296.600 235.200 C 297.607 237.510,298.586 239.760,298.775 240.200 C 298.964 240.640,299.390 241.630,299.721 242.400 C 300.053 243.170,300.810 244.970,301.403 246.400 C 301.997 247.830,302.806 249.720,303.200 250.600 C 303.594 251.480,304.404 253.370,305.000 254.800 C 305.596 256.230,306.406 258.120,306.800 259.000 C 307.194 259.880,308.004 261.770,308.600 263.200 C 309.196 264.630,310.004 266.520,310.397 267.400 C 310.790 268.280,312.142 271.430,313.401 274.400 C 314.661 277.370,316.323 281.240,317.094 283.000 C 317.865 284.760,318.723 286.740,319.000 287.400 C 319.277 288.060,319.976 289.640,320.552 290.911 C 321.128 292.182,321.600 293.309,321.600 293.415 C 321.600 293.522,321.981 294.462,322.447 295.504 C 324.456 300.001,324.800 300.802,324.800 300.985 C 324.800 301.091,325.272 302.218,325.848 303.489 C 327.062 306.166,327.525 307.238,329.003 310.800 C 329.596 312.230,330.513 314.350,331.041 315.512 C 331.568 316.673,332.000 317.704,332.000 317.802 C 332.000 317.900,332.534 319.146,333.187 320.571 C 336.195 327.140,336.258 328.608,333.473 327.295 C 331.179 326.213,327.958 324.800,327.785 324.800 C 327.678 324.800,326.738 324.419,325.696 323.953 C 321.199 321.944,320.398 321.600,320.215 321.600 C 320.109 321.600,318.982 321.128,317.711 320.552 C 315.042 319.341,313.975 318.881,310.400 317.397 C 308.970 316.803,307.080 315.996,306.200 315.603 C 305.320 315.210,302.620 314.037,300.200 312.995 C 297.780 311.954,295.080 310.782,294.200 310.392 C 293.320 310.002,291.430 309.197,290.000 308.603 C 286.425 307.119,285.358 306.659,282.689 305.448 C 281.418 304.872,280.298 304.400,280.201 304.400 C 280.103 304.400,279.070 303.964,277.905 303.431 C 276.740 302.898,274.867 302.099,273.743 301.656 C 272.619 301.213,270.822 300.462,269.750 299.986 C 268.677 299.510,267.440 298.965,267.000 298.776 C 266.560 298.587,264.354 297.615,262.097 296.616 C 259.841 295.617,257.904 294.800,257.793 294.800 C 257.682 294.800,256.783 294.440,255.796 294.000 C 250.950 291.841,247.965 290.543,246.600 290.001 C 246.160 289.826,244.760 289.214,243.489 288.641 C 242.218 288.069,241.098 287.600,241.001 287.600 C 240.903 287.600,239.870 287.164,238.705 286.631 C 237.540 286.098,235.689 285.307,234.593 284.874 C 233.497 284.441,231.380 283.527,229.890 282.843 C 228.399 282.159,227.100 281.600,227.002 281.600 C 226.904 281.600,225.783 281.137,224.512 280.570 C 223.240 280.004,221.570 279.264,220.800 278.927 C 220.030 278.589,218.877 278.062,218.239 277.756 C 217.600 277.450,216.926 277.200,216.740 277.200 C 216.555 277.200,215.039 276.570,213.372 275.800 C 211.705 275.030,210.269 274.400,210.181 274.400 C 210.092 274.400,208.841 273.860,207.400 273.200 C 205.959 272.540,204.699 272.000,204.601 272.000 C 204.502 272.000,203.382 271.531,202.111 270.959 C 200.840 270.386,199.440 269.774,199.000 269.598 C 198.560 269.423,197.347 268.902,196.304 268.440 C 195.262 267.978,194.322 267.600,194.215 267.600 C 194.109 267.600,193.072 267.171,191.911 266.646 C 187.480 264.643,186.003 264.000,185.834 264.000 C 185.737 264.000,184.295 263.370,182.628 262.600 C 180.961 261.830,179.505 261.200,179.394 261.200 C 179.199 261.200,177.829 260.606,173.289 258.554 C 172.128 258.029,171.091 257.600,170.985 257.600 C 170.878 257.600,169.983 257.240,168.996 256.800 C 168.008 256.360,166.392 255.640,165.404 255.200 C 164.417 254.760,163.522 254.400,163.415 254.400 C 163.309 254.400,162.272 253.971,161.111 253.446 C 156.605 251.409,155.202 250.800,155.015 250.800 C 154.909 250.800,153.782 250.328,152.511 249.752 C 151.240 249.176,149.660 248.475,149.000 248.196 C 142.060 245.256,140.821 244.722,137.522 243.242 C 136.489 242.779,135.499 242.394,135.322 242.387 C 135.145 242.380,134.645 242.106,134.210 241.778 C 133.496 241.238,248.015 125.600,249.264 125.600 C 249.409 125.600,249.887 126.365,250.325 127.300 M84.880 204.480 C 83.616 205.744,84.934 207.614,88.900 210.180 C 91.464 211.839,92.749 209.482,90.500 207.246 C 87.386 204.149,85.928 203.432,84.880 204.480 M133.231 245.439 C 134.644 246.010,136.790 246.930,138.000 247.482 C 139.210 248.034,141.100 248.840,142.200 249.274 C 143.300 249.708,144.785 250.318,145.500 250.631 C 146.215 250.944,147.385 251.453,148.100 251.761 C 148.815 252.070,150.300 252.718,151.400 253.201 C 152.500 253.684,153.760 254.224,154.200 254.400 C 154.640 254.576,155.853 255.098,156.896 255.560 C 157.938 256.022,158.871 256.400,158.968 256.400 C 159.065 256.400,160.282 256.923,161.672 257.563 C 163.062 258.203,165.280 259.176,166.600 259.726 C 169.991 261.139,175.581 263.532,177.000 264.178 C 177.660 264.478,179.370 265.208,180.800 265.800 C 184.318 267.256,185.408 267.726,188.111 268.952 C 189.382 269.528,190.509 270.000,190.615 270.000 C 190.722 270.000,191.662 270.381,192.704 270.847 C 197.201 272.856,198.002 273.200,198.185 273.200 C 198.291 273.200,199.418 273.672,200.689 274.248 C 201.960 274.824,203.540 275.528,204.200 275.811 C 204.860 276.094,209.270 277.982,214.000 280.008 C 218.730 282.034,223.320 284.012,224.200 284.404 C 225.080 284.796,226.970 285.604,228.400 286.200 C 229.830 286.796,231.720 287.606,232.600 288.000 C 233.480 288.394,235.370 289.204,236.800 289.800 C 238.230 290.396,240.120 291.206,241.000 291.600 C 241.880 291.994,243.770 292.804,245.200 293.400 C 246.630 293.996,248.520 294.804,249.400 295.197 C 250.280 295.590,253.430 296.944,256.400 298.207 C 259.370 299.470,262.750 300.930,263.912 301.451 C 265.073 301.973,266.103 302.400,266.201 302.400 C 266.298 302.400,267.418 302.872,268.689 303.448 C 271.358 304.659,272.425 305.119,276.000 306.603 C 277.430 307.197,279.320 308.006,280.200 308.400 C 281.080 308.794,282.970 309.604,284.400 310.199 C 285.830 310.794,287.950 311.713,289.112 312.241 C 290.273 312.768,291.303 313.200,291.400 313.200 C 291.497 313.200,292.617 313.663,293.888 314.230 C 296.839 315.544,298.473 316.261,300.100 316.953 C 300.815 317.258,302.277 317.899,303.350 318.379 C 304.422 318.859,306.219 319.613,307.343 320.056 C 308.467 320.499,310.289 321.267,311.393 321.761 C 312.497 322.256,314.660 323.181,316.200 323.816 C 317.740 324.452,319.540 325.309,320.200 325.721 L 321.400 326.470 318.000 326.222 C 316.130 326.086,312.530 325.792,310.000 325.570 C 307.470 325.348,303.150 324.993,300.400 324.781 C 297.650 324.569,293.330 324.224,290.800 324.015 C 288.270 323.805,283.950 323.453,281.200 323.232 C 278.450 323.011,274.040 322.641,271.400 322.410 C 260.436 321.451,249.248 320.522,237.600 319.603 C 234.850 319.386,230.710 319.038,228.400 318.829 C 226.090 318.620,221.770 318.259,218.800 318.027 C 215.830 317.795,211.510 317.430,209.200 317.217 C 206.890 317.004,202.480 316.638,199.400 316.403 C 196.320 316.168,192.000 315.807,189.800 315.600 C 187.600 315.393,183.280 315.025,180.200 314.783 C 177.120 314.540,171.720 314.096,168.200 313.795 C 164.680 313.493,159.190 313.052,156.000 312.814 C 152.810 312.576,148.400 312.211,146.200 312.002 C 144.000 311.794,139.680 311.433,136.600 311.200 C 133.520 310.967,129.200 310.603,127.000 310.392 C 124.800 310.182,120.570 309.815,117.600 309.577 C 110.863 309.037,104.855 308.540,98.400 307.989 C 93.150 307.540,87.927 307.108,79.600 306.434 C 71.788 305.802,70.000 305.554,70.000 305.099 C 70.000 304.676,129.994 244.424,130.431 244.408 C 130.558 244.404,131.818 244.868,133.231 245.439 " stroke="none" fill="#1f242d" fill-rule="evenodd"></path><path id="path1" d="M199.200 56.551 C 199.200 56.854,199.515 57.340,199.900 57.632 C 200.496 58.082,200.525 58.078,200.100 57.601 C 199.825 57.292,199.600 56.896,199.600 56.720 C 199.600 56.544,224.710 56.400,255.400 56.400 C 298.781 56.400,311.200 56.508,311.200 56.884 C 311.200 57.466,296.473 72.702,287.310 81.600 C 285.158 83.690,282.408 86.425,281.199 87.677 C 279.989 88.930,272.605 96.310,264.790 104.077 C 256.974 111.845,256.525 112.305,263.792 105.100 C 278.122 90.892,278.862 90.342,280.071 92.997 C 280.788 94.569,280.578 94.814,266.500 108.910 C 259.185 116.234,253.200 122.463,253.200 122.753 C 253.200 123.042,253.488 123.936,253.841 124.740 C 254.470 126.174,254.855 127.110,255.549 128.900 C 255.941 129.909,257.180 132.706,258.694 136.000 C 259.250 137.210,259.862 138.605,260.053 139.100 C 260.676 140.715,261.115 141.771,261.924 143.600 C 262.843 145.676,263.939 148.243,264.401 149.400 C 264.577 149.840,265.116 151.100,265.599 152.200 C 266.794 154.919,267.619 156.843,268.001 157.800 C 268.177 158.240,268.698 159.453,269.160 160.496 C 269.622 161.538,270.000 162.478,270.000 162.585 C 270.000 162.691,270.429 163.728,270.954 164.889 C 272.957 169.320,273.600 170.797,273.600 170.966 C 273.600 171.063,274.237 172.550,275.017 174.271 C 275.796 175.992,276.588 177.760,276.777 178.200 C 276.966 178.640,277.498 179.853,277.960 180.896 C 278.422 181.938,278.800 182.878,278.800 182.985 C 278.800 183.091,279.229 184.128,279.754 185.289 C 281.791 189.795,282.400 191.198,282.400 191.385 C 282.400 191.491,282.869 192.618,283.441 193.889 C 284.014 195.160,284.626 196.560,284.800 197.000 C 284.974 197.440,285.586 198.840,286.159 200.111 C 286.731 201.382,287.200 202.509,287.200 202.615 C 287.200 202.722,287.578 203.662,288.040 204.704 C 288.502 205.747,289.034 206.960,289.223 207.400 C 289.412 207.840,290.204 209.608,290.983 211.329 C 291.763 213.050,292.400 214.705,292.400 215.006 C 292.400 215.307,292.580 215.664,292.800 215.800 C 293.020 215.936,293.200 216.397,293.200 216.824 C 293.200 217.251,293.380 217.600,293.600 217.600 C 293.820 217.600,294.000 217.924,294.000 218.320 C 294.000 218.716,294.153 219.211,294.340 219.420 C 294.527 219.629,294.972 220.557,295.330 221.483 C 295.687 222.409,296.362 224.029,296.830 225.083 C 297.297 226.137,297.823 227.360,297.998 227.800 C 298.174 228.240,298.786 229.640,299.359 230.911 C 299.931 232.182,300.400 233.309,300.400 233.415 C 300.400 233.602,301.009 235.005,303.046 239.511 C 303.571 240.672,304.000 241.709,304.000 241.815 C 304.000 241.922,304.378 242.862,304.840 243.904 C 305.302 244.947,305.824 246.160,306.000 246.600 C 306.176 247.040,306.716 248.300,307.199 249.400 C 307.682 250.500,308.349 252.030,308.681 252.800 C 309.012 253.570,309.603 254.920,309.993 255.800 C 311.628 259.481,313.973 264.941,314.805 267.000 C 314.983 267.440,315.486 268.610,315.924 269.600 C 316.843 271.676,317.939 274.243,318.401 275.400 C 318.577 275.840,319.116 277.100,319.599 278.200 C 321.361 282.211,322.301 284.441,322.802 285.800 C 322.964 286.240,323.589 287.680,324.191 289.000 C 325.227 291.272,325.523 291.970,326.349 294.100 C 326.541 294.595,327.067 295.810,327.516 296.800 C 327.966 297.790,328.799 299.624,329.367 300.875 C 329.935 302.127,330.400 303.432,330.400 303.775 C 330.400 304.119,330.580 304.400,330.800 304.400 C 331.020 304.400,331.200 304.672,331.200 305.005 C 331.200 305.338,331.365 305.923,331.567 306.305 C 331.769 306.687,332.300 307.810,332.747 308.800 L 333.560 310.600 333.572 308.000 C 333.579 306.570,333.402 304.140,333.179 302.600 C 332.957 301.060,332.590 297.370,332.364 294.400 C 332.137 291.430,331.778 286.840,331.566 284.200 C 330.810 274.818,330.381 269.340,330.046 264.800 C 329.860 262.270,329.405 257.050,329.036 253.200 C 328.384 246.406,327.973 241.582,327.162 231.200 C 326.947 228.450,326.609 224.130,326.411 221.600 C 325.927 215.427,325.360 208.835,324.587 200.400 C 324.234 196.550,323.774 191.150,323.566 188.400 C 323.357 185.650,322.995 181.060,322.762 178.200 C 322.528 175.340,322.193 171.110,322.016 168.800 C 321.840 166.490,321.497 162.007,321.255 158.837 C 321.012 155.668,320.718 152.771,320.600 152.400 C 320.482 152.029,320.199 149.132,319.971 145.963 C 319.568 140.359,319.220 135.907,318.379 125.600 C 318.154 122.850,317.815 118.530,317.623 116.000 C 317.432 113.470,316.981 108.250,316.621 104.400 C 315.936 97.074,315.446 91.309,314.770 82.600 C 313.470 65.868,313.174 62.800,312.859 62.800 C 312.723 62.800,310.507 64.900,307.933 67.467 C 302.927 72.460,301.464 73.196,300.142 71.388 C 299.226 70.136,299.867 69.223,306.043 62.971 C 309.320 59.655,312.000 56.730,312.000 56.471 C 312.000 56.112,298.595 56.000,255.600 56.000 C 207.961 56.000,199.200 56.086,199.200 56.551 M291.414 80.246 C 293.177 81.401,292.745 82.736,289.639 85.734 C 286.838 88.438,285.933 88.824,284.626 87.869 C 283.133 86.776,283.703 85.255,286.703 82.331 C 289.740 79.371,289.942 79.282,291.414 80.246 M132.267 124.667 C 131.725 125.208,131.958 236.000,132.501 236.000 C 132.961 236.000,244.000 125.255,244.000 124.796 C 244.000 124.684,219.026 149.570,188.502 180.097 C 157.978 210.623,132.867 235.600,132.699 235.600 C 132.532 235.600,132.441 210.580,132.497 180.000 C 132.554 149.420,132.585 124.400,132.567 124.400 C 132.548 124.400,132.413 124.520,132.267 124.667 M64.642 192.235 C 64.272 193.198,64.354 303.124,64.724 303.353 C 64.903 303.463,78.862 289.739,95.746 272.854 L 126.444 242.154 120.169 236.977 C 116.717 234.130,113.323 231.350,112.627 230.800 C 111.931 230.250,109.750 228.452,107.781 226.803 C 105.811 225.155,103.859 223.535,103.443 223.203 C 99.393 219.975,98.903 218.971,100.545 217.258 L 101.589 216.168 97.102 212.462 C 92.756 208.872,92.605 208.786,92.293 209.720 C 91.470 212.189,89.316 211.854,85.926 208.728 C 83.538 206.527,83.280 205.642,84.574 204.104 L 85.572 202.917 82.927 200.771 C 81.473 199.591,80.039 198.382,79.741 198.084 C 79.286 197.629,79.200 197.631,79.200 198.096 C 79.200 198.967,77.655 200.400,76.715 200.400 C 76.059 200.400,68.684 194.899,67.600 193.601 C 66.663 192.479,64.867 191.650,64.642 192.235 " stroke="none" fill="#ec5494" fill-rule="evenodd"></path><path id="path2" d="M199.600 56.722 C 199.600 57.024,203.629 61.984,218.134 79.542 C 221.470 83.580,226.004 89.084,228.208 91.775 C 233.764 98.554,235.197 100.281,236.729 102.037 C 237.460 102.876,238.540 104.189,239.129 104.957 C 239.718 105.724,242.440 109.063,245.177 112.377 L 250.154 118.402 264.577 104.179 C 272.510 96.356,279.989 88.931,281.199 87.678 C 282.408 86.425,285.158 83.690,287.310 81.600 C 296.473 72.702,311.200 57.466,311.200 56.884 C 311.200 56.508,298.781 56.400,255.400 56.400 C 224.710 56.400,199.600 56.545,199.600 56.722 M132.667 124.667 C 132.296 125.037,132.330 235.600,132.701 235.600 C 133.093 235.600,243.600 125.092,243.600 124.699 C 243.600 124.329,133.037 124.297,132.667 124.667 " stroke="none" fill="#f393bb" fill-rule="evenodd"></path><path id="path3" d="M162.332 88.139 C 145.264 105.204,131.397 119.264,131.516 119.383 C 131.905 119.771,243.940 119.621,244.180 119.232 C 244.305 119.030,244.177 118.625,243.895 118.332 C 243.614 118.040,242.667 116.905,241.792 115.812 C 239.200 112.574,239.041 112.380,238.071 111.266 C 237.561 110.680,236.663 109.570,236.076 108.800 C 235.489 108.030,234.728 107.130,234.384 106.800 C 234.040 106.470,233.230 105.480,232.584 104.600 C 231.938 103.720,231.131 102.730,230.790 102.400 C 230.450 102.070,229.458 100.900,228.586 99.800 C 227.714 98.700,226.904 97.710,226.786 97.600 C 226.669 97.490,225.859 96.504,224.986 95.409 C 223.538 93.592,222.031 91.790,221.000 90.644 C 220.780 90.399,219.884 89.299,219.008 88.199 C 218.133 87.100,217.233 86.007,217.008 85.771 C 216.784 85.535,216.060 84.659,215.400 83.826 C 214.740 82.992,213.782 81.835,213.271 81.255 C 212.761 80.675,211.861 79.570,211.271 78.800 C 210.682 78.031,209.867 77.041,209.459 76.600 C 209.052 76.160,208.242 75.170,207.659 74.400 C 207.077 73.630,206.420 72.807,206.200 72.571 C 205.980 72.335,205.080 71.278,204.200 70.222 C 203.320 69.165,202.330 67.984,202.000 67.596 C 201.670 67.208,200.921 66.285,200.335 65.545 C 199.749 64.805,198.939 63.811,198.535 63.336 C 197.699 62.353,195.399 59.590,194.182 58.108 L 193.365 57.111 162.332 88.139 M96.200 154.262 C 79.260 171.261,65.357 185.235,65.305 185.314 C 65.252 185.393,67.399 187.244,70.076 189.429 C 72.752 191.613,75.135 193.587,75.371 193.814 C 75.607 194.042,76.475 194.739,77.300 195.362 C 78.125 195.985,78.800 196.666,78.800 196.876 C 78.800 197.357,79.128 197.667,82.800 200.660 C 84.450 202.006,86.183 203.222,86.651 203.365 C 87.119 203.507,89.099 205.159,91.051 207.035 C 95.157 210.983,102.227 216.799,102.924 216.802 C 103.186 216.803,103.940 217.298,104.600 217.902 C 105.260 218.506,106.430 219.477,107.200 220.059 C 107.970 220.642,108.960 221.454,109.400 221.865 C 109.840 222.276,111.100 223.329,112.200 224.206 C 113.300 225.083,114.290 225.896,114.400 226.014 C 114.510 226.131,115.500 226.941,116.600 227.814 C 117.700 228.686,118.690 229.493,118.800 229.608 C 118.910 229.722,120.530 231.070,122.400 232.604 C 124.270 234.138,126.040 235.621,126.332 235.900 C 126.625 236.179,127.030 236.305,127.232 236.180 C 127.676 235.906,127.743 123.717,127.300 123.500 C 127.135 123.419,113.140 137.262,96.200 154.262 M191.628 183.772 L 134.258 241.143 136.629 242.213 C 137.933 242.801,139.360 243.426,139.800 243.601 C 140.930 244.049,143.488 245.141,145.600 246.076 C 146.590 246.514,147.760 247.018,148.200 247.196 C 148.640 247.374,149.853 247.898,150.896 248.360 C 151.938 248.822,152.878 249.200,152.985 249.200 C 153.218 249.200,157.200 250.979,159.338 252.038 C 160.184 252.457,161.044 252.800,161.251 252.800 C 161.457 252.800,162.924 253.430,164.511 254.200 C 166.099 254.970,167.528 255.600,167.689 255.600 C 167.849 255.600,169.159 256.140,170.600 256.800 C 172.041 257.460,173.301 258.000,173.399 258.000 C 173.498 258.000,174.618 258.469,175.889 259.041 C 177.160 259.614,178.560 260.226,179.000 260.400 C 179.440 260.574,180.840 261.186,182.111 261.759 C 183.382 262.331,184.509 262.800,184.615 262.800 C 184.722 262.800,185.617 263.160,186.604 263.600 C 187.592 264.040,189.218 264.765,190.217 265.210 C 191.216 265.656,192.791 266.313,193.717 266.670 C 194.643 267.028,195.571 267.473,195.780 267.660 C 195.989 267.847,196.484 268.000,196.880 268.000 C 197.276 268.000,197.600 268.136,197.600 268.303 C 197.600 268.469,198.311 268.827,199.180 269.098 C 200.049 269.370,201.804 270.062,203.080 270.638 C 209.848 273.691,211.481 274.400,211.742 274.400 C 211.864 274.400,213.187 274.960,214.682 275.643 C 216.177 276.327,217.760 277.029,218.200 277.202 C 218.640 277.375,220.040 277.986,221.311 278.559 C 222.582 279.131,223.709 279.600,223.815 279.600 C 224.002 279.600,225.405 280.209,229.911 282.246 C 231.072 282.771,232.109 283.200,232.215 283.200 C 232.322 283.200,233.262 283.578,234.304 284.040 C 235.347 284.502,236.560 285.023,237.000 285.198 C 237.440 285.373,238.880 286.000,240.200 286.591 C 241.520 287.182,242.960 287.806,243.400 287.976 C 243.840 288.147,244.982 288.672,245.938 289.143 C 246.894 289.614,247.835 290.000,248.029 290.000 C 248.223 290.000,249.781 290.640,251.491 291.422 C 254.602 292.844,255.614 293.286,257.300 293.959 C 258.351 294.379,260.203 295.172,263.000 296.401 C 264.100 296.884,265.360 297.423,265.800 297.599 C 266.957 298.061,269.524 299.157,271.600 300.076 C 273.419 300.880,274.460 301.314,276.100 301.948 C 277.262 302.398,281.363 304.263,283.338 305.239 C 284.184 305.658,285.101 306.000,285.376 306.000 C 285.652 306.000,286.490 306.293,287.239 306.651 C 288.664 307.332,290.966 308.370,294.000 309.699 C 294.990 310.133,296.113 310.648,296.495 310.844 C 296.877 311.040,297.362 311.200,297.573 311.200 C 297.785 311.200,299.362 311.850,301.079 312.645 C 302.795 313.440,304.560 314.232,305.000 314.406 C 305.440 314.579,306.700 315.116,307.800 315.599 C 310.519 316.794,312.443 317.619,313.400 318.001 C 313.840 318.177,315.053 318.698,316.096 319.160 C 317.138 319.622,318.078 320.000,318.185 320.000 C 318.291 320.000,319.418 320.472,320.689 321.048 C 321.960 321.624,323.540 322.325,324.200 322.606 C 328.166 324.290,329.475 324.870,330.095 325.214 C 330.477 325.426,331.062 325.600,331.395 325.600 C 331.728 325.600,332.000 325.780,332.000 326.000 C 332.000 326.220,332.272 326.400,332.605 326.400 C 332.938 326.400,333.560 326.618,333.987 326.885 C 335.210 327.648,335.375 326.985,334.451 325.020 C 333.983 324.024,333.600 323.122,333.600 323.015 C 333.600 322.909,333.128 321.782,332.552 320.511 C 331.976 319.240,331.276 317.660,330.997 317.000 C 328.279 310.572,326.955 307.493,326.181 305.800 C 325.679 304.700,324.785 302.630,324.196 301.200 C 322.773 297.750,322.293 296.634,321.048 293.889 C 320.472 292.618,320.000 291.491,320.000 291.385 C 320.000 291.198,319.391 289.795,317.354 285.289 C 316.829 284.128,316.400 283.091,316.400 282.985 C 316.400 282.878,316.022 281.938,315.560 280.896 C 315.098 279.853,314.576 278.640,314.400 278.200 C 314.224 277.760,313.684 276.500,313.201 275.400 C 312.718 274.300,312.055 272.770,311.727 272.000 C 311.400 271.230,310.968 270.287,310.766 269.905 C 310.565 269.523,310.400 268.938,310.400 268.605 C 310.400 268.272,310.220 268.000,310.000 268.000 C 309.780 268.000,309.600 267.676,309.600 267.280 C 309.600 266.884,309.448 266.389,309.262 266.180 C 309.077 265.971,308.414 264.540,307.791 263.000 C 307.167 261.460,306.509 260.029,306.328 259.820 C 306.148 259.611,306.000 259.026,306.000 258.520 C 306.000 258.014,305.820 257.600,305.600 257.600 C 305.380 257.600,305.200 257.364,305.200 257.075 C 305.200 256.786,304.864 255.841,304.453 254.975 C 303.654 253.291,302.546 250.770,301.959 249.300 C 301.123 247.204,300.831 246.507,300.076 244.800 C 299.147 242.702,298.054 240.140,297.600 239.000 C 297.093 237.726,296.165 235.609,294.835 232.690 C 294.156 231.199,293.600 229.821,293.600 229.628 C 293.600 229.434,293.255 228.584,292.833 227.738 C 291.867 225.802,289.852 221.239,288.799 218.600 C 288.623 218.160,288.084 216.900,287.601 215.800 C 286.395 213.056,285.578 211.150,285.200 210.200 C 284.746 209.060,283.653 206.498,282.724 204.400 C 282.286 203.410,281.782 202.240,281.604 201.800 C 281.426 201.360,280.902 200.147,280.440 199.104 C 279.978 198.062,279.600 197.122,279.600 197.015 C 279.600 196.909,279.131 195.782,278.559 194.511 C 277.986 193.240,277.379 191.840,277.209 191.400 C 277.040 190.960,276.529 189.790,276.074 188.800 C 274.529 185.435,273.200 182.377,273.200 182.184 C 273.200 182.078,272.861 181.228,272.447 180.296 C 269.806 174.348,268.963 172.412,268.399 171.000 C 268.223 170.560,267.684 169.300,267.201 168.200 C 266.006 165.481,265.181 163.557,264.799 162.600 C 264.623 162.160,264.102 160.947,263.640 159.904 C 263.178 158.862,262.800 157.922,262.800 157.815 C 262.800 157.709,262.331 156.582,261.759 155.311 C 261.186 154.040,260.563 152.640,260.374 152.200 C 260.186 151.760,259.215 149.554,258.216 147.297 C 257.217 145.041,256.400 143.104,256.400 142.993 C 256.400 142.882,256.040 141.983,255.600 140.996 C 253.441 136.150,252.143 133.165,251.601 131.800 C 250.969 130.210,249.208 126.400,249.105 126.400 C 249.047 126.400,223.182 152.217,191.628 183.772 M129.700 246.610 C 129.205 247.139,128.800 247.681,128.800 247.814 C 128.800 248.129,127.730 249.200,127.415 249.200 C 127.100 249.200,124.400 251.900,124.400 252.215 C 124.400 252.529,123.329 253.600,123.015 253.600 C 122.700 253.600,120.000 256.300,120.000 256.615 C 120.000 256.932,118.928 258.000,118.610 258.000 C 118.295 258.000,116.400 259.886,116.400 260.200 C 116.400 260.508,114.508 262.400,114.200 262.400 C 113.886 262.400,112.000 264.295,112.000 264.610 C 112.000 264.928,110.932 266.000,110.615 266.000 C 110.300 266.000,107.600 268.700,107.600 269.015 C 107.600 269.332,106.528 270.400,106.210 270.400 C 105.895 270.400,104.000 272.286,104.000 272.600 C 104.000 272.908,102.108 274.800,101.800 274.800 C 101.486 274.800,99.600 276.695,99.600 277.010 C 99.600 277.328,98.532 278.400,98.215 278.400 C 97.900 278.400,95.200 281.100,95.200 281.415 C 95.200 281.729,94.129 282.800,93.815 282.800 C 93.500 282.800,90.800 285.500,90.800 285.815 C 90.800 286.132,89.728 287.200,89.410 287.200 C 89.089 287.200,87.200 289.089,87.200 289.410 C 87.200 289.728,86.132 290.800,85.815 290.800 C 85.500 290.800,82.800 293.500,82.800 293.815 C 82.800 294.129,81.729 295.200,81.415 295.200 C 81.100 295.200,78.400 297.900,78.400 298.215 C 78.400 298.532,77.328 299.600,77.010 299.600 C 76.695 299.600,74.800 301.486,74.800 301.800 C 74.800 302.206,72.858 304.000,72.418 304.000 C 72.188 304.000,72.000 304.180,72.000 304.400 C 72.000 304.637,73.467 304.800,75.600 304.800 C 78.533 304.800,79.200 304.911,79.200 305.400 C 79.200 305.904,80.067 306.000,84.600 306.000 C 87.933 306.000,90.000 306.153,90.000 306.400 C 90.000 306.646,92.000 306.800,95.200 306.800 C 98.400 306.800,100.400 306.954,100.400 307.200 C 100.400 307.447,102.467 307.600,105.800 307.600 C 109.133 307.600,111.200 307.753,111.200 308.000 C 111.200 308.246,113.200 308.400,116.400 308.400 C 119.600 308.400,121.600 308.554,121.600 308.800 C 121.600 309.047,123.667 309.200,127.000 309.200 C 131.533 309.200,132.400 309.296,132.400 309.800 C 132.400 310.303,133.244 310.400,137.600 310.400 C 140.800 310.400,142.800 310.554,142.800 310.800 C 142.800 311.047,144.867 311.200,148.200 311.200 C 151.533 311.200,153.600 311.353,153.600 311.600 C 153.600 311.846,155.600 312.000,158.800 312.000 C 162.000 312.000,164.000 312.154,164.000 312.400 C 164.000 312.647,166.067 312.800,169.400 312.800 C 172.733 312.800,174.800 312.953,174.800 313.200 C 174.800 313.446,176.800 313.600,180.000 313.600 C 184.356 313.600,185.200 313.697,185.200 314.200 C 185.200 314.704,186.067 314.800,190.600 314.800 C 193.933 314.800,196.000 314.953,196.000 315.200 C 196.000 315.447,198.067 315.600,201.400 315.600 C 204.733 315.600,206.800 315.753,206.800 316.000 C 206.800 316.246,208.800 316.400,212.000 316.400 C 215.200 316.400,217.200 316.554,217.200 316.800 C 217.200 317.047,219.267 317.200,222.600 317.200 C 225.933 317.200,228.000 317.353,228.000 317.600 C 228.000 317.846,230.000 318.000,233.200 318.000 C 237.556 318.000,238.400 318.097,238.400 318.600 C 238.400 319.104,239.267 319.200,243.800 319.200 C 247.133 319.200,249.200 319.353,249.200 319.600 C 249.200 319.846,251.200 320.000,254.400 320.000 C 257.600 320.000,259.600 320.154,259.600 320.400 C 259.600 320.647,261.667 320.800,265.000 320.800 C 268.333 320.800,270.400 320.953,270.400 321.200 C 270.400 321.446,272.400 321.600,275.600 321.600 C 279.956 321.600,280.800 321.697,280.800 322.200 C 280.800 322.704,281.667 322.800,286.200 322.800 C 289.533 322.800,291.600 322.953,291.600 323.200 C 291.600 323.447,293.667 323.600,297.000 323.600 C 300.333 323.600,302.400 323.753,302.400 324.000 C 302.400 324.246,304.400 324.400,307.600 324.400 C 310.800 324.400,312.800 324.554,312.800 324.800 C 312.800 325.020,313.430 325.200,314.200 325.200 C 314.970 325.200,315.600 325.020,315.600 324.800 C 315.600 324.580,314.970 324.400,314.200 324.400 C 313.430 324.400,312.800 324.220,312.800 324.000 C 312.800 323.780,312.440 323.600,312.000 323.600 C 311.556 323.600,311.200 323.333,311.200 323.000 C 311.200 322.627,310.822 322.400,310.200 322.400 C 309.650 322.400,309.200 322.220,309.200 322.000 C 309.200 321.780,308.660 321.600,308.000 321.600 C 307.340 321.600,306.800 321.420,306.800 321.200 C 306.800 320.980,306.350 320.800,305.800 320.800 C 305.250 320.800,304.800 320.620,304.800 320.400 C 304.800 320.180,304.440 320.000,304.000 320.000 C 303.560 320.000,303.200 319.820,303.200 319.600 C 303.200 319.380,302.570 319.200,301.800 319.200 C 300.822 319.200,300.400 319.019,300.400 318.600 C 300.400 318.267,300.044 318.000,299.600 318.000 C 299.160 318.000,298.800 317.820,298.800 317.600 C 298.800 317.380,298.350 317.200,297.800 317.200 C 297.250 317.200,296.800 317.020,296.800 316.800 C 296.800 316.580,296.260 316.400,295.600 316.400 C 294.940 316.400,294.400 316.220,294.400 316.000 C 294.400 315.780,293.950 315.600,293.400 315.600 C 292.850 315.600,292.400 315.420,292.400 315.200 C 292.400 314.980,292.040 314.800,291.600 314.800 C 291.156 314.800,290.800 314.533,290.800 314.200 C 290.800 313.781,290.378 313.600,289.400 313.600 C 288.630 313.600,288.000 313.420,288.000 313.200 C 288.000 312.980,287.640 312.800,287.200 312.800 C 286.760 312.800,286.400 312.620,286.400 312.400 C 286.400 312.180,285.950 312.000,285.400 312.000 C 284.850 312.000,284.400 311.820,284.400 311.600 C 284.400 311.380,283.860 311.200,283.200 311.200 C 282.400 311.200,282.000 311.000,282.000 310.600 C 282.000 310.227,281.622 310.000,281.000 310.000 C 280.450 310.000,280.000 309.820,280.000 309.600 C 280.000 309.380,279.640 309.200,279.200 309.200 C 278.760 309.200,278.400 309.020,278.400 308.800 C 278.400 308.580,277.770 308.400,277.000 308.400 C 276.230 308.400,275.600 308.220,275.600 308.000 C 275.600 307.780,275.240 307.600,274.800 307.600 C 274.360 307.600,274.000 307.420,274.000 307.200 C 274.000 306.980,273.550 306.800,273.000 306.800 C 272.378 306.800,272.000 306.573,272.000 306.200 C 272.000 305.800,271.600 305.600,270.800 305.600 C 270.140 305.600,269.600 305.420,269.600 305.200 C 269.600 304.980,269.150 304.800,268.600 304.800 C 268.050 304.800,267.600 304.620,267.600 304.400 C 267.600 304.180,267.240 304.000,266.800 304.000 C 266.360 304.000,266.000 303.820,266.000 303.600 C 266.000 303.380,265.370 303.200,264.600 303.200 C 263.830 303.200,263.200 303.020,263.200 302.800 C 263.200 302.580,262.840 302.400,262.400 302.400 C 261.956 302.400,261.600 302.133,261.600 301.800 C 261.600 301.427,261.222 301.200,260.600 301.200 C 260.050 301.200,259.600 301.020,259.600 300.800 C 259.600 300.580,259.060 300.400,258.400 300.400 C 257.740 300.400,257.200 300.220,257.200 300.000 C 257.200 299.780,256.750 299.600,256.200 299.600 C 255.650 299.600,255.200 299.420,255.200 299.200 C 255.200 298.980,254.840 298.800,254.400 298.800 C 253.956 298.800,253.600 298.533,253.600 298.200 C 253.600 297.781,253.178 297.600,252.200 297.600 C 251.430 297.600,250.800 297.420,250.800 297.200 C 250.800 296.980,250.440 296.800,250.000 296.800 C 249.560 296.800,249.200 296.620,249.200 296.400 C 249.200 296.180,248.840 296.000,248.400 296.000 C 247.960 296.000,247.600 295.820,247.600 295.600 C 247.600 295.380,246.970 295.200,246.200 295.200 C 245.430 295.200,244.800 295.020,244.800 294.800 C 244.800 294.580,244.350 294.400,243.800 294.400 C 243.178 294.400,242.800 294.173,242.800 293.800 C 242.800 293.467,242.444 293.200,242.000 293.200 C 241.560 293.200,241.200 293.020,241.200 292.800 C 241.200 292.580,240.570 292.400,239.800 292.400 C 239.030 292.400,238.400 292.220,238.400 292.000 C 238.400 291.780,238.040 291.600,237.600 291.600 C 237.160 291.600,236.800 291.420,236.800 291.200 C 236.800 290.980,236.440 290.800,236.000 290.800 C 235.560 290.800,235.200 290.620,235.200 290.400 C 235.200 290.180,234.570 290.000,233.800 290.000 C 232.822 290.000,232.400 289.819,232.400 289.400 C 232.400 289.027,232.022 288.800,231.400 288.800 C 230.850 288.800,230.400 288.620,230.400 288.400 C 230.400 288.180,230.040 288.000,229.600 288.000 C 229.160 288.000,228.800 287.820,228.800 287.600 C 228.800 287.380,228.170 287.200,227.400 287.200 C 226.630 287.200,226.000 287.020,226.000 286.800 C 226.000 286.580,225.640 286.400,225.200 286.400 C 224.756 286.400,224.400 286.133,224.400 285.800 C 224.400 285.467,224.044 285.200,223.600 285.200 C 223.160 285.200,222.800 285.020,222.800 284.800 C 222.800 284.580,222.170 284.400,221.400 284.400 C 220.630 284.400,220.000 284.220,220.000 284.000 C 220.000 283.780,219.550 283.600,219.000 283.600 C 218.450 283.600,218.000 283.420,218.000 283.200 C 218.000 282.980,217.640 282.800,217.200 282.800 C 216.760 282.800,216.400 282.620,216.400 282.400 C 216.400 282.180,215.770 282.000,215.000 282.000 C 214.022 282.000,213.600 281.819,213.600 281.400 C 213.600 281.067,213.244 280.800,212.800 280.800 C 212.360 280.800,212.000 280.620,212.000 280.400 C 212.000 280.180,211.640 280.000,211.200 280.000 C 210.760 280.000,210.400 279.820,210.400 279.600 C 210.400 279.380,209.770 279.200,209.000 279.200 C 208.230 279.200,207.600 279.020,207.600 278.800 C 207.600 278.580,207.240 278.400,206.800 278.400 C 206.360 278.400,206.000 278.220,206.000 278.000 C 206.000 277.780,205.550 277.600,205.000 277.600 C 204.378 277.600,204.000 277.373,204.000 277.000 C 204.000 276.581,203.578 276.400,202.600 276.400 C 201.830 276.400,201.200 276.220,201.200 276.000 C 201.200 275.780,200.840 275.600,200.400 275.600 C 199.960 275.600,199.600 275.420,199.600 275.200 C 199.600 274.980,199.240 274.800,198.800 274.800 C 198.360 274.800,198.000 274.620,198.000 274.400 C 198.000 274.180,197.370 274.000,196.600 274.000 C 195.830 274.000,195.200 273.820,195.200 273.600 C 195.200 273.380,194.840 273.200,194.400 273.200 C 193.956 273.200,193.600 272.933,193.600 272.600 C 193.600 272.227,193.222 272.000,192.600 272.000 C 192.050 272.000,191.600 271.820,191.600 271.600 C 191.600 271.380,190.970 271.200,190.200 271.200 C 189.430 271.200,188.800 271.020,188.800 270.800 C 188.800 270.580,188.440 270.400,188.000 270.400 C 187.560 270.400,187.200 270.220,187.200 270.000 C 187.200 269.780,186.840 269.600,186.400 269.600 C 185.956 269.600,185.600 269.333,185.600 269.000 C 185.600 268.581,185.178 268.400,184.200 268.400 C 183.430 268.400,182.800 268.220,182.800 268.000 C 182.800 267.780,182.440 267.600,182.000 267.600 C 181.560 267.600,181.200 267.420,181.200 267.200 C 181.200 266.980,180.750 266.800,180.200 266.800 C 179.650 266.800,179.200 266.620,179.200 266.400 C 179.200 266.180,178.660 266.000,178.000 266.000 C 177.340 266.000,176.800 265.820,176.800 265.600 C 176.800 265.380,176.350 265.200,175.800 265.200 C 175.178 265.200,174.800 264.973,174.800 264.600 C 174.800 264.267,174.444 264.000,174.000 264.000 C 173.560 264.000,173.200 263.820,173.200 263.600 C 173.200 263.380,172.570 263.200,171.800 263.200 C 171.030 263.200,170.400 263.020,170.400 262.800 C 170.400 262.580,170.040 262.400,169.600 262.400 C 169.160 262.400,168.800 262.220,168.800 262.000 C 168.800 261.780,168.350 261.600,167.800 261.600 C 167.250 261.600,166.800 261.420,166.800 261.200 C 166.800 260.980,166.260 260.800,165.600 260.800 C 164.800 260.800,164.400 260.600,164.400 260.200 C 164.400 259.827,164.022 259.600,163.400 259.600 C 162.850 259.600,162.400 259.420,162.400 259.200 C 162.400 258.980,162.040 258.800,161.600 258.800 C 161.160 258.800,160.800 258.620,160.800 258.400 C 160.800 258.180,160.170 258.000,159.400 258.000 C 158.630 258.000,158.000 257.820,158.000 257.600 C 158.000 257.380,157.640 257.200,157.200 257.200 C 156.756 257.200,156.400 256.933,156.400 256.600 C 156.400 256.227,156.022 256.000,155.400 256.000 C 154.850 256.000,154.400 255.820,154.400 255.600 C 154.400 255.380,153.860 255.200,153.200 255.200 C 152.540 255.200,152.000 255.020,152.000 254.800 C 152.000 254.580,151.550 254.400,151.000 254.400 C 150.450 254.400,150.000 254.220,150.000 254.000 C 150.000 253.780,149.640 253.600,149.200 253.600 C 148.760 253.600,148.400 253.420,148.400 253.200 C 148.400 252.980,147.770 252.800,147.000 252.800 C 146.022 252.800,145.600 252.619,145.600 252.200 C 145.600 251.867,145.244 251.600,144.800 251.600 C 144.360 251.600,144.000 251.420,144.000 251.200 C 144.000 250.980,143.550 250.800,143.000 250.800 C 142.450 250.800,142.000 250.620,142.000 250.400 C 142.000 250.180,141.460 250.000,140.800 250.000 C 140.140 250.000,139.600 249.820,139.600 249.600 C 139.600 249.380,139.150 249.200,138.600 249.200 C 138.050 249.200,137.600 249.020,137.600 248.800 C 137.600 248.580,137.240 248.400,136.800 248.400 C 136.356 248.400,136.000 248.133,136.000 247.800 C 136.000 247.381,135.578 247.200,134.600 247.200 C 133.830 247.200,133.200 247.020,133.200 246.800 C 133.200 246.580,132.840 246.400,132.400 246.400 C 131.960 246.400,131.600 246.220,131.600 246.000 C 131.600 245.303,130.633 245.614,129.700 246.610 " stroke="none" fill="#fb4383" fill-rule="evenodd"></path><path id="path4" d="M198.511 55.922 C 198.079 56.197,201.240 60.432,205.735 65.600 C 206.213 66.150,207.323 67.500,208.202 68.600 C 209.081 69.700,209.897 70.690,210.014 70.800 C 210.278 71.046,218.945 81.526,220.600 83.599 C 221.260 84.427,223.480 87.150,225.534 89.652 C 227.588 92.153,229.568 94.566,229.934 95.014 C 231.621 97.076,234.604 100.620,234.805 100.800 C 234.927 100.910,235.741 101.895,236.614 102.988 C 237.486 104.082,238.560 105.401,239.000 105.920 C 239.440 106.439,241.962 109.502,244.605 112.727 C 247.247 115.952,249.702 118.647,250.060 118.716 C 250.471 118.795,255.593 113.973,263.967 105.621 C 276.723 92.899,278.035 91.795,279.120 92.880 C 280.338 94.098,279.488 95.116,266.000 108.600 C 258.520 116.078,252.400 122.416,252.400 122.686 C 252.400 122.956,252.836 124.130,253.369 125.295 C 253.902 126.460,254.726 128.401,255.201 129.607 C 255.675 130.813,256.589 132.938,257.232 134.328 C 257.874 135.718,258.400 136.935,258.400 137.032 C 258.400 137.129,258.760 138.017,259.200 139.004 C 261.336 143.799,262.645 146.806,263.201 148.200 C 263.377 148.640,263.898 149.853,264.360 150.896 C 264.822 151.938,265.200 152.878,265.200 152.985 C 265.200 153.091,265.629 154.128,266.154 155.289 C 268.157 159.720,268.800 161.197,268.800 161.366 C 268.800 161.463,269.430 162.905,270.200 164.572 C 270.970 166.239,271.600 167.695,271.600 167.806 C 271.600 167.918,271.983 168.862,272.452 169.904 C 274.324 174.069,275.699 177.237,276.399 179.000 C 276.574 179.440,277.186 180.840,277.759 182.111 C 278.331 183.382,278.800 184.509,278.800 184.615 C 278.800 184.722,279.160 185.617,279.600 186.604 C 280.040 187.592,280.760 189.208,281.200 190.196 C 281.640 191.183,282.000 192.078,282.000 192.185 C 282.000 192.291,282.429 193.328,282.954 194.489 C 284.991 198.995,285.600 200.398,285.600 200.585 C 285.600 200.691,286.072 201.818,286.648 203.089 C 287.224 204.360,287.944 205.985,288.248 206.700 C 288.552 207.415,289.056 208.585,289.370 209.300 C 289.683 210.015,290.514 211.950,291.217 213.600 C 291.919 215.250,292.814 217.320,293.206 218.200 C 293.597 219.080,294.404 220.970,295.000 222.400 C 295.596 223.830,296.406 225.720,296.800 226.600 C 297.194 227.480,298.003 229.370,298.597 230.800 C 299.922 233.991,300.465 235.259,301.553 237.696 C 302.019 238.738,302.400 239.678,302.400 239.785 C 302.400 239.891,302.872 241.018,303.448 242.289 C 304.024 243.560,304.726 245.140,305.007 245.800 C 306.367 248.995,309.376 255.976,310.008 257.400 C 310.398 258.280,311.204 260.170,311.800 261.600 C 312.396 263.030,313.206 264.920,313.600 265.800 C 313.994 266.680,314.804 268.570,315.400 270.000 C 315.996 271.430,316.806 273.320,317.200 274.200 C 317.594 275.080,318.404 276.970,318.999 278.400 C 319.594 279.830,320.513 281.950,321.041 283.112 C 321.568 284.273,322.000 285.307,322.000 285.409 C 322.000 285.511,322.817 287.441,323.816 289.697 C 324.815 291.954,325.787 294.160,325.976 294.600 C 326.165 295.040,326.710 296.277,327.186 297.350 C 327.662 298.422,328.414 300.222,328.857 301.350 C 329.300 302.477,329.897 303.940,330.184 304.600 C 332.976 311.028,334.009 313.200,334.270 313.200 C 334.572 313.200,334.076 305.720,332.786 290.800 C 332.548 288.050,332.188 283.640,331.987 281.000 C 331.370 272.933,330.864 266.962,329.154 247.600 C 328.930 245.070,328.583 240.840,328.381 238.200 C 328.180 235.560,327.829 231.150,327.602 228.400 C 327.374 225.650,327.026 221.330,326.828 218.800 C 326.630 216.270,326.179 210.870,325.825 206.800 C 324.303 189.293,323.862 184.027,323.212 175.600 C 322.654 168.363,322.117 161.957,321.402 154.000 C 321.056 150.150,320.599 144.795,320.387 142.100 C 319.927 136.270,319.336 129.054,318.825 123.000 C 318.620 120.580,318.263 116.080,318.032 113.000 C 317.800 109.920,317.517 106.770,317.403 106.000 C 317.289 105.230,317.006 102.170,316.776 99.200 C 316.545 96.230,316.182 91.640,315.969 89.000 C 315.021 77.269,314.816 74.678,314.425 69.492 C 313.736 60.331,314.103 60.480,307.800 66.800 C 302.929 71.683,301.285 72.641,300.643 70.967 C 300.123 69.613,300.595 68.981,306.620 62.948 C 310.041 59.523,312.771 56.514,312.687 56.260 C 312.508 55.724,199.348 55.389,198.511 55.922 M312.000 56.471 C 312.000 56.730,309.320 59.655,306.043 62.971 C 299.867 69.223,299.226 70.136,300.142 71.388 C 301.464 73.196,302.927 72.460,307.933 67.467 C 310.507 64.900,312.723 62.800,312.859 62.800 C 313.174 62.800,313.470 65.868,314.770 82.600 C 315.446 91.309,315.936 97.074,316.621 104.400 C 316.981 108.250,317.432 113.470,317.623 116.000 C 317.815 118.530,318.154 122.850,318.379 125.600 C 319.220 135.907,319.568 140.359,319.971 145.963 C 320.199 149.132,320.482 152.029,320.600 152.400 C 320.718 152.771,321.012 155.668,321.255 158.837 C 321.497 162.007,321.840 166.490,322.016 168.800 C 322.193 171.110,322.528 175.340,322.762 178.200 C 322.995 181.060,323.357 185.650,323.566 188.400 C 323.774 191.150,324.234 196.550,324.587 200.400 C 325.360 208.835,325.927 215.427,326.411 221.600 C 326.609 224.130,326.947 228.450,327.162 231.200 C 327.973 241.582,328.384 246.406,329.036 253.200 C 329.405 257.050,329.860 262.270,330.046 264.800 C 330.381 269.340,330.810 274.818,331.566 284.200 C 331.778 286.840,332.137 291.430,332.364 294.400 C 332.590 297.370,332.957 301.060,333.179 302.600 C 333.402 304.140,333.579 306.570,333.572 308.000 L 333.560 310.600 332.747 308.800 C 332.300 307.810,331.769 306.687,331.567 306.305 C 331.365 305.923,331.200 305.338,331.200 305.005 C 331.200 304.672,331.020 304.400,330.800 304.400 C 330.580 304.400,330.400 304.119,330.400 303.775 C 330.400 303.432,329.935 302.127,329.367 300.875 C 328.799 299.624,327.966 297.790,327.516 296.800 C 327.067 295.810,326.541 294.595,326.349 294.100 C 325.523 291.970,325.227 291.272,324.191 289.000 C 323.589 287.680,322.964 286.240,322.802 285.800 C 322.301 284.441,321.361 282.211,319.599 278.200 C 319.116 277.100,318.577 275.840,318.401 275.400 C 317.939 274.243,316.843 271.676,315.924 269.600 C 315.486 268.610,314.983 267.440,314.805 267.000 C 313.973 264.941,311.628 259.481,309.993 255.800 C 309.603 254.920,309.012 253.570,308.681 252.800 C 308.349 252.030,307.682 250.500,307.199 249.400 C 306.716 248.300,306.176 247.040,306.000 246.600 C 305.824 246.160,305.302 244.947,304.840 243.904 C 304.378 242.862,304.000 241.922,304.000 241.815 C 304.000 241.709,303.571 240.672,303.046 239.511 C 301.009 235.005,300.400 233.602,300.400 233.415 C 300.400 233.309,299.931 232.182,299.359 230.911 C 298.786 229.640,298.174 228.240,297.998 227.800 C 297.823 227.360,297.297 226.137,296.830 225.083 C 296.362 224.029,295.687 222.409,295.330 221.483 C 294.972 220.557,294.527 219.629,294.340 219.420 C 294.153 219.211,294.000 218.716,294.000 218.320 C 294.000 217.924,293.820 217.600,293.600 217.600 C 293.380 217.600,293.200 217.251,293.200 216.824 C 293.200 216.397,293.020 215.936,292.800 215.800 C 292.580 215.664,292.400 215.307,292.400 215.006 C 292.400 214.705,291.763 213.050,290.983 211.329 C 290.204 209.608,289.412 207.840,289.223 207.400 C 289.034 206.960,288.502 205.747,288.040 204.704 C 287.578 203.662,287.200 202.722,287.200 202.615 C 287.200 202.509,286.731 201.382,286.159 200.111 C 285.586 198.840,284.974 197.440,284.800 197.000 C 284.626 196.560,284.014 195.160,283.441 193.889 C 282.869 192.618,282.400 191.491,282.400 191.385 C 282.400 191.198,281.791 189.795,279.754 185.289 C 279.229 184.128,278.800 183.091,278.800 182.985 C 278.800 182.878,278.422 181.938,277.960 180.896 C 277.498 179.853,276.966 178.640,276.777 178.200 C 276.588 177.760,275.796 175.992,275.017 174.271 C 274.237 172.550,273.600 171.063,273.600 170.966 C 273.600 170.797,272.957 169.320,270.954 164.889 C 270.429 163.728,270.000 162.691,270.000 162.585 C 270.000 162.478,269.622 161.538,269.160 160.496 C 268.698 159.453,268.177 158.240,268.001 157.800 C 267.619 156.843,266.794 154.919,265.599 152.200 C 265.116 151.100,264.577 149.840,264.401 149.400 C 263.939 148.243,262.843 145.676,261.924 143.600 C 261.115 141.771,260.676 140.715,260.053 139.100 C 259.862 138.605,259.250 137.210,258.694 136.000 C 257.180 132.706,255.941 129.909,255.549 128.900 C 254.855 127.110,254.470 126.174,253.841 124.740 C 253.488 123.936,253.200 123.042,253.200 122.753 C 253.200 122.463,259.185 116.234,266.500 108.910 C 280.578 94.814,280.788 94.569,280.071 92.997 C 278.854 90.325,278.118 90.877,263.800 105.200 C 256.543 112.460,250.424 118.390,250.202 118.379 C 249.981 118.367,248.746 117.031,247.458 115.409 C 246.169 113.787,244.817 112.132,244.451 111.730 C 244.086 111.329,243.371 110.460,242.861 109.800 C 242.352 109.140,241.365 107.970,240.667 107.200 C 239.970 106.430,238.869 105.080,238.221 104.200 C 237.572 103.320,236.760 102.330,236.416 102.000 C 236.072 101.670,235.316 100.770,234.736 100.000 C 234.156 99.230,233.348 98.240,232.941 97.800 C 232.533 97.359,231.723 96.369,231.141 95.600 C 230.558 94.830,229.745 93.840,229.334 93.400 C 228.923 92.960,226.650 90.223,224.283 87.318 C 221.916 84.413,219.759 81.803,219.490 81.518 C 219.220 81.233,218.518 80.370,217.929 79.600 C 217.339 78.830,216.439 77.725,215.929 77.145 C 215.418 76.565,214.520 75.485,213.933 74.745 C 213.346 74.005,212.333 72.770,211.682 72.000 C 210.021 70.036,202.504 60.944,200.700 58.717 C 199.875 57.699,199.200 56.671,199.200 56.433 C 199.200 56.124,215.427 56.000,255.600 56.000 C 298.595 56.000,312.000 56.112,312.000 56.471 M161.697 88.012 C 144.266 105.431,130.104 119.845,130.226 120.042 C 130.482 120.455,244.922 120.545,245.335 120.132 C 245.707 119.759,238.782 110.567,236.798 108.800 C 236.674 108.690,235.859 107.700,234.986 106.600 C 234.114 105.500,233.307 104.510,233.192 104.400 C 233.078 104.290,231.732 102.670,230.200 100.800 C 228.668 98.930,227.322 97.310,227.208 97.200 C 227.093 97.090,226.286 96.100,225.414 95.000 C 224.541 93.900,223.725 92.910,223.599 92.800 C 223.474 92.690,221.314 90.080,218.800 87.000 C 216.286 83.920,214.132 81.310,214.014 81.200 C 213.897 81.090,213.080 80.100,212.201 79.000 C 211.321 77.900,210.296 76.640,209.923 76.200 C 209.550 75.760,207.233 72.970,204.775 70.000 C 202.317 67.030,199.832 64.035,199.253 63.344 C 198.674 62.654,197.660 61.396,197.000 60.550 C 196.340 59.704,195.258 58.410,194.595 57.676 L 193.390 56.340 161.697 88.012 M196.400 60.788 C 197.170 61.714,198.131 62.861,198.535 63.336 C 198.939 63.811,199.749 64.805,200.335 65.545 C 200.921 66.285,201.670 67.208,202.000 67.596 C 202.330 67.984,203.320 69.165,204.200 70.222 C 205.080 71.278,205.980 72.335,206.200 72.571 C 206.420 72.807,207.077 73.630,207.659 74.400 C 208.242 75.170,209.052 76.160,209.459 76.600 C 209.867 77.041,210.682 78.031,211.271 78.800 C 211.861 79.570,212.761 80.675,213.271 81.255 C 213.782 81.835,214.740 82.992,215.400 83.826 C 216.060 84.659,216.784 85.535,217.008 85.771 C 217.233 86.007,218.133 87.100,219.008 88.199 C 219.884 89.299,220.780 90.399,221.000 90.644 C 222.031 91.790,223.538 93.592,224.986 95.409 C 225.859 96.504,226.669 97.490,226.786 97.600 C 226.904 97.710,227.714 98.700,228.586 99.800 C 229.458 100.900,230.450 102.070,230.790 102.400 C 231.131 102.730,231.938 103.720,232.584 104.600 C 233.230 105.480,234.040 106.470,234.384 106.800 C 234.728 107.130,235.489 108.030,236.076 108.800 C 236.663 109.570,237.561 110.680,238.071 111.266 C 239.041 112.380,239.200 112.574,241.792 115.812 C 242.667 116.905,243.614 118.040,243.895 118.332 C 244.177 118.625,244.305 119.030,244.180 119.232 C 243.940 119.621,131.905 119.771,131.516 119.383 C 131.397 119.264,145.264 105.204,162.332 88.139 L 193.365 57.111 194.182 58.108 C 194.632 58.656,195.630 59.862,196.400 60.788 M286.703 82.331 C 283.703 85.255,283.133 86.776,284.626 87.869 C 285.933 88.824,286.838 88.438,289.639 85.734 C 292.745 82.736,293.177 81.401,291.414 80.246 C 289.942 79.282,289.740 79.371,286.703 82.331 M291.371 81.029 C 291.717 81.374,292.000 81.840,292.000 82.063 C 292.000 82.780,287.099 87.600,286.369 87.600 C 283.605 87.600,283.755 85.924,286.797 82.835 C 289.260 80.334,290.276 79.933,291.371 81.029 M96.052 153.651 C 78.648 171.052,64.508 185.451,64.630 185.648 C 64.752 185.846,66.145 187.034,67.726 188.289 C 69.307 189.544,70.793 190.757,71.029 190.985 C 71.265 191.213,72.147 191.940,72.988 192.600 C 78.226 196.710,79.218 198.182,77.538 199.358 C 76.524 200.069,76.028 199.865,73.489 197.697 C 72.525 196.874,70.941 195.546,69.968 194.747 C 68.996 193.948,67.410 192.636,66.444 191.832 C 65.479 191.028,64.489 190.437,64.244 190.519 C 63.612 190.729,63.610 304.470,64.242 304.681 C 64.773 304.858,126.800 242.889,126.800 242.182 C 126.800 241.776,121.941 237.582,112.829 230.123 C 112.074 229.505,110.717 228.370,109.812 227.600 C 108.907 226.830,106.410 224.776,104.263 223.034 C 100.999 220.387,100.379 219.706,100.480 218.875 C 100.750 216.643,102.400 216.777,105.236 219.261 C 105.986 219.918,107.230 220.937,108.000 221.526 C 108.770 222.114,109.490 222.690,109.600 222.805 C 109.710 222.921,111.330 224.268,113.200 225.800 C 115.070 227.332,116.690 228.678,116.800 228.792 C 116.910 228.907,117.900 229.717,119.000 230.594 C 120.100 231.471,121.360 232.524,121.800 232.935 C 122.240 233.346,123.230 234.158,124.000 234.741 C 124.770 235.323,125.639 236.026,125.931 236.303 C 126.762 237.089,127.870 237.597,128.147 237.319 C 128.544 236.922,128.446 122.476,128.048 122.230 C 127.855 122.110,113.457 136.250,96.052 153.651 M127.600 179.800 C 127.600 234.890,127.551 237.061,126.332 235.900 C 126.040 235.621,124.270 234.138,122.400 232.604 C 120.530 231.070,118.910 229.722,118.800 229.608 C 118.690 229.493,117.700 228.686,116.600 227.814 C 115.500 226.941,114.510 226.131,114.400 226.014 C 114.290 225.896,113.300 225.083,112.200 224.206 C 111.100 223.329,109.840 222.276,109.400 221.865 C 108.960 221.454,107.970 220.642,107.200 220.059 C 106.430 219.477,105.269 218.515,104.619 217.923 C 102.915 216.369,101.699 216.168,100.548 217.249 C 98.936 218.763,99.700 220.350,103.414 223.203 C 103.846 223.535,105.811 225.155,107.781 226.803 C 109.750 228.452,111.931 230.250,112.627 230.800 C 113.323 231.350,116.717 234.130,120.169 236.977 L 126.444 242.154 95.746 272.854 C 78.862 289.739,64.903 303.463,64.724 303.353 C 64.354 303.124,64.272 193.198,64.642 192.235 C 64.867 191.650,66.663 192.479,67.600 193.601 C 68.684 194.899,76.059 200.400,76.715 200.400 C 78.996 200.400,79.762 197.427,77.883 195.867 C 75.120 193.573,73.273 192.050,69.667 189.093 C 67.458 187.282,65.603 185.628,65.544 185.418 C 65.410 184.940,126.890 123.299,127.300 123.500 C 127.465 123.581,127.600 148.916,127.600 179.800 M132.012 124.377 C 131.525 125.288,131.607 236.540,132.095 237.029 C 132.258 237.191,157.801 211.914,188.857 180.857 C 219.914 149.801,245.191 124.258,245.029 124.095 C 244.218 123.285,132.448 123.564,132.012 124.377 M244.000 124.699 C 244.000 125.222,133.024 236.000,132.501 236.000 C 131.958 236.000,131.725 125.208,132.267 124.667 C 132.637 124.297,244.000 124.329,244.000 124.699 M191.210 183.390 C 136.345 238.256,133.460 241.211,134.210 241.778 C 134.645 242.106,135.145 242.380,135.322 242.387 C 135.499 242.394,136.489 242.779,137.522 243.242 C 140.821 244.722,142.060 245.256,149.000 248.196 C 149.660 248.475,151.240 249.176,152.511 249.752 C 153.782 250.328,154.909 250.800,155.015 250.800 C 155.202 250.800,156.605 251.409,161.111 253.446 C 162.272 253.971,163.309 254.400,163.415 254.400 C 163.522 254.400,164.417 254.760,165.404 255.200 C 166.392 255.640,168.008 256.360,168.996 256.800 C 169.983 257.240,170.878 257.600,170.985 257.600 C 171.091 257.600,172.128 258.029,173.289 258.554 C 177.829 260.606,179.199 261.200,179.394 261.200 C 179.505 261.200,180.961 261.830,182.628 262.600 C 184.295 263.370,185.737 264.000,185.834 264.000 C 186.003 264.000,187.480 264.643,191.911 266.646 C 193.072 267.171,194.109 267.600,194.215 267.600 C 194.322 267.600,195.262 267.978,196.304 268.440 C 197.347 268.902,198.560 269.423,199.000 269.598 C 199.440 269.774,200.840 270.386,202.111 270.959 C 203.382 271.531,204.502 272.000,204.601 272.000 C 204.699 272.000,205.959 272.540,207.400 273.200 C 208.841 273.860,210.092 274.400,210.181 274.400 C 210.269 274.400,211.705 275.030,213.372 275.800 C 215.039 276.570,216.555 277.200,216.740 277.200 C 216.926 277.200,217.600 277.450,218.239 277.756 C 218.877 278.062,220.030 278.589,220.800 278.927 C 221.570 279.264,223.240 280.004,224.512 280.570 C 225.783 281.137,226.904 281.600,227.002 281.600 C 227.100 281.600,228.399 282.159,229.890 282.843 C 231.380 283.527,233.497 284.441,234.593 284.874 C 235.689 285.307,237.540 286.098,238.705 286.631 C 239.870 287.164,240.903 287.600,241.001 287.600 C 241.098 287.600,242.218 288.069,243.489 288.641 C 244.760 289.214,246.160 289.826,246.600 290.001 C 247.965 290.543,250.950 291.841,255.796 294.000 C 256.783 294.440,257.682 294.800,257.793 294.800 C 257.904 294.800,259.841 295.617,262.097 296.616 C 264.354 297.615,266.560 298.587,267.000 298.776 C 267.440 298.965,268.677 299.510,269.750 299.986 C 270.822 300.462,272.619 301.213,273.743 301.656 C 274.867 302.099,276.740 302.898,277.905 303.431 C 279.070 303.964,280.103 304.400,280.201 304.400 C 280.298 304.400,281.418 304.872,282.689 305.448 C 285.358 306.659,286.425 307.119,290.000 308.603 C 291.430 309.197,293.320 310.002,294.200 310.392 C 295.080 310.782,297.780 311.954,300.200 312.995 C 302.620 314.037,305.320 315.210,306.200 315.603 C 307.080 315.996,308.970 316.803,310.400 317.397 C 313.975 318.881,315.042 319.341,317.711 320.552 C 318.982 321.128,320.109 321.600,320.215 321.600 C 320.398 321.600,321.199 321.944,325.696 323.953 C 326.738 324.419,327.678 324.800,327.785 324.800 C 327.958 324.800,331.179 326.213,333.473 327.295 C 336.258 328.608,336.195 327.140,333.187 320.571 C 332.534 319.146,332.000 317.900,332.000 317.802 C 332.000 317.704,331.568 316.673,331.041 315.512 C 330.513 314.350,329.596 312.230,329.003 310.800 C 327.525 307.238,327.062 306.166,325.848 303.489 C 325.272 302.218,324.800 301.091,324.800 300.985 C 324.800 300.802,324.456 300.001,322.447 295.504 C 321.981 294.462,321.600 293.522,321.600 293.415 C 321.600 293.309,321.128 292.182,320.552 290.911 C 319.976 289.640,319.277 288.060,319.000 287.400 C 318.723 286.740,317.865 284.760,317.094 283.000 C 316.323 281.240,314.661 277.370,313.401 274.400 C 312.142 271.430,310.790 268.280,310.397 267.400 C 310.004 266.520,309.196 264.630,308.600 263.200 C 308.004 261.770,307.194 259.880,306.800 259.000 C 306.406 258.120,305.596 256.230,305.000 254.800 C 304.404 253.370,303.594 251.480,303.200 250.600 C 302.806 249.720,301.997 247.830,301.403 246.400 C 300.810 244.970,300.053 243.170,299.721 242.400 C 299.390 241.630,298.964 240.640,298.775 240.200 C 298.586 239.760,297.607 237.510,296.600 235.200 C 295.593 232.890,294.613 230.640,294.424 230.200 C 294.235 229.760,293.702 228.547,293.240 227.504 C 292.778 226.462,292.400 225.522,292.400 225.415 C 292.400 225.309,291.928 224.182,291.352 222.911 C 290.141 220.242,289.681 219.175,288.197 215.600 C 287.603 214.170,286.794 212.280,286.400 211.400 C 286.006 210.520,285.196 208.630,284.600 207.200 C 284.004 205.770,283.157 203.790,282.716 202.800 C 282.276 201.810,281.686 200.460,281.404 199.800 C 281.123 199.140,280.501 197.723,280.021 196.650 C 279.541 195.578,278.791 193.792,278.354 192.682 C 277.916 191.572,277.226 189.930,276.821 189.032 C 276.415 188.135,275.597 186.230,275.003 184.800 C 273.721 181.711,273.188 180.467,272.008 177.800 C 270.891 175.278,270.010 173.229,269.599 172.200 C 269.423 171.760,268.902 170.547,268.440 169.504 C 267.978 168.462,267.600 167.529,267.600 167.432 C 267.600 167.335,267.077 166.118,266.437 164.728 C 265.797 163.338,264.824 161.120,264.274 159.800 C 262.349 155.179,260.362 150.582,259.385 148.489 C 258.843 147.328,258.400 146.291,258.400 146.185 C 258.400 146.078,258.022 145.138,257.560 144.096 C 257.098 143.053,256.577 141.840,256.402 141.400 C 256.226 140.960,255.614 139.560,255.041 138.289 C 254.469 137.018,254.000 135.891,254.000 135.785 C 254.000 135.678,253.619 134.738,253.153 133.696 C 252.688 132.653,252.040 131.170,251.714 130.400 C 250.470 127.463,249.519 125.600,249.264 125.600 C 249.118 125.600,222.994 151.606,191.210 183.390 M250.247 128.700 C 250.816 129.965,251.426 131.360,251.601 131.800 C 252.143 133.165,253.441 136.150,255.600 140.996 C 256.040 141.983,256.400 142.882,256.400 142.993 C 256.400 143.104,257.217 145.041,258.216 147.297 C 259.215 149.554,260.186 151.760,260.374 152.200 C 260.563 152.640,261.186 154.040,261.759 155.311 C 262.331 156.582,262.800 157.709,262.800 157.815 C 262.800 157.922,263.178 158.862,263.640 159.904 C 264.102 160.947,264.623 162.160,264.799 162.600 C 265.181 163.557,266.006 165.481,267.201 168.200 C 267.684 169.300,268.223 170.560,268.399 171.000 C 268.963 172.412,269.806 174.348,272.447 180.296 C 272.861 181.228,273.200 182.078,273.200 182.184 C 273.200 182.377,274.529 185.435,276.074 188.800 C 276.529 189.790,277.040 190.960,277.209 191.400 C 277.379 191.840,277.986 193.240,278.559 194.511 C 279.131 195.782,279.600 196.909,279.600 197.015 C 279.600 197.122,279.978 198.062,280.440 199.104 C 280.902 200.147,281.426 201.360,281.604 201.800 C 281.782 202.240,282.286 203.410,282.724 204.400 C 283.653 206.498,284.746 209.060,285.200 210.200 C 285.578 211.150,286.395 213.056,287.601 215.800 C 288.084 216.900,288.623 218.160,288.799 218.600 C 289.852 221.239,291.867 225.802,292.833 227.738 C 293.255 228.584,293.600 229.434,293.600 229.628 C 293.600 229.821,294.156 231.199,294.835 232.690 C 296.165 235.609,297.093 237.726,297.600 239.000 C 298.054 240.140,299.147 242.702,300.076 244.800 C 300.831 246.507,301.123 247.204,301.959 249.300 C 302.546 250.770,303.654 253.291,304.453 254.975 C 304.864 255.841,305.200 256.786,305.200 257.075 C 305.200 257.364,305.380 257.600,305.600 257.600 C 305.820 257.600,306.000 258.014,306.000 258.520 C 306.000 259.026,306.148 259.611,306.328 259.820 C 306.509 260.029,307.167 261.460,307.791 263.000 C 308.414 264.540,309.077 265.971,309.262 266.180 C 309.448 266.389,309.600 266.884,309.600 267.280 C 309.600 267.676,309.780 268.000,310.000 268.000 C 310.220 268.000,310.400 268.272,310.400 268.605 C 310.400 268.938,310.565 269.523,310.766 269.905 C 310.968 270.287,311.400 271.230,311.727 272.000 C 312.055 272.770,312.718 274.300,313.201 275.400 C 313.684 276.500,314.224 277.760,314.400 278.200 C 314.576 278.640,315.098 279.853,315.560 280.896 C 316.022 281.938,316.400 282.878,316.400 282.985 C 316.400 283.091,316.829 284.128,317.354 285.289 C 319.391 289.795,320.000 291.198,320.000 291.385 C 320.000 291.491,320.472 292.618,321.048 293.889 C 322.293 296.634,322.773 297.750,324.196 301.200 C 324.785 302.630,325.679 304.700,326.181 305.800 C 326.955 307.493,328.279 310.572,330.997 317.000 C 331.276 317.660,331.976 319.240,332.552 320.511 C 333.128 321.782,333.600 322.909,333.600 323.015 C 333.600 323.122,333.983 324.024,334.451 325.020 C 335.375 326.985,335.210 327.648,333.987 326.885 C 333.560 326.618,332.938 326.400,332.605 326.400 C 332.272 326.400,332.000 326.220,332.000 326.000 C 332.000 325.780,331.728 325.600,331.395 325.600 C 331.062 325.600,330.477 325.426,330.095 325.214 C 329.475 324.870,328.166 324.290,324.200 322.606 C 323.540 322.325,321.960 321.624,320.689 321.048 C 319.418 320.472,318.291 320.000,318.185 320.000 C 318.078 320.000,317.138 319.622,316.096 319.160 C 315.053 318.698,313.840 318.177,313.400 318.001 C 312.443 317.619,310.519 316.794,307.800 315.599 C 306.700 315.116,305.440 314.579,305.000 314.406 C 304.560 314.232,302.795 313.440,301.079 312.645 C 299.362 311.850,297.785 311.200,297.573 311.200 C 297.362 311.200,296.877 311.040,296.495 310.844 C 296.113 310.648,294.990 310.133,294.000 309.699 C 290.966 308.370,288.664 307.332,287.239 306.651 C 286.490 306.293,285.652 306.000,285.376 306.000 C 285.101 306.000,284.184 305.658,283.338 305.239 C 281.363 304.263,277.262 302.398,276.100 301.948 C 274.460 301.314,273.419 300.880,271.600 300.076 C 269.524 299.157,266.957 298.061,265.800 297.599 C 265.360 297.423,264.100 296.884,263.000 296.401 C 260.203 295.172,258.351 294.379,257.300 293.959 C 255.614 293.286,254.602 292.844,251.491 291.422 C 249.781 290.640,248.223 290.000,248.029 290.000 C 247.835 290.000,246.894 289.614,245.938 289.143 C 244.982 288.672,243.840 288.147,243.400 287.976 C 242.960 287.806,241.520 287.182,240.200 286.591 C 238.880 286.000,237.440 285.373,237.000 285.198 C 236.560 285.023,235.347 284.502,234.304 284.040 C 233.262 283.578,232.322 283.200,232.215 283.200 C 232.109 283.200,231.072 282.771,229.911 282.246 C 225.405 280.209,224.002 279.600,223.815 279.600 C 223.709 279.600,222.582 279.131,221.311 278.559 C 220.040 277.986,218.640 277.375,218.200 277.202 C 217.760 277.029,216.177 276.327,214.682 275.643 C 213.187 274.960,211.864 274.400,211.742 274.400 C 211.481 274.400,209.848 273.691,203.080 270.638 C 201.804 270.062,200.049 269.370,199.180 269.098 C 198.311 268.827,197.600 268.469,197.600 268.303 C 197.600 268.136,197.276 268.000,196.880 268.000 C 196.484 268.000,195.989 267.847,195.780 267.660 C 195.571 267.473,194.643 267.028,193.717 266.670 C 192.791 266.313,191.216 265.656,190.217 265.210 C 189.218 264.765,187.592 264.040,186.604 263.600 C 185.617 263.160,184.722 262.800,184.615 262.800 C 184.509 262.800,183.382 262.331,182.111 261.759 C 180.840 261.186,179.440 260.574,179.000 260.400 C 178.560 260.226,177.160 259.614,175.889 259.041 C 174.618 258.469,173.498 258.000,173.399 258.000 C 173.301 258.000,172.041 257.460,170.600 256.800 C 169.159 256.140,167.849 255.600,167.689 255.600 C 167.528 255.600,166.099 254.970,164.511 254.200 C 162.924 253.430,161.457 252.800,161.251 252.800 C 161.044 252.800,160.184 252.457,159.338 252.038 C 157.200 250.979,153.218 249.200,152.985 249.200 C 152.878 249.200,151.938 248.822,150.896 248.360 C 149.853 247.898,148.640 247.374,148.200 247.196 C 147.760 247.018,146.590 246.514,145.600 246.076 C 143.488 245.141,140.930 244.049,139.800 243.601 C 139.360 243.426,137.933 242.801,136.629 242.213 L 134.258 241.143 191.628 183.772 C 223.182 152.217,249.047 126.400,249.105 126.400 C 249.163 126.400,249.677 127.435,250.247 128.700 M84.422 204.263 C 83.102 205.942,85.165 209.062,88.904 211.040 C 91.916 212.634,93.537 209.163,90.900 206.763 C 86.543 202.797,85.800 202.511,84.422 204.263 M87.846 204.877 C 91.669 207.782,92.525 209.237,91.000 210.237 C 89.864 210.981,89.419 210.786,86.100 208.086 C 82.983 205.551,84.665 202.459,87.846 204.877 M100.100 274.547 C 83.545 291.118,70.000 304.866,70.000 305.099 C 70.000 305.554,71.788 305.802,79.600 306.434 C 87.927 307.108,93.150 307.540,98.400 307.989 C 104.855 308.540,110.863 309.037,117.600 309.577 C 120.570 309.815,124.800 310.182,127.000 310.392 C 129.200 310.603,133.520 310.967,136.600 311.200 C 139.680 311.433,144.000 311.794,146.200 312.002 C 148.400 312.211,152.810 312.576,156.000 312.814 C 159.190 313.052,164.680 313.493,168.200 313.795 C 171.720 314.096,177.120 314.540,180.200 314.783 C 183.280 315.025,187.600 315.393,189.800 315.600 C 192.000 315.807,196.320 316.168,199.400 316.403 C 202.480 316.638,206.890 317.004,209.200 317.217 C 211.510 317.430,215.830 317.795,218.800 318.027 C 221.770 318.259,226.090 318.620,228.400 318.829 C 230.710 319.038,234.850 319.386,237.600 319.603 C 249.248 320.522,260.436 321.451,271.400 322.410 C 274.040 322.641,278.450 323.011,281.200 323.232 C 283.950 323.453,288.270 323.805,290.800 324.015 C 293.330 324.224,297.650 324.569,300.400 324.781 C 303.150 324.993,307.470 325.348,310.000 325.570 C 312.530 325.792,316.130 326.086,318.000 326.222 L 321.400 326.470 320.200 325.721 C 319.540 325.309,317.740 324.452,316.200 323.816 C 314.660 323.181,312.497 322.256,311.393 321.761 C 310.289 321.267,308.467 320.499,307.343 320.056 C 306.219 319.613,304.422 318.859,303.350 318.379 C 302.277 317.899,300.815 317.258,300.100 316.953 C 298.473 316.261,296.839 315.544,293.888 314.230 C 292.617 313.663,291.497 313.200,291.400 313.200 C 291.303 313.200,290.273 312.768,289.112 312.241 C 287.950 311.713,285.830 310.794,284.400 310.199 C 282.970 309.604,281.080 308.794,280.200 308.400 C 279.320 308.006,277.430 307.197,276.000 306.603 C 272.425 305.119,271.358 304.659,268.689 303.448 C 267.418 302.872,266.298 302.400,266.201 302.400 C 266.103 302.400,265.073 301.973,263.912 301.451 C 262.750 300.930,259.370 299.470,256.400 298.207 C 253.430 296.944,250.280 295.590,249.400 295.197 C 248.520 294.804,246.630 293.996,245.200 293.400 C 243.770 292.804,241.880 291.994,241.000 291.600 C 240.120 291.206,238.230 290.396,236.800 289.800 C 235.370 289.204,233.480 288.394,232.600 288.000 C 231.720 287.606,229.830 286.796,228.400 286.200 C 226.970 285.604,225.080 284.796,224.200 284.404 C 223.320 284.012,218.730 282.034,214.000 280.008 C 209.270 277.982,204.860 276.094,204.200 275.811 C 203.540 275.528,201.960 274.824,200.689 274.248 C 199.418 273.672,198.291 273.200,198.185 273.200 C 198.002 273.200,197.201 272.856,192.704 270.847 C 191.662 270.381,190.722 270.000,190.615 270.000 C 190.509 270.000,189.382 269.528,188.111 268.952 C 185.408 267.726,184.318 267.256,180.800 265.800 C 179.370 265.208,177.660 264.478,177.000 264.178 C 175.581 263.532,169.991 261.139,166.600 259.726 C 165.280 259.176,163.062 258.203,161.672 257.563 C 160.282 256.923,159.065 256.400,158.968 256.400 C 158.871 256.400,157.938 256.022,156.896 255.560 C 155.853 255.098,154.640 254.576,154.200 254.400 C 153.760 254.224,152.500 253.684,151.400 253.201 C 150.300 252.718,148.815 252.070,148.100 251.761 C 147.385 251.453,146.215 250.944,145.500 250.631 C 144.785 250.318,143.300 249.708,142.200 249.274 C 141.100 248.840,139.210 248.034,138.000 247.482 C 135.268 246.235,130.741 244.397,130.431 244.408 C 130.304 244.413,116.655 257.975,100.100 274.547 M131.600 246.000 C 131.600 246.220,131.960 246.400,132.400 246.400 C 132.840 246.400,133.200 246.580,133.200 246.800 C 133.200 247.020,133.830 247.200,134.600 247.200 C 135.578 247.200,136.000 247.381,136.000 247.800 C 136.000 248.133,136.356 248.400,136.800 248.400 C 137.240 248.400,137.600 248.580,137.600 248.800 C 137.600 249.020,138.050 249.200,138.600 249.200 C 139.150 249.200,139.600 249.380,139.600 249.600 C 139.600 249.820,140.140 250.000,140.800 250.000 C 141.460 250.000,142.000 250.180,142.000 250.400 C 142.000 250.620,142.450 250.800,143.000 250.800 C 143.550 250.800,144.000 250.980,144.000 251.200 C 144.000 251.420,144.360 251.600,144.800 251.600 C 145.244 251.600,145.600 251.867,145.600 252.200 C 145.600 252.619,146.022 252.800,147.000 252.800 C 147.770 252.800,148.400 252.980,148.400 253.200 C 148.400 253.420,148.760 253.600,149.200 253.600 C 149.640 253.600,150.000 253.780,150.000 254.000 C 150.000 254.220,150.450 254.400,151.000 254.400 C 151.550 254.400,152.000 254.580,152.000 254.800 C 152.000 255.020,152.540 255.200,153.200 255.200 C 153.860 255.200,154.400 255.380,154.400 255.600 C 154.400 255.820,154.850 256.000,155.400 256.000 C 156.022 256.000,156.400 256.227,156.400 256.600 C 156.400 256.933,156.756 257.200,157.200 257.200 C 157.640 257.200,158.000 257.380,158.000 257.600 C 158.000 257.820,158.630 258.000,159.400 258.000 C 160.170 258.000,160.800 258.180,160.800 258.400 C 160.800 258.620,161.160 258.800,161.600 258.800 C 162.040 258.800,162.400 258.980,162.400 259.200 C 162.400 259.420,162.850 259.600,163.400 259.600 C 164.022 259.600,164.400 259.827,164.400 260.200 C 164.400 260.600,164.800 260.800,165.600 260.800 C 166.260 260.800,166.800 260.980,166.800 261.200 C 166.800 261.420,167.250 261.600,167.800 261.600 C 168.350 261.600,168.800 261.780,168.800 262.000 C 168.800 262.220,169.160 262.400,169.600 262.400 C 170.040 262.400,170.400 262.580,170.400 262.800 C 170.400 263.020,171.030 263.200,171.800 263.200 C 172.570 263.200,173.200 263.380,173.200 263.600 C 173.200 263.820,173.560 264.000,174.000 264.000 C 174.444 264.000,174.800 264.267,174.800 264.600 C 174.800 264.973,175.178 265.200,175.800 265.200 C 176.350 265.200,176.800 265.380,176.800 265.600 C 176.800 265.820,177.340 266.000,178.000 266.000 C 178.660 266.000,179.200 266.180,179.200 266.400 C 179.200 266.620,179.650 266.800,180.200 266.800 C 180.750 266.800,181.200 266.980,181.200 267.200 C 181.200 267.420,181.560 267.600,182.000 267.600 C 182.440 267.600,182.800 267.780,182.800 268.000 C 182.800 268.220,183.430 268.400,184.200 268.400 C 185.178 268.400,185.600 268.581,185.600 269.000 C 185.600 269.333,185.956 269.600,186.400 269.600 C 186.840 269.600,187.200 269.780,187.200 270.000 C 187.200 270.220,187.560 270.400,188.000 270.400 C 188.440 270.400,188.800 270.580,188.800 270.800 C 188.800 271.020,189.430 271.200,190.200 271.200 C 190.970 271.200,191.600 271.380,191.600 271.600 C 191.600 271.820,192.050 272.000,192.600 272.000 C 193.222 272.000,193.600 272.227,193.600 272.600 C 193.600 272.933,193.956 273.200,194.400 273.200 C 194.840 273.200,195.200 273.380,195.200 273.600 C 195.200 273.820,195.830 274.000,196.600 274.000 C 197.370 274.000,198.000 274.180,198.000 274.400 C 198.000 274.620,198.360 274.800,198.800 274.800 C 199.240 274.800,199.600 274.980,199.600 275.200 C 199.600 275.420,199.960 275.600,200.400 275.600 C 200.840 275.600,201.200 275.780,201.200 276.000 C 201.200 276.220,201.830 276.400,202.600 276.400 C 203.578 276.400,204.000 276.581,204.000 277.000 C 204.000 277.373,204.378 277.600,205.000 277.600 C 205.550 277.600,206.000 277.780,206.000 278.000 C 206.000 278.220,206.360 278.400,206.800 278.400 C 207.240 278.400,207.600 278.580,207.600 278.800 C 207.600 279.020,208.230 279.200,209.000 279.200 C 209.770 279.200,210.400 279.380,210.400 279.600 C 210.400 279.820,210.760 280.000,211.200 280.000 C 211.640 280.000,212.000 280.180,212.000 280.400 C 212.000 280.620,212.360 280.800,212.800 280.800 C 213.244 280.800,213.600 281.067,213.600 281.400 C 213.600 281.819,214.022 282.000,215.000 282.000 C 215.770 282.000,216.400 282.180,216.400 282.400 C 216.400 282.620,216.760 282.800,217.200 282.800 C 217.640 282.800,218.000 282.980,218.000 283.200 C 218.000 283.420,218.450 283.600,219.000 283.600 C 219.550 283.600,220.000 283.780,220.000 284.000 C 220.000 284.220,220.630 284.400,221.400 284.400 C 222.170 284.400,222.800 284.580,222.800 284.800 C 222.800 285.020,223.160 285.200,223.600 285.200 C 224.044 285.200,224.400 285.467,224.400 285.800 C 224.400 286.133,224.756 286.400,225.200 286.400 C 225.640 286.400,226.000 286.580,226.000 286.800 C 226.000 287.020,226.630 287.200,227.400 287.200 C 228.170 287.200,228.800 287.380,228.800 287.600 C 228.800 287.820,229.160 288.000,229.600 288.000 C 230.040 288.000,230.400 288.180,230.400 288.400 C 230.400 288.620,230.850 288.800,231.400 288.800 C 232.022 288.800,232.400 289.027,232.400 289.400 C 232.400 289.819,232.822 290.000,233.800 290.000 C 234.570 290.000,235.200 290.180,235.200 290.400 C 235.200 290.620,235.560 290.800,236.000 290.800 C 236.440 290.800,236.800 290.980,236.800 291.200 C 236.800 291.420,237.160 291.600,237.600 291.600 C 238.040 291.600,238.400 291.780,238.400 292.000 C 238.400 292.220,239.030 292.400,239.800 292.400 C 240.570 292.400,241.200 292.580,241.200 292.800 C 241.200 293.020,241.560 293.200,242.000 293.200 C 242.444 293.200,242.800 293.467,242.800 293.800 C 242.800 294.173,243.178 294.400,243.800 294.400 C 244.350 294.400,244.800 294.580,244.800 294.800 C 244.800 295.020,245.430 295.200,246.200 295.200 C 246.970 295.200,247.600 295.380,247.600 295.600 C 247.600 295.820,247.960 296.000,248.400 296.000 C 248.840 296.000,249.200 296.180,249.200 296.400 C 249.200 296.620,249.560 296.800,250.000 296.800 C 250.440 296.800,250.800 296.980,250.800 297.200 C 250.800 297.420,251.430 297.600,252.200 297.600 C 253.178 297.600,253.600 297.781,253.600 298.200 C 253.600 298.533,253.956 298.800,254.400 298.800 C 254.840 298.800,255.200 298.980,255.200 299.200 C 255.200 299.420,255.650 299.600,256.200 299.600 C 256.750 299.600,257.200 299.780,257.200 300.000 C 257.200 300.220,257.740 300.400,258.400 300.400 C 259.060 300.400,259.600 300.580,259.600 300.800 C 259.600 301.020,260.050 301.200,260.600 301.200 C 261.222 301.200,261.600 301.427,261.600 301.800 C 261.600 302.133,261.956 302.400,262.400 302.400 C 262.840 302.400,263.200 302.580,263.200 302.800 C 263.200 303.020,263.830 303.200,264.600 303.200 C 265.370 303.200,266.000 303.380,266.000 303.600 C 266.000 303.820,266.360 304.000,266.800 304.000 C 267.240 304.000,267.600 304.180,267.600 304.400 C 267.600 304.620,268.050 304.800,268.600 304.800 C 269.150 304.800,269.600 304.980,269.600 305.200 C 269.600 305.420,270.140 305.600,270.800 305.600 C 271.600 305.600,272.000 305.800,272.000 306.200 C 272.000 306.573,272.378 306.800,273.000 306.800 C 273.550 306.800,274.000 306.980,274.000 307.200 C 274.000 307.420,274.360 307.600,274.800 307.600 C 275.240 307.600,275.600 307.780,275.600 308.000 C 275.600 308.220,276.230 308.400,277.000 308.400 C 277.770 308.400,278.400 308.580,278.400 308.800 C 278.400 309.020,278.760 309.200,279.200 309.200 C 279.640 309.200,280.000 309.380,280.000 309.600 C 280.000 309.820,280.450 310.000,281.000 310.000 C 281.622 310.000,282.000 310.227,282.000 310.600 C 282.000 311.000,282.400 311.200,283.200 311.200 C 283.860 311.200,284.400 311.380,284.400 311.600 C 284.400 311.820,284.850 312.000,285.400 312.000 C 285.950 312.000,286.400 312.180,286.400 312.400 C 286.400 312.620,286.760 312.800,287.200 312.800 C 287.640 312.800,288.000 312.980,288.000 313.200 C 288.000 313.420,288.630 313.600,289.400 313.600 C 290.378 313.600,290.800 313.781,290.800 314.200 C 290.800 314.533,291.156 314.800,291.600 314.800 C 292.040 314.800,292.400 314.980,292.400 315.200 C 292.400 315.420,292.850 315.600,293.400 315.600 C 293.950 315.600,294.400 315.780,294.400 316.000 C 294.400 316.220,294.940 316.400,295.600 316.400 C 296.260 316.400,296.800 316.580,296.800 316.800 C 296.800 317.020,297.250 317.200,297.800 317.200 C 298.350 317.200,298.800 317.380,298.800 317.600 C 298.800 317.820,299.160 318.000,299.600 318.000 C 300.044 318.000,300.400 318.267,300.400 318.600 C 300.400 319.019,300.822 319.200,301.800 319.200 C 302.570 319.200,303.200 319.380,303.200 319.600 C 303.200 319.820,303.560 320.000,304.000 320.000 C 304.440 320.000,304.800 320.180,304.800 320.400 C 304.800 320.620,305.250 320.800,305.800 320.800 C 306.350 320.800,306.800 320.980,306.800 321.200 C 306.800 321.420,307.340 321.600,308.000 321.600 C 308.660 321.600,309.200 321.780,309.200 322.000 C 309.200 322.220,309.650 322.400,310.200 322.400 C 310.822 322.400,311.200 322.627,311.200 323.000 C 311.200 323.333,311.556 323.600,312.000 323.600 C 312.440 323.600,312.800 323.780,312.800 324.000 C 312.800 324.220,313.430 324.400,314.200 324.400 C 314.970 324.400,315.600 324.580,315.600 324.800 C 315.600 325.020,314.970 325.200,314.200 325.200 C 313.430 325.200,312.800 325.020,312.800 324.800 C 312.800 324.554,310.800 324.400,307.600 324.400 C 304.400 324.400,302.400 324.246,302.400 324.000 C 302.400 323.753,300.333 323.600,297.000 323.600 C 293.667 323.600,291.600 323.447,291.600 323.200 C 291.600 322.953,289.533 322.800,286.200 322.800 C 281.667 322.800,280.800 322.704,280.800 322.200 C 280.800 321.697,279.956 321.600,275.600 321.600 C 272.400 321.600,270.400 321.446,270.400 321.200 C 270.400 320.953,268.333 320.800,265.000 320.800 C 261.667 320.800,259.600 320.647,259.600 320.400 C 259.600 320.154,257.600 320.000,254.400 320.000 C 251.200 320.000,249.200 319.846,249.200 319.600 C 249.200 319.353,247.133 319.200,243.800 319.200 C 239.267 319.200,238.400 319.104,238.400 318.600 C 238.400 318.097,237.556 318.000,233.200 318.000 C 230.000 318.000,228.000 317.846,228.000 317.600 C 228.000 317.353,225.933 317.200,222.600 317.200 C 219.267 317.200,217.200 317.047,217.200 316.800 C 217.200 316.554,215.200 316.400,212.000 316.400 C 208.800 316.400,206.800 316.246,206.800 316.000 C 206.800 315.753,204.733 315.600,201.400 315.600 C 198.067 315.600,196.000 315.447,196.000 315.200 C 196.000 314.953,193.933 314.800,190.600 314.800 C 186.067 314.800,185.200 314.704,185.200 314.200 C 185.200 313.697,184.356 313.600,180.000 313.600 C 176.800 313.600,174.800 313.446,174.800 313.200 C 174.800 312.953,172.733 312.800,169.400 312.800 C 166.067 312.800,164.000 312.647,164.000 312.400 C 164.000 312.154,162.000 312.000,158.800 312.000 C 155.600 312.000,153.600 311.846,153.600 311.600 C 153.600 311.353,151.533 311.200,148.200 311.200 C 144.867 311.200,142.800 311.047,142.800 310.800 C 142.800 310.554,140.800 310.400,137.600 310.400 C 133.244 310.400,132.400 310.303,132.400 309.800 C 132.400 309.296,131.533 309.200,127.000 309.200 C 123.667 309.200,121.600 309.047,121.600 308.800 C 121.600 308.554,119.600 308.400,116.400 308.400 C 113.200 308.400,111.200 308.246,111.200 308.000 C 111.200 307.753,109.133 307.600,105.800 307.600 C 102.467 307.600,100.400 307.447,100.400 307.200 C 100.400 306.954,98.400 306.800,95.200 306.800 C 92.000 306.800,90.000 306.646,90.000 306.400 C 90.000 306.153,87.933 306.000,84.600 306.000 C 80.067 306.000,79.200 305.904,79.200 305.400 C 79.200 304.911,78.533 304.800,75.600 304.800 C 73.467 304.800,72.000 304.637,72.000 304.400 C 72.000 304.180,72.188 304.000,72.418 304.000 C 72.858 304.000,74.800 302.206,74.800 301.800 C 74.800 301.486,76.695 299.600,77.010 299.600 C 77.328 299.600,78.400 298.532,78.400 298.215 C 78.400 297.900,81.100 295.200,81.415 295.200 C 81.729 295.200,82.800 294.129,82.800 293.815 C 82.800 293.500,85.500 290.800,85.815 290.800 C 86.132 290.800,87.200 289.728,87.200 289.410 C 87.200 289.089,89.089 287.200,89.410 287.200 C 89.728 287.200,90.800 286.132,90.800 285.815 C 90.800 285.500,93.500 282.800,93.815 282.800 C 94.129 282.800,95.200 281.729,95.200 281.415 C 95.200 281.100,97.900 278.400,98.215 278.400 C 98.532 278.400,99.600 277.328,99.600 277.010 C 99.600 276.695,101.486 274.800,101.800 274.800 C 102.108 274.800,104.000 272.908,104.000 272.600 C 104.000 272.286,105.895 270.400,106.210 270.400 C 106.528 270.400,107.600 269.332,107.600 269.015 C 107.600 268.700,110.300 266.000,110.615 266.000 C 110.932 266.000,112.000 264.928,112.000 264.610 C 112.000 264.295,113.886 262.400,114.200 262.400 C 114.508 262.400,116.400 260.508,116.400 260.200 C 116.400 259.886,118.295 258.000,118.610 258.000 C 118.928 258.000,120.000 256.932,120.000 256.615 C 120.000 256.300,122.700 253.600,123.015 253.600 C 123.329 253.600,124.400 252.529,124.400 252.215 C 124.400 251.900,127.100 249.200,127.415 249.200 C 127.730 249.200,128.800 248.129,128.800 247.814 C 128.800 247.681,129.205 247.139,129.700 246.610 C 130.633 245.614,131.600 245.303,131.600 246.000 " stroke="none" fill="#a43f68" fill-rule="evenodd"></path></g></svg>