<svg id="svg" version="1.1" xmlns="http://www.w3.org/2000/svg" xmlns:xlink="http://www.w3.org/1999/xlink" width="400" height="400" viewBox="0, 0, 400,400"><g id="svgg"><path id="path0" d="M179.383 6.274 C 179.094 6.563,178.574 6.800,178.229 6.800 C 177.883 6.800,177.600 6.980,177.600 7.200 C 177.600 7.420,177.395 7.600,177.144 7.600 C 175.619 7.600,175.626 7.397,175.613 54.310 L 175.600 99.620 176.626 100.010 C 178.122 100.579,185.331 100.509,185.920 99.920 C 186.646 99.194,186.615 8.400,185.888 8.400 C 185.607 8.400,185.117 8.040,184.800 7.600 C 184.483 7.160,183.918 6.800,183.545 6.800 C 183.172 6.800,182.792 6.575,182.700 6.300 C 182.477 5.631,180.045 5.612,179.383 6.274 M9.200 241.000 C 9.200 242.467,9.374 243.600,9.600 243.600 C 9.835 243.600,10.000 245.004,10.000 247.013 C 10.000 249.677,10.132 250.476,10.600 250.655 C 11.071 250.836,11.200 251.650,11.200 254.443 C 11.200 256.548,11.363 258.000,11.600 258.000 C 11.839 258.000,12.000 259.533,12.000 261.800 C 12.000 264.067,12.161 265.600,12.400 265.600 C 12.637 265.600,12.800 267.056,12.800 269.167 C 12.800 271.128,12.971 272.793,13.179 272.867 C 13.388 272.940,13.592 274.575,13.634 276.500 C 13.691 279.153,13.841 280.000,14.254 280.000 C 14.675 280.000,14.800 280.826,14.800 283.600 C 14.800 285.733,14.963 287.200,15.200 287.200 C 15.437 287.200,15.600 288.667,15.600 290.800 C 15.600 292.933,15.763 294.400,16.000 294.400 C 16.237 294.400,16.400 295.859,16.400 297.976 C 16.400 299.943,16.580 301.664,16.800 301.800 C 17.020 301.936,17.200 303.657,17.200 305.624 C 17.200 307.741,17.363 309.200,17.600 309.200 C 17.835 309.200,18.000 310.604,18.000 312.613 C 18.000 315.277,18.132 316.076,18.600 316.255 C 19.071 316.436,19.200 317.250,19.200 320.043 C 19.200 322.148,19.363 323.600,19.600 323.600 C 19.835 323.600,20.000 325.000,20.000 327.000 C 20.000 329.000,20.165 330.400,20.400 330.400 C 20.638 330.400,20.800 331.925,20.800 334.176 C 20.800 336.263,20.979 338.063,21.200 338.200 C 21.420 338.336,21.600 339.956,21.600 341.800 C 21.600 343.644,21.780 345.264,22.000 345.400 C 22.220 345.536,22.400 347.064,22.400 348.795 C 22.400 351.060,22.568 352.111,23.000 352.543 C 23.434 352.977,23.600 354.035,23.600 356.371 C 23.600 358.257,23.766 359.600,24.000 359.600 C 24.237 359.600,24.400 361.067,24.400 363.200 C 24.400 365.333,24.563 366.800,24.800 366.800 C 25.038 366.800,25.200 368.325,25.200 370.576 C 25.200 372.663,25.379 374.463,25.600 374.600 C 25.820 374.736,26.000 376.352,26.000 378.190 C 26.000 380.029,26.162 381.593,26.360 381.667 C 26.558 381.740,26.797 383.320,26.891 385.177 C 26.997 387.265,27.241 388.614,27.531 388.710 C 27.789 388.796,28.000 389.122,28.000 389.433 C 28.000 390.330,110.870 390.280,111.614 389.383 C 112.002 388.916,112.014 388.654,111.663 388.303 C 111.408 388.048,111.200 387.336,111.200 386.720 C 111.200 385.991,110.990 385.600,110.600 385.600 C 110.181 385.600,110.000 385.178,110.000 384.200 C 110.000 383.430,109.820 382.800,109.600 382.800 C 109.380 382.800,109.200 382.091,109.200 381.224 C 109.200 380.357,109.020 379.536,108.800 379.400 C 108.580 379.264,108.400 378.634,108.400 378.000 C 108.400 377.366,108.220 376.736,108.000 376.600 C 107.780 376.464,107.600 375.823,107.600 375.176 C 107.600 374.529,107.420 374.000,107.200 374.000 C 106.980 374.000,106.800 373.482,106.800 372.849 C 106.800 372.216,106.530 371.474,106.200 371.200 C 105.870 370.926,105.600 370.105,105.600 369.375 C 105.600 368.645,105.420 367.936,105.200 367.800 C 104.980 367.664,104.800 367.023,104.800 366.376 C 104.800 365.729,104.620 365.200,104.400 365.200 C 104.180 365.200,104.000 364.570,104.000 363.800 C 104.000 363.030,103.820 362.400,103.600 362.400 C 103.380 362.400,103.200 361.781,103.200 361.024 C 103.200 360.267,103.020 359.536,102.800 359.400 C 102.580 359.264,102.400 358.726,102.400 358.205 C 102.400 357.684,102.130 356.987,101.800 356.657 C 101.470 356.327,101.200 355.504,101.200 354.829 C 101.200 354.153,101.020 353.600,100.800 353.600 C 100.580 353.600,100.400 352.970,100.400 352.200 C 100.400 351.430,100.220 350.800,100.000 350.800 C 99.780 350.800,99.600 350.549,99.600 350.243 C 99.600 349.936,99.344 349.587,99.032 349.468 C 98.719 349.348,97.991 347.663,97.413 345.725 C 96.835 343.786,96.209 341.750,96.023 341.200 C 95.836 340.650,95.282 338.850,94.792 337.200 C 94.302 335.550,93.671 333.480,93.388 332.600 C 93.106 331.720,92.305 329.110,91.608 326.800 C 89.888 321.099,88.480 316.446,88.038 315.000 C 87.178 312.189,84.708 304.103,84.372 303.000 C 84.171 302.340,83.717 300.900,83.364 299.800 C 82.536 297.219,80.029 288.955,79.604 287.400 C 79.113 285.609,75.227 272.384,74.784 271.000 C 71.894 261.964,71.684 261.139,71.890 259.607 C 72.031 258.551,71.950 258.000,71.653 258.000 C 71.392 258.000,71.200 257.330,71.200 256.424 C 71.200 255.557,71.020 254.736,70.800 254.600 C 70.580 254.464,70.400 253.834,70.400 253.200 C 70.400 252.566,70.220 251.936,70.000 251.800 C 69.780 251.664,69.600 251.023,69.600 250.376 C 69.600 249.597,69.397 249.200,69.000 249.200 C 68.568 249.200,68.400 248.758,68.400 247.624 C 68.400 246.757,68.220 245.936,68.000 245.800 C 67.780 245.664,67.600 244.933,67.600 244.176 C 67.600 243.419,67.420 242.800,67.200 242.800 C 66.980 242.800,66.800 242.260,66.800 241.600 C 66.800 240.940,66.620 240.400,66.400 240.400 C 66.180 240.400,66.000 239.950,66.000 239.400 L 66.000 238.400 37.600 238.400 L 9.200 238.400 9.200 241.000 M222.072 238.700 C 227.941 238.762,237.661 238.762,243.672 238.700 C 249.682 238.638,244.880 238.587,233.000 238.586 C 221.120 238.586,216.202 238.637,222.072 238.700 " stroke="none" fill="#565e6e" fill-rule="evenodd"></path><path id="path1" d="M155.788 99.981 C 155.937 100.221,155.696 100.400,155.224 100.400 C 154.758 100.400,154.400 100.661,154.400 101.000 C 154.400 101.330,154.246 101.600,154.058 101.600 C 153.871 101.600,153.681 102.970,153.636 104.644 C 153.550 107.901,154.128 109.200,155.662 109.200 C 156.068 109.200,156.400 109.380,156.400 109.600 C 156.400 109.842,158.133 110.000,160.800 110.000 L 165.200 110.000 165.200 111.000 C 165.200 111.550,164.968 112.000,164.685 112.000 C 164.392 112.000,164.128 112.554,164.072 113.284 C 164.018 113.991,163.841 114.666,163.679 114.784 C 163.516 114.903,163.325 115.630,163.254 116.400 C 163.184 117.170,162.963 117.860,162.763 117.933 C 162.563 118.007,162.400 118.671,162.400 119.410 C 162.400 120.148,162.220 120.864,162.000 121.000 C 161.780 121.136,161.600 121.957,161.600 122.824 C 161.600 123.691,161.420 124.400,161.200 124.400 C 160.980 124.400,160.800 125.030,160.800 125.800 C 160.800 126.778,160.619 127.200,160.200 127.200 C 159.672 127.200,159.600 130.795,159.600 157.151 C 159.600 183.286,159.676 187.165,160.200 187.600 C 160.530 187.874,160.800 188.340,160.800 188.637 C 160.800 190.187,164.924 195.200,166.200 195.200 C 166.530 195.200,166.800 195.380,166.800 195.600 C 166.800 195.820,167.070 196.000,167.400 196.000 C 167.730 196.000,168.000 196.180,168.000 196.400 C 168.000 196.620,168.540 196.800,169.200 196.800 C 169.860 196.800,170.400 196.980,170.400 197.200 C 170.400 197.457,174.200 197.600,181.000 197.600 C 187.800 197.600,191.600 197.457,191.600 197.200 C 191.600 196.980,192.129 196.800,192.776 196.800 C 193.423 196.800,194.064 196.620,194.200 196.400 C 194.336 196.180,194.715 196.000,195.042 196.000 C 195.720 196.000,197.600 194.249,197.600 193.618 C 197.600 193.388,197.788 193.200,198.018 193.200 C 198.660 193.200,200.400 191.314,200.400 190.618 C 200.400 190.278,200.580 190.000,200.800 190.000 C 201.020 190.000,201.200 189.634,201.200 189.187 C 201.200 188.741,201.432 188.286,201.716 188.177 C 201.999 188.068,202.275 187.402,202.329 186.696 C 202.383 185.990,202.601 185.239,202.813 185.027 C 203.352 184.488,203.338 129.333,202.800 129.000 C 202.580 128.864,202.400 128.335,202.400 127.825 C 202.400 127.315,202.130 126.674,201.800 126.400 C 201.455 126.114,201.200 125.242,201.200 124.351 C 201.200 123.498,201.020 122.800,200.800 122.800 C 200.580 122.800,200.400 122.170,200.400 121.400 C 200.400 120.630,200.220 120.000,200.000 120.000 C 199.780 120.000,199.600 119.381,199.600 118.624 C 199.600 117.867,199.420 117.136,199.200 117.000 C 198.980 116.864,198.800 116.128,198.800 115.364 C 198.800 114.498,198.574 113.888,198.200 113.745 C 197.858 113.613,197.600 113.017,197.600 112.357 C 197.600 111.721,197.420 111.200,197.200 111.200 C 196.980 111.200,196.800 110.930,196.800 110.600 C 196.800 110.100,197.600 110.000,201.600 110.000 C 204.533 110.000,206.400 109.844,206.400 109.600 C 206.400 109.380,206.593 109.200,206.829 109.200 C 207.534 109.200,208.400 108.114,208.400 107.229 C 208.400 106.773,208.580 106.400,208.800 106.400 C 209.020 106.400,209.200 105.871,209.200 105.224 C 209.200 104.577,209.020 103.936,208.800 103.800 C 208.580 103.664,208.400 103.013,208.400 102.353 C 208.400 101.655,208.233 101.256,208.000 101.400 C 207.780 101.536,207.600 101.367,207.600 101.024 C 207.600 100.681,207.330 100.400,207.000 100.400 C 206.670 100.400,206.400 100.220,206.400 100.000 C 206.400 99.432,186.302 99.458,185.733 100.027 C 185.453 100.307,183.813 100.372,180.953 100.217 C 171.579 99.706,155.526 99.556,155.788 99.981 " stroke="none" fill="#e14b62" fill-rule="evenodd"></path><path id="path2" d="M143.200 224.000 C 143.200 224.237,141.733 224.400,139.600 224.400 C 137.467 224.400,136.000 224.563,136.000 224.800 C 136.000 225.020,135.111 225.200,134.024 225.200 C 132.937 225.200,131.936 225.380,131.800 225.600 C 131.664 225.820,130.946 226.000,130.205 226.000 C 129.464 226.000,128.619 226.225,128.329 226.500 C 128.038 226.775,127.440 227.042,127.000 227.093 C 126.560 227.144,125.808 227.227,125.329 227.278 C 124.850 227.328,124.545 227.512,124.652 227.685 C 124.760 227.858,124.387 228.000,123.824 228.000 C 123.261 228.000,122.800 228.180,122.800 228.400 C 122.800 228.620,122.170 228.800,121.400 228.800 C 120.630 228.800,120.000 228.980,120.000 229.200 C 120.000 229.420,119.651 229.600,119.224 229.600 C 118.797 229.600,118.336 229.780,118.200 230.000 C 118.064 230.220,117.616 230.400,117.205 230.400 C 116.794 230.400,116.187 230.670,115.857 231.000 C 115.527 231.330,115.083 231.600,114.869 231.600 C 114.492 231.600,111.531 233.110,108.903 234.643 C 108.189 235.059,107.604 235.535,107.603 235.700 C 107.601 235.865,107.240 236.000,106.800 236.000 C 106.360 236.000,106.000 236.180,106.000 236.400 C 106.000 236.620,105.730 236.800,105.400 236.800 C 105.070 236.800,104.800 236.980,104.800 237.200 C 104.800 237.420,104.575 237.600,104.300 237.600 C 104.025 237.601,103.277 238.051,102.638 238.600 C 101.999 239.150,101.223 239.600,100.914 239.600 C 100.605 239.600,100.464 239.780,100.600 240.000 C 100.736 240.220,100.639 240.400,100.384 240.400 C 100.129 240.400,99.417 240.940,98.800 241.600 C 98.183 242.260,97.481 242.800,97.240 242.800 C 96.998 242.800,96.800 242.988,96.800 243.218 C 96.800 243.774,94.955 245.600,94.395 245.600 C 94.152 245.600,94.053 245.762,94.176 245.961 C 94.299 246.160,93.859 246.510,93.200 246.740 C 92.540 246.970,92.000 247.438,92.000 247.779 C 92.000 248.121,91.806 248.400,91.568 248.400 C 91.331 248.400,90.327 249.210,89.337 250.200 C 88.347 251.190,87.347 252.000,87.115 252.000 C 86.884 252.000,86.403 252.316,86.047 252.703 C 85.691 253.089,84.860 253.674,84.200 254.003 C 83.540 254.331,82.781 254.780,82.514 255.000 C 82.247 255.220,81.752 255.632,81.414 255.916 C 81.076 256.199,80.800 256.314,80.800 256.170 C 80.800 256.026,80.356 256.199,79.814 256.554 C 79.272 256.909,78.552 257.200,78.214 257.200 C 77.876 257.200,77.600 257.380,77.600 257.600 C 77.600 257.820,77.060 258.000,76.400 258.000 C 75.740 258.000,75.200 258.180,75.200 258.400 C 75.200 258.620,74.750 258.800,74.200 258.800 C 73.650 258.800,73.200 258.980,73.200 259.200 C 73.200 259.420,72.949 259.600,72.643 259.600 C 71.257 259.600,71.441 260.579,74.783 271.000 C 74.995 271.660,76.059 275.260,77.148 279.000 C 78.237 282.740,79.796 287.960,80.613 290.600 C 81.429 293.240,82.234 295.940,82.401 296.600 C 82.568 297.260,82.973 298.610,83.300 299.600 C 83.627 300.590,84.300 302.750,84.796 304.400 C 85.292 306.050,85.929 308.120,86.212 309.000 C 86.494 309.880,87.295 312.490,87.992 314.800 C 88.689 317.110,89.670 320.350,90.173 322.000 C 90.675 323.650,91.485 326.350,91.972 328.000 C 93.346 332.651,93.953 334.081,93.979 332.724 C 93.991 332.132,93.820 331.536,93.600 331.400 C 93.380 331.264,93.200 330.634,93.200 330.000 C 93.200 329.366,93.020 328.736,92.800 328.600 C 92.580 328.464,92.400 327.834,92.400 327.200 C 92.400 326.566,92.220 325.936,92.000 325.800 C 91.780 325.664,91.600 325.210,91.600 324.790 C 91.600 324.370,91.347 323.436,91.038 322.714 C 90.730 321.991,90.262 320.590,89.999 319.600 C 89.737 318.610,89.360 317.487,89.161 317.105 C 88.962 316.723,88.800 316.046,88.800 315.600 C 88.800 315.154,88.638 314.477,88.439 314.095 C 88.240 313.713,87.863 312.590,87.601 311.600 C 87.338 310.610,86.870 309.209,86.562 308.486 C 86.253 307.764,86.000 306.830,86.000 306.410 C 86.000 305.990,85.820 305.536,85.600 305.400 C 85.380 305.264,85.200 304.634,85.200 304.000 C 85.200 303.366,85.020 302.736,84.800 302.600 C 84.580 302.464,84.400 301.834,84.400 301.200 C 84.400 300.566,84.220 299.936,84.000 299.800 C 83.780 299.664,83.605 299.248,83.612 298.876 C 83.623 298.298,82.102 293.117,81.183 290.600 C 81.023 290.160,80.693 289.080,80.451 288.200 C 80.209 287.320,79.649 285.445,79.206 284.034 C 78.275 281.069,78.199 280.031,78.900 279.835 C 81.973 278.973,83.443 278.436,86.000 277.244 C 89.118 275.791,94.775 272.118,97.200 269.972 C 99.932 267.554,101.441 266.205,104.800 263.177 C 112.977 255.805,126.432 248.886,136.654 246.795 C 152.801 243.493,169.970 244.861,182.296 250.433 C 183.228 250.855,184.069 251.200,184.163 251.200 C 184.257 251.200,186.554 252.249,189.267 253.531 C 191.980 254.813,194.830 256.091,195.600 256.371 C 196.370 256.651,197.360 257.022,197.800 257.195 C 198.734 257.561,201.053 258.183,203.600 258.750 C 204.590 258.970,205.850 259.282,206.400 259.443 C 206.950 259.604,220.630 259.853,236.800 259.997 C 258.522 260.190,266.618 260.389,267.800 260.757 C 268.680 261.031,270.030 261.435,270.800 261.654 C 277.211 263.479,285.200 269.181,285.200 271.931 L 285.200 273.200 282.300 273.191 C 280.705 273.186,273.910 272.914,267.200 272.587 C 240.271 271.275,225.469 271.629,215.266 273.831 C 212.293 274.472,211.279 279.180,213.631 281.425 C 215.006 282.738,218.872 282.943,224.474 282.001 C 225.863 281.768,231.860 281.470,237.800 281.340 C 247.944 281.119,252.489 281.247,278.600 282.490 C 284.100 282.752,289.518 282.947,290.640 282.923 L 292.679 282.880 293.340 284.975 C 293.703 286.127,294.000 287.369,294.000 287.735 C 294.000 288.632,294.248 288.581,296.800 287.163 C 298.010 286.491,301.070 284.851,303.600 283.518 C 306.130 282.185,308.380 280.961,308.600 280.798 C 308.820 280.634,310.530 279.694,312.400 278.709 C 321.695 273.810,323.934 272.620,325.500 271.747 C 329.335 269.610,330.800 268.817,335.000 266.607 C 337.420 265.333,339.580 264.163,339.800 264.007 C 340.020 263.850,341.910 262.817,344.000 261.710 C 346.090 260.604,349.240 258.932,351.000 257.996 C 361.947 252.172,363.666 251.463,368.568 250.746 C 372.795 250.128,380.960 251.353,382.580 252.849 C 382.789 253.042,383.219 253.200,383.536 253.200 C 383.853 253.200,384.351 253.515,384.643 253.900 C 385.146 254.562,385.175 254.560,385.187 253.857 C 385.196 253.364,385.401 253.192,385.800 253.345 C 386.130 253.471,386.400 253.423,386.400 253.238 C 386.400 252.807,388.960 250.000,389.352 250.000 C 389.514 250.000,389.536 250.180,389.400 250.400 C 389.037 250.988,389.570 250.887,390.210 250.248 C 390.513 249.944,390.650 249.584,390.514 249.448 C 390.378 249.311,390.546 249.200,390.887 249.200 C 391.508 249.200,391.998 247.795,391.695 246.885 C 391.606 246.618,391.268 246.400,390.943 246.400 C 390.618 246.400,390.464 246.220,390.600 246.000 C 390.736 245.780,390.554 245.600,390.197 245.600 C 389.728 245.600,389.617 245.376,389.800 244.800 C 389.980 244.232,389.872 244.000,389.427 244.000 C 389.080 244.000,388.800 243.664,388.800 243.249 C 388.800 242.260,387.764 241.351,387.470 242.083 C 387.339 242.412,387.252 242.345,387.232 241.900 C 387.203 241.264,386.744 241.013,385.879 241.160 C 385.113 241.290,384.247 239.943,384.835 239.537 C 385.238 239.259,385.124 239.226,384.439 239.420 C 383.678 239.636,383.528 239.565,383.715 239.077 C 383.897 238.602,383.727 238.502,382.967 238.640 C 382.329 238.756,381.900 238.604,381.748 238.209 C 381.620 237.874,381.163 237.600,380.734 237.600 C 380.304 237.600,380.064 237.420,380.200 237.200 C 380.344 236.967,379.937 236.800,379.224 236.800 C 378.551 236.800,378.000 236.620,378.000 236.400 C 378.000 236.180,377.370 236.000,376.600 236.000 C 375.675 236.000,375.200 235.812,375.200 235.447 C 375.200 234.945,374.453 234.552,372.800 234.184 C 372.421 234.100,372.495 234.272,373.000 234.650 C 373.750 235.213,373.701 235.242,372.200 235.125 C 371.320 235.056,370.633 234.812,370.673 234.581 C 370.717 234.326,369.549 234.130,367.673 234.079 C 365.822 234.028,364.812 234.132,365.134 234.341 C 366.032 234.926,364.489 235.262,362.019 235.020 C 360.798 234.900,360.025 234.907,360.300 235.035 C 361.316 235.506,360.753 236.000,359.200 236.000 C 358.320 236.000,357.600 236.180,357.600 236.400 C 357.600 236.620,357.049 236.800,356.376 236.800 C 355.663 236.800,355.256 236.967,355.400 237.200 C 355.540 237.427,355.204 237.600,354.624 237.600 C 354.057 237.600,353.645 237.807,353.700 238.063 C 353.760 238.340,353.236 238.541,352.400 238.563 C 351.352 238.591,350.901 238.826,350.605 239.500 C 350.388 239.995,350.002 240.400,349.748 240.400 C 349.494 240.400,349.182 240.670,349.055 241.000 C 348.929 241.330,348.564 241.600,348.246 241.600 C 347.927 241.600,347.607 241.735,347.533 241.900 C 347.460 242.065,346.140 242.848,344.600 243.640 C 340.401 245.799,335.360 248.489,327.800 252.604 C 320.959 256.327,317.430 258.232,313.000 260.593 C 308.674 262.898,304.236 265.284,302.200 266.400 C 294.774 270.468,294.606 270.503,294.153 268.089 C 293.317 263.633,289.619 256.933,285.278 252.010 C 283.810 250.344,283.930 250.131,287.327 248.374 C 288.687 247.671,290.790 246.548,292.000 245.878 C 296.875 243.181,299.119 241.975,301.600 240.718 C 303.030 239.993,304.260 239.265,304.333 239.100 C 304.407 238.935,304.797 238.800,305.200 238.800 C 305.603 238.800,305.993 238.665,306.067 238.500 C 306.140 238.335,307.250 237.660,308.533 237.000 C 311.854 235.292,312.521 233.435,310.143 232.523 C 309.777 232.382,308.860 231.667,308.105 230.934 C 307.349 230.200,306.477 229.600,306.166 229.600 C 305.855 229.600,305.600 229.420,305.600 229.200 C 305.600 228.980,305.240 228.800,304.800 228.800 C 304.360 228.800,304.000 228.620,304.000 228.400 C 304.000 228.180,303.728 228.000,303.395 228.000 C 302.779 228.000,302.433 227.856,300.069 226.616 C 299.337 226.233,298.311 226.000,297.789 226.100 C 297.220 226.209,296.757 226.065,296.633 225.741 C 296.325 224.940,281.782 224.950,281.474 225.751 C 281.336 226.111,280.885 226.229,280.169 226.092 C 279.483 225.961,278.912 226.095,278.637 226.452 C 278.397 226.765,277.930 227.001,277.600 226.977 C 277.270 226.953,276.601 227.174,276.114 227.467 C 275.627 227.760,274.952 228.000,274.614 228.000 C 274.276 228.000,273.999 228.135,273.997 228.300 C 273.994 228.621,272.088 229.600,271.466 229.600 C 271.260 229.600,270.675 230.050,270.165 230.600 C 269.655 231.150,268.870 231.600,268.419 231.600 C 267.969 231.600,267.600 231.780,267.600 232.000 C 267.600 232.220,267.240 232.400,266.800 232.400 C 266.360 232.400,266.000 232.580,266.000 232.800 C 266.000 233.020,265.640 233.200,265.200 233.200 C 264.760 233.200,264.400 233.359,264.400 233.553 C 264.400 233.748,264.085 234.006,263.700 234.128 C 262.719 234.437,259.828 236.138,259.667 236.500 C 259.593 236.665,259.188 236.800,258.767 236.800 C 258.345 236.800,258.000 236.980,258.000 237.200 C 258.000 237.420,257.655 237.600,257.233 237.600 C 256.812 237.600,256.391 237.825,256.299 238.100 C 256.168 238.493,250.487 238.600,229.686 238.600 C 209.062 238.600,203.130 238.490,202.740 238.100 C 202.465 237.825,201.466 237.600,200.520 237.600 C 199.574 237.600,198.800 237.420,198.800 237.200 C 198.800 236.980,198.170 236.800,197.400 236.800 C 196.630 236.800,196.000 236.620,196.000 236.400 C 196.000 236.180,195.389 236.000,194.643 236.000 C 193.781 236.000,193.198 235.772,193.046 235.375 C 192.914 235.031,192.645 234.849,192.448 234.970 C 192.252 235.092,191.868 234.923,191.596 234.596 C 191.324 234.268,190.764 234.000,190.351 234.000 C 189.938 234.000,189.600 233.820,189.600 233.600 C 189.600 233.380,189.240 233.200,188.800 233.200 C 188.360 233.200,188.000 232.990,188.000 232.733 C 188.000 232.477,187.885 232.382,187.744 232.523 C 187.603 232.664,186.928 232.487,186.244 232.130 C 183.317 230.604,182.844 230.400,182.238 230.400 C 181.887 230.400,181.600 230.220,181.600 230.000 C 181.600 229.780,181.251 229.600,180.824 229.600 C 180.397 229.600,179.936 229.420,179.800 229.200 C 179.664 228.980,179.013 228.800,178.353 228.800 C 177.655 228.800,177.256 228.633,177.400 228.400 C 177.547 228.163,177.082 228.000,176.257 228.000 C 175.492 228.000,174.807 227.826,174.733 227.613 C 174.660 227.400,174.015 227.181,173.300 227.128 C 172.585 227.074,172.000 226.833,172.000 226.593 C 172.000 226.353,171.235 226.112,170.300 226.057 C 169.365 226.002,168.429 225.787,168.220 225.579 C 168.011 225.370,166.976 225.200,165.920 225.200 C 164.864 225.200,164.000 225.020,164.000 224.800 C 164.000 224.563,162.541 224.400,160.424 224.400 C 158.457 224.400,156.736 224.220,156.600 224.000 C 156.451 223.760,153.729 223.600,149.776 223.600 C 145.659 223.600,143.200 223.750,143.200 224.000 M94.000 334.310 C 94.000 334.507,94.360 335.823,94.800 337.234 C 95.239 338.645,95.767 340.340,95.972 341.000 C 96.178 341.660,96.805 343.730,97.367 345.600 C 98.027 347.801,98.672 349.178,99.194 349.503 C 100.210 350.138,100.211 349.966,99.200 348.800 C 98.760 348.293,98.400 347.466,98.400 346.962 C 98.400 346.459,98.220 345.936,98.000 345.800 C 97.780 345.664,97.600 345.111,97.600 344.571 C 97.600 344.031,97.436 343.277,97.236 342.895 C 96.785 342.035,94.800 335.521,94.800 334.900 C 94.800 334.651,94.620 334.336,94.400 334.200 C 94.180 334.064,94.000 334.114,94.000 334.310 " stroke="none" fill="#e3b494" fill-rule="evenodd"></path><path id="path3" d="M233.457 10.600 C 233.127 10.930,232.574 11.200,232.229 11.200 C 231.883 11.200,231.600 11.352,231.600 11.537 C 231.600 11.723,230.790 12.291,229.800 12.800 C 228.810 13.309,228.000 13.922,227.999 14.163 C 227.999 14.403,227.209 15.099,226.245 15.708 C 225.281 16.317,223.886 17.560,223.146 18.470 C 222.406 19.380,221.343 20.614,220.785 21.214 C 220.226 21.813,219.326 22.954,218.785 23.749 C 218.243 24.544,217.665 25.196,217.500 25.197 C 217.335 25.199,217.200 25.650,217.200 26.200 C 217.200 26.750,217.020 27.200,216.800 27.200 C 216.580 27.200,216.400 27.560,216.400 28.000 C 216.400 28.440,216.220 28.800,216.000 28.800 C 215.780 28.800,215.600 29.160,215.600 29.600 C 215.600 30.040,215.420 30.400,215.200 30.400 C 214.980 30.400,214.800 30.831,214.800 31.357 C 214.800 31.884,214.530 32.418,214.200 32.545 C 213.870 32.671,213.600 33.220,213.600 33.764 C 213.600 34.308,213.420 34.864,213.200 35.000 C 212.980 35.136,212.800 35.856,212.800 36.600 C 212.800 37.344,212.620 38.064,212.400 38.200 C 212.180 38.336,212.000 39.506,212.000 40.800 C 212.000 42.094,211.820 43.264,211.600 43.400 C 211.371 43.541,211.200 45.596,211.200 48.200 C 211.200 50.804,211.371 52.859,211.600 53.000 C 211.820 53.136,212.000 54.306,212.000 55.600 C 212.000 56.894,212.180 58.064,212.400 58.200 C 212.620 58.336,212.800 59.056,212.800 59.800 C 212.800 60.544,212.980 61.264,213.200 61.400 C 213.420 61.536,213.600 62.092,213.600 62.636 C 213.600 63.180,213.870 63.729,214.200 63.855 C 214.542 63.987,214.800 64.583,214.800 65.243 C 214.800 65.879,214.935 66.401,215.100 66.403 C 215.459 66.407,216.400 68.344,216.400 69.080 C 216.400 69.366,216.580 69.600,216.800 69.600 C 217.020 69.600,217.200 69.883,217.200 70.229 C 217.200 70.574,217.425 71.108,217.700 71.415 C 218.777 72.616,219.200 73.176,219.200 73.401 C 219.200 73.531,219.650 74.086,220.200 74.636 C 220.750 75.186,221.200 75.763,221.200 75.919 C 221.200 76.644,225.590 80.800,226.357 80.800 C 226.821 80.800,227.155 80.942,227.100 81.115 C 226.939 81.622,228.902 83.401,230.307 84.023 C 231.018 84.338,231.600 84.731,231.600 84.898 C 231.600 85.064,231.960 85.200,232.400 85.200 C 232.840 85.200,233.200 85.367,233.200 85.571 C 233.200 85.998,235.459 87.200,236.261 87.200 C 236.558 87.200,236.800 87.380,236.800 87.600 C 236.800 87.820,237.160 88.000,237.600 88.000 C 238.396 88.000,238.400 88.267,238.400 136.976 C 238.400 169.196,238.537 186.037,238.800 186.200 C 239.020 186.336,239.200 186.784,239.200 187.195 C 239.200 187.606,239.470 188.213,239.800 188.543 C 240.130 188.873,240.400 189.424,240.400 189.767 C 240.400 191.076,245.300 196.000,246.603 196.000 C 246.931 196.000,247.200 196.180,247.200 196.400 C 247.200 196.620,247.830 196.800,248.600 196.800 C 249.370 196.800,250.000 196.980,250.000 197.200 C 250.000 197.732,258.271 197.732,258.600 197.200 C 258.736 196.980,259.287 196.800,259.824 196.800 C 260.361 196.800,260.800 196.620,260.800 196.400 C 260.800 196.180,261.160 196.000,261.600 196.000 C 262.040 196.000,262.400 195.820,262.400 195.600 C 262.400 195.380,262.645 195.200,262.944 195.200 C 263.243 195.200,263.826 194.750,264.239 194.200 C 264.652 193.650,265.140 193.200,265.324 193.200 C 265.881 193.200,266.800 192.097,266.800 191.429 C 266.800 191.083,266.980 190.800,267.200 190.800 C 267.420 190.800,267.600 190.528,267.600 190.195 C 267.600 189.586,267.736 189.255,268.943 186.938 C 269.542 185.788,269.600 181.358,269.600 136.838 C 269.600 88.267,269.604 88.000,270.400 88.000 C 270.840 88.000,271.200 87.820,271.200 87.600 C 271.200 87.380,271.442 87.200,271.739 87.200 C 272.541 87.200,274.800 85.998,274.800 85.571 C 274.800 85.367,275.160 85.200,275.600 85.200 C 276.040 85.200,276.400 85.064,276.400 84.898 C 276.400 84.731,276.982 84.338,277.693 84.023 C 278.404 83.708,279.385 83.079,279.874 82.625 C 281.247 81.348,281.945 80.800,282.196 80.800 C 282.468 80.800,285.200 78.111,285.200 77.844 C 285.200 77.744,285.695 77.142,286.300 76.508 C 287.695 75.044,288.800 73.656,288.800 73.367 C 288.800 73.244,289.025 72.892,289.300 72.585 C 290.382 71.379,290.666 70.952,291.220 69.700 C 291.536 68.985,291.931 68.400,292.098 68.400 C 292.264 68.400,292.400 68.051,292.400 67.624 C 292.400 67.197,292.580 66.736,292.800 66.600 C 293.020 66.464,293.200 65.949,293.200 65.456 C 293.200 64.963,293.410 64.350,293.667 64.093 C 294.272 63.488,295.186 60.857,295.194 59.700 C 295.197 59.205,295.380 58.800,295.600 58.800 C 295.820 58.800,296.000 57.821,296.000 56.624 C 296.000 55.427,296.180 54.336,296.400 54.200 C 296.637 54.054,296.800 51.596,296.800 48.176 C 296.800 44.592,296.648 42.400,296.400 42.400 C 296.178 42.400,296.000 41.333,296.000 40.000 C 296.000 38.667,295.822 37.600,295.600 37.600 C 295.380 37.600,295.200 36.981,295.200 36.224 C 295.200 35.467,295.020 34.736,294.800 34.600 C 294.580 34.464,294.400 33.998,294.400 33.564 C 294.400 33.130,294.130 32.671,293.800 32.545 C 293.458 32.413,293.200 31.817,293.200 31.157 C 293.200 30.521,293.020 30.000,292.800 30.000 C 292.580 30.000,292.400 29.740,292.400 29.423 C 292.400 28.475,289.121 23.232,288.300 22.867 C 288.135 22.793,288.000 22.561,288.000 22.350 C 288.000 21.874,287.614 21.403,284.580 18.175 C 283.250 16.759,281.960 15.600,281.714 15.600 C 281.469 15.600,280.758 15.052,280.134 14.381 C 279.510 13.711,278.415 12.881,277.700 12.536 C 276.985 12.191,276.400 11.749,276.400 11.554 C 276.400 11.359,276.040 11.200,275.600 11.200 C 275.160 11.200,274.800 11.041,274.800 10.847 C 274.800 10.439,273.203 10.066,272.485 10.305 C 272.120 10.427,272.000 13.345,272.000 22.111 L 272.000 33.756 270.925 34.878 C 270.334 35.495,269.614 36.000,269.325 36.000 C 269.036 36.000,268.800 36.180,268.800 36.400 C 268.800 36.620,268.530 36.800,268.200 36.800 C 267.870 36.800,267.600 37.010,267.600 37.267 C 267.600 37.523,267.485 37.618,267.344 37.477 C 267.203 37.337,266.412 37.757,265.586 38.411 C 264.761 39.065,263.886 39.600,263.642 39.600 C 263.399 39.600,263.200 39.780,263.200 40.000 C 263.200 40.220,262.964 40.400,262.675 40.400 C 262.387 40.400,261.764 40.760,261.292 41.200 C 260.820 41.640,260.289 42.000,260.113 42.000 C 259.936 42.000,259.307 42.450,258.713 43.000 C 258.120 43.550,257.492 44.004,257.317 44.009 C 257.143 44.014,256.550 44.370,256.000 44.800 C 254.441 46.019,253.160 45.766,250.941 43.800 C 249.229 42.283,248.832 42.000,248.417 42.000 C 248.188 42.000,248.000 41.820,248.000 41.600 C 248.000 41.380,247.757 41.200,247.459 41.200 C 247.162 41.200,246.354 40.660,245.663 40.000 C 244.972 39.340,244.254 38.800,244.066 38.800 C 243.878 38.800,243.201 38.350,242.562 37.800 C 241.923 37.251,241.175 36.801,240.900 36.800 C 240.625 36.800,240.400 36.620,240.400 36.400 C 240.400 36.180,240.207 36.000,239.971 36.000 C 239.736 36.000,239.301 35.775,239.006 35.500 C 238.711 35.225,237.892 34.557,237.186 34.016 L 235.903 33.033 236.127 24.216 C 236.250 19.367,236.379 15.400,236.412 15.400 C 236.446 15.400,236.555 14.475,236.654 13.346 C 236.908 10.445,235.135 8.922,233.457 10.600 " stroke="none" fill="#b4b4cc" fill-rule="evenodd"></path><path id="path4" d="M242.800 193.557 C 242.800 193.750,243.250 194.203,243.800 194.563 C 244.350 194.924,244.800 195.157,244.800 195.081 C 244.800 195.006,244.350 194.553,243.800 194.075 C 243.250 193.597,242.800 193.363,242.800 193.557 M325.754 228.474 C 325.643 228.653,324.678 228.800,323.610 228.800 C 322.541 228.800,321.607 228.978,321.533 229.197 C 321.460 229.415,320.918 229.633,320.329 229.681 C 319.740 229.730,319.337 229.899,319.435 230.056 C 319.532 230.214,319.249 230.457,318.806 230.598 C 318.363 230.739,317.997 231.067,317.994 231.327 C 317.990 231.607,317.829 231.555,317.600 231.200 C 317.342 230.800,317.210 230.767,317.206 231.100 C 317.203 231.375,316.880 231.600,316.488 231.600 C 316.097 231.600,315.517 231.960,315.200 232.400 C 314.883 232.840,314.325 233.200,313.961 233.200 C 313.596 233.200,313.060 233.486,312.770 233.836 C 312.291 234.414,312.192 234.404,311.695 233.736 C 311.195 233.064,311.170 233.094,311.410 234.072 C 311.688 235.208,310.505 236.233,307.300 237.629 C 306.585 237.940,306.000 238.331,306.000 238.498 C 306.000 238.664,305.655 238.800,305.233 238.800 C 304.812 238.800,304.407 238.935,304.333 239.100 C 304.260 239.265,303.030 239.993,301.600 240.718 C 299.119 241.975,296.875 243.181,292.000 245.878 C 290.790 246.548,288.687 247.671,287.327 248.374 C 283.930 250.131,283.810 250.344,285.278 252.010 C 289.619 256.933,293.317 263.633,294.153 268.089 C 294.606 270.503,294.774 270.468,302.200 266.400 C 304.236 265.284,308.674 262.898,313.000 260.593 C 317.430 258.232,320.959 256.327,327.800 252.604 C 335.360 248.489,340.401 245.799,344.600 243.640 C 346.140 242.848,347.460 242.065,347.533 241.900 C 347.607 241.735,347.927 241.600,348.246 241.600 C 348.564 241.600,348.929 241.330,349.055 241.000 C 349.182 240.670,349.536 240.400,349.843 240.400 C 350.149 240.400,350.400 240.220,350.400 240.000 C 350.400 239.780,350.068 239.600,349.661 239.600 C 348.853 239.600,347.200 238.337,347.200 237.720 C 347.200 237.190,344.219 234.000,343.723 234.000 C 343.504 234.000,342.998 233.640,342.600 233.200 C 342.202 232.760,341.623 232.400,341.314 232.400 C 341.006 232.400,340.864 232.220,341.000 232.000 C 341.139 231.775,340.818 231.600,340.266 231.600 C 339.727 231.600,339.182 231.330,339.055 231.000 C 338.929 230.670,338.449 230.400,337.989 230.400 C 337.529 230.400,337.264 230.220,337.400 230.000 C 337.547 229.762,337.079 229.600,336.247 229.600 C 335.477 229.600,334.736 229.420,334.600 229.200 C 334.464 228.980,333.463 228.800,332.376 228.800 C 331.289 228.800,330.400 228.642,330.400 228.450 C 330.400 228.009,326.027 228.032,325.754 228.474 M362.800 234.387 C 362.800 234.601,362.485 234.674,362.100 234.550 C 361.509 234.360,361.494 234.392,362.000 234.756 C 362.716 235.272,364.389 235.321,365.134 234.850 C 365.559 234.580,365.532 234.460,365.001 234.256 C 364.007 233.874,362.800 233.947,362.800 234.387 M370.471 234.686 C 370.706 234.968,371.551 235.186,372.349 235.168 C 373.147 235.151,373.574 235.046,373.298 234.934 C 373.021 234.823,372.876 234.600,372.975 234.440 C 373.074 234.280,372.455 234.154,371.600 234.160 C 370.378 234.169,370.136 234.281,370.471 234.686 M358.933 235.445 C 358.933 235.760,359.337 236.000,359.867 236.000 C 360.691 236.000,361.265 235.247,360.500 235.169 C 360.335 235.153,359.915 235.083,359.567 235.015 C 359.218 234.946,358.933 235.140,358.933 235.445 M375.200 235.400 C 375.200 235.771,375.576 236.000,376.187 236.000 C 376.901 236.000,377.111 235.833,376.945 235.400 C 376.818 235.070,376.374 234.800,375.957 234.800 C 375.541 234.800,375.200 235.070,375.200 235.400 M380.200 237.200 C 380.064 237.420,380.259 237.600,380.632 237.600 C 381.006 237.600,381.542 237.915,381.823 238.299 C 382.104 238.684,382.482 238.852,382.661 238.672 C 382.841 238.492,382.541 238.002,381.994 237.582 C 380.855 236.706,380.546 236.641,380.200 237.200 M352.860 237.980 C 352.948 238.244,353.150 238.447,353.310 238.430 C 353.788 238.381,353.696 237.832,353.180 237.660 C 352.916 237.572,352.772 237.716,352.860 237.980 M383.200 238.558 C 383.200 239.271,385.701 241.259,386.098 240.862 C 386.447 240.513,386.438 240.400,386.062 240.400 C 385.788 240.400,385.114 239.950,384.564 239.400 C 383.620 238.457,383.200 238.197,383.200 238.558 M147.000 245.184 C 143.610 245.484,141.231 245.854,136.654 246.794 C 126.412 248.895,112.976 255.806,104.800 263.177 C 101.441 266.205,99.932 267.554,97.200 269.972 C 94.775 272.118,89.118 275.791,86.000 277.244 C 83.443 278.436,81.973 278.973,78.900 279.835 C 78.199 280.031,78.275 281.069,79.206 284.034 C 79.649 285.445,80.209 287.320,80.451 288.200 C 80.693 289.080,81.023 290.160,81.183 290.600 C 82.102 293.117,83.623 298.298,83.612 298.876 C 83.605 299.248,83.780 299.664,84.000 299.800 C 84.220 299.936,84.400 300.566,84.400 301.200 C 84.400 301.834,84.580 302.464,84.800 302.600 C 85.020 302.736,85.200 303.366,85.200 304.000 C 85.200 304.634,85.380 305.264,85.600 305.400 C 85.820 305.536,86.000 305.990,86.000 306.410 C 86.000 306.830,86.253 307.764,86.562 308.486 C 86.870 309.209,87.338 310.610,87.601 311.600 C 87.863 312.590,88.240 313.713,88.439 314.095 C 88.638 314.477,88.800 315.154,88.800 315.600 C 88.800 316.046,88.962 316.723,89.161 317.105 C 89.360 317.487,89.737 318.610,89.999 319.600 C 90.262 320.590,90.730 321.991,91.038 322.714 C 91.347 323.436,91.600 324.370,91.600 324.790 C 91.600 325.210,91.780 325.664,92.000 325.800 C 92.220 325.936,92.400 326.566,92.400 327.200 C 92.400 327.834,92.580 328.464,92.800 328.600 C 93.020 328.736,93.200 329.366,93.200 330.000 C 93.200 330.634,93.380 331.264,93.600 331.400 C 93.820 331.536,94.000 332.089,94.000 332.629 C 94.000 333.169,94.173 333.923,94.384 334.305 C 94.595 334.687,95.241 336.620,95.819 338.600 C 96.398 340.580,97.035 342.513,97.236 342.895 C 97.436 343.277,97.600 344.031,97.600 344.571 C 97.600 345.111,97.780 345.664,98.000 345.800 C 98.220 345.936,98.400 346.459,98.400 346.961 C 98.400 348.599,100.094 350.179,100.800 349.199 C 101.117 348.760,101.599 348.400,101.870 348.400 C 102.142 348.400,102.777 347.995,103.282 347.500 C 103.787 347.005,104.740 346.330,105.400 346.001 C 106.060 345.671,106.690 345.309,106.800 345.197 C 106.910 345.084,107.675 344.638,108.500 344.205 C 109.325 343.772,110.000 343.279,110.000 343.109 C 110.000 342.939,110.270 342.800,110.600 342.800 C 110.930 342.800,111.200 342.620,111.200 342.400 C 111.200 342.180,111.560 342.000,112.000 342.000 C 112.440 342.000,112.800 341.853,112.800 341.674 C 112.800 341.495,113.430 341.048,114.200 340.681 C 114.970 340.313,115.600 339.830,115.600 339.606 C 115.600 339.383,115.836 339.200,116.125 339.200 C 116.413 339.200,117.012 338.862,117.455 338.449 C 117.899 338.036,118.631 337.581,119.083 337.437 C 119.808 337.207,120.405 336.791,122.283 335.207 C 122.549 334.983,122.999 334.800,123.283 334.800 C 123.567 334.799,124.318 334.353,124.952 333.808 C 125.586 333.263,126.261 332.914,126.452 333.032 C 126.643 333.150,126.800 333.057,126.800 332.824 C 126.800 332.591,127.070 332.400,127.400 332.400 C 127.730 332.400,128.000 332.220,128.000 332.000 C 128.000 331.780,128.245 331.600,128.544 331.600 C 128.843 331.600,129.426 331.150,129.839 330.600 C 130.252 330.050,130.862 329.596,131.195 329.591 C 131.528 329.586,132.250 329.230,132.800 328.800 C 133.350 328.370,134.025 328.014,134.300 328.009 C 134.575 328.004,134.800 327.730,134.800 327.400 C 134.800 327.027,135.178 326.800,135.800 326.800 C 136.350 326.800,136.800 326.620,136.800 326.400 C 136.800 326.180,137.239 326.000,137.776 326.000 C 138.313 326.000,138.852 325.840,138.973 325.644 C 139.508 324.779,151.200 323.948,151.200 324.776 C 151.200 325.009,151.335 325.179,151.500 325.153 C 152.836 324.942,156.003 325.271,155.800 325.600 C 155.645 325.851,156.529 326.000,158.176 326.000 C 159.659 326.000,160.800 326.174,160.800 326.400 C 160.800 326.620,161.803 326.800,163.029 326.800 C 164.476 326.800,165.467 327.010,165.857 327.400 C 166.226 327.769,167.207 328.000,168.405 328.000 C 169.476 328.000,170.464 328.180,170.600 328.400 C 170.736 328.620,171.816 328.800,173.000 328.800 C 174.184 328.800,175.264 328.980,175.400 329.200 C 175.536 329.420,176.627 329.600,177.824 329.600 C 179.021 329.600,180.000 329.780,180.000 330.000 C 180.000 330.220,180.975 330.400,182.167 330.400 C 183.358 330.400,184.393 330.576,184.467 330.792 C 184.540 331.008,185.770 331.290,187.200 331.421 C 188.630 331.551,189.860 331.824,189.933 332.029 C 190.007 332.233,191.031 332.400,192.210 332.400 C 193.388 332.400,194.464 332.580,194.600 332.800 C 194.736 333.020,195.737 333.200,196.824 333.200 C 197.911 333.200,198.800 333.350,198.800 333.534 C 198.800 333.718,199.925 333.909,201.300 333.957 C 202.675 334.006,203.971 334.216,204.180 334.423 C 204.389 334.630,205.437 334.800,206.509 334.800 C 207.600 334.800,208.692 335.035,208.991 335.334 C 209.284 335.627,210.381 335.900,211.428 335.939 C 212.475 335.979,213.527 336.170,213.766 336.365 C 214.196 336.715,216.274 337.021,221.100 337.448 C 222.475 337.569,223.600 337.833,223.600 338.034 C 223.600 338.237,225.923 338.400,228.800 338.400 C 232.000 338.400,234.000 338.554,234.000 338.800 C 234.000 339.020,234.360 339.200,234.800 339.200 C 235.240 339.200,235.600 339.020,235.600 338.800 C 235.600 338.550,238.040 338.400,242.120 338.400 C 245.706 338.400,248.811 338.230,249.020 338.023 C 249.229 337.815,250.345 337.603,251.500 337.551 C 252.655 337.499,253.600 337.309,253.600 337.129 C 253.600 336.948,254.410 336.800,255.400 336.800 C 256.390 336.800,257.200 336.630,257.200 336.423 C 257.200 336.216,257.965 335.991,258.900 335.923 C 259.998 335.844,260.565 335.623,260.500 335.300 C 260.435 334.977,260.889 334.800,261.776 334.800 C 262.533 334.800,263.264 334.620,263.400 334.400 C 263.536 334.180,264.177 334.000,264.824 334.000 C 265.471 334.000,266.000 333.820,266.000 333.600 C 266.000 333.380,266.349 333.200,266.776 333.200 C 267.203 333.200,267.664 333.020,267.800 332.800 C 267.936 332.580,268.487 332.400,269.024 332.400 C 269.561 332.400,270.000 332.223,270.000 332.008 C 270.000 331.792,270.450 331.502,271.000 331.364 C 271.550 331.226,272.000 330.953,272.000 330.757 C 272.000 330.560,272.283 330.400,272.628 330.400 C 272.973 330.400,274.008 329.890,274.928 329.267 C 275.848 328.644,276.915 328.020,277.300 327.880 C 277.685 327.740,278.000 327.439,278.000 327.213 C 278.000 326.986,278.270 326.800,278.600 326.800 C 278.930 326.800,279.200 326.642,279.200 326.449 C 279.200 326.255,279.740 325.873,280.400 325.600 C 281.060 325.327,281.600 324.945,281.600 324.751 C 281.600 324.558,281.870 324.400,282.200 324.400 C 282.530 324.400,282.800 324.220,282.800 324.000 C 282.800 323.780,283.045 323.600,283.344 323.600 C 283.643 323.600,284.226 323.150,284.639 322.600 C 285.062 322.036,285.795 321.600,286.319 321.600 C 286.836 321.600,287.138 321.423,287.000 321.200 C 286.864 320.980,287.033 320.800,287.376 320.800 C 287.719 320.800,288.000 320.620,288.000 320.400 C 288.000 320.180,288.371 320.000,288.824 320.000 C 289.277 320.000,289.536 319.820,289.400 319.600 C 289.264 319.380,289.343 319.200,289.576 319.200 C 289.809 319.200,290.367 318.833,290.815 318.385 C 291.263 317.937,291.830 317.695,292.076 317.847 C 292.348 318.015,292.412 317.943,292.238 317.662 C 292.069 317.388,292.207 317.200,292.576 317.200 C 292.919 317.200,293.200 317.065,293.200 316.899 C 293.200 316.734,294.010 316.169,295.000 315.644 C 295.990 315.119,296.800 314.444,296.800 314.144 C 296.800 313.844,297.209 313.600,297.712 313.600 C 298.213 313.600,298.883 313.240,299.200 312.800 C 299.517 312.360,299.964 312.000,300.192 312.000 C 300.421 312.000,301.056 311.595,301.604 311.100 C 302.152 310.605,303.095 309.945,303.700 309.632 C 304.305 309.320,304.800 308.915,304.800 308.732 C 304.800 308.550,305.062 308.400,305.382 308.400 C 305.702 308.400,306.405 307.995,306.944 307.500 C 308.543 306.032,309.142 305.600,309.583 305.600 C 309.812 305.600,310.000 305.464,310.000 305.298 C 310.000 305.131,310.585 304.737,311.300 304.420 C 312.015 304.104,313.048 303.430,313.596 302.923 C 314.144 302.415,314.779 302.000,315.008 302.000 C 315.236 302.000,315.683 301.640,316.000 301.200 C 316.317 300.760,316.831 300.400,317.141 300.400 C 317.452 300.400,317.997 300.066,318.353 299.657 C 318.709 299.249,319.408 298.786,319.906 298.628 C 320.404 298.471,320.708 298.175,320.582 297.971 C 320.456 297.767,320.633 297.600,320.976 297.600 C 321.319 297.600,321.600 297.420,321.600 297.200 C 321.600 296.980,321.971 296.800,322.424 296.800 C 322.877 296.800,323.160 296.658,323.052 296.485 C 322.945 296.312,323.340 295.955,323.929 295.693 C 324.518 295.431,325.450 294.807,326.000 294.308 C 326.550 293.809,327.540 293.131,328.200 292.803 C 328.860 292.474,329.673 291.911,330.006 291.550 C 330.339 291.190,330.969 290.818,331.406 290.724 C 331.843 290.630,332.155 290.338,332.100 290.076 C 332.045 289.814,332.270 289.600,332.600 289.600 C 332.930 289.600,333.200 289.420,333.200 289.200 C 333.200 288.980,333.383 288.800,333.606 288.800 C 334.200 288.800,338.400 285.947,338.400 285.543 C 338.400 285.355,338.760 285.200,339.200 285.200 C 339.640 285.200,340.000 285.020,340.000 284.800 C 340.000 284.580,340.230 284.400,340.512 284.400 C 340.793 284.400,341.283 284.040,341.600 283.600 C 341.917 283.160,342.497 282.800,342.888 282.800 C 343.280 282.800,343.600 282.620,343.600 282.400 C 343.600 282.180,343.870 282.000,344.200 282.000 C 344.530 282.000,344.800 281.730,344.800 281.400 C 344.800 281.070,345.120 280.800,345.512 280.800 C 345.903 280.800,346.483 280.440,346.800 280.000 C 347.117 279.560,347.682 279.200,348.055 279.200 C 348.428 279.200,348.793 279.065,348.867 278.900 C 349.082 278.414,351.908 276.400,352.373 276.400 C 352.608 276.400,352.800 276.250,352.800 276.068 C 352.800 275.885,353.295 275.480,353.900 275.168 C 354.505 274.855,355.349 274.285,355.775 273.900 C 356.202 273.515,356.762 273.200,357.019 273.200 C 357.277 273.200,357.826 272.750,358.239 272.200 C 358.652 271.650,359.307 271.200,359.695 271.200 C 360.083 271.200,360.400 271.050,360.400 270.868 C 360.400 270.685,360.895 270.287,361.500 269.984 C 362.105 269.681,362.960 269.052,363.400 268.586 C 363.840 268.121,364.785 267.484,365.500 267.172 C 366.215 266.860,366.800 266.469,366.800 266.302 C 366.800 266.136,367.042 266.000,367.339 266.000 C 367.635 266.000,368.526 265.370,369.319 264.600 C 370.112 263.830,371.039 263.200,371.380 263.200 C 371.721 263.200,372.000 263.020,372.000 262.800 C 372.000 262.580,372.188 262.400,372.417 262.400 C 372.646 262.400,373.220 262.040,373.692 261.600 C 374.164 261.160,374.787 260.800,375.075 260.800 C 375.364 260.800,375.600 260.530,375.600 260.200 C 375.600 259.867,375.956 259.600,376.400 259.600 C 376.840 259.600,377.200 259.448,377.200 259.263 C 377.200 259.077,378.010 258.509,379.000 258.000 C 379.990 257.491,380.800 256.866,380.800 256.612 C 380.800 256.357,381.430 255.902,382.200 255.600 C 382.970 255.298,383.600 254.904,383.600 254.725 C 383.600 254.546,383.864 254.400,384.187 254.400 C 384.545 254.400,384.685 254.165,384.545 253.800 C 384.418 253.470,384.010 253.200,383.637 253.200 C 383.265 253.200,382.789 253.042,382.580 252.849 C 380.960 251.353,372.795 250.128,368.568 250.746 C 363.666 251.463,361.947 252.172,351.000 257.996 C 349.240 258.932,346.090 260.604,344.000 261.710 C 341.910 262.817,340.020 263.850,339.800 264.007 C 339.580 264.163,337.420 265.333,335.000 266.607 C 330.800 268.817,329.335 269.610,325.500 271.747 C 323.934 272.620,321.695 273.810,312.400 278.709 C 310.530 279.694,308.820 280.634,308.600 280.798 C 308.380 280.961,306.130 282.185,303.600 283.518 C 301.070 284.851,298.010 286.491,296.800 287.163 C 294.248 288.581,294.000 288.632,294.000 287.735 C 294.000 287.369,293.703 286.127,293.340 284.975 L 292.679 282.880 290.640 282.923 C 289.518 282.947,284.100 282.752,278.600 282.490 C 252.489 281.247,247.944 281.119,237.800 281.340 C 231.860 281.470,225.863 281.768,224.474 282.001 C 218.872 282.943,215.006 282.738,213.631 281.425 C 211.279 279.180,212.293 274.472,215.266 273.831 C 225.469 271.629,240.271 271.275,267.200 272.587 C 273.910 272.914,280.705 273.186,282.300 273.191 L 285.200 273.200 285.200 271.931 C 285.200 269.997,279.723 265.290,275.200 263.339 C 274.650 263.101,273.750 262.715,273.200 262.480 C 272.650 262.245,271.570 261.874,270.800 261.654 C 270.030 261.435,268.680 261.031,267.800 260.757 C 266.618 260.389,258.522 260.190,236.800 259.997 C 220.630 259.853,206.950 259.604,206.400 259.443 C 205.850 259.282,204.590 258.970,203.600 258.750 C 201.053 258.183,198.734 257.561,197.800 257.195 C 197.360 257.022,196.370 256.651,195.600 256.371 C 194.830 256.091,191.980 254.813,189.267 253.531 C 186.554 252.249,184.257 251.200,184.163 251.200 C 184.069 251.200,183.228 250.855,182.296 250.433 C 173.213 246.327,158.608 244.155,147.000 245.184 M389.600 245.200 C 389.600 245.420,389.881 245.600,390.224 245.600 C 390.567 245.600,390.736 245.780,390.600 246.000 C 390.464 246.220,390.633 246.400,390.976 246.400 C 391.795 246.400,391.766 246.015,390.900 245.357 C 390.056 244.716,389.600 244.661,389.600 245.200 M391.900 247.429 C 391.735 247.596,391.600 248.050,391.600 248.437 C 391.600 248.825,391.285 249.204,390.900 249.280 C 390.515 249.356,390.382 249.534,390.604 249.674 C 391.278 250.099,392.475 248.936,392.332 247.994 C 392.259 247.516,392.065 247.261,391.900 247.429 M388.158 250.924 C 386.653 252.489,386.639 253.039,388.140 251.622 C 388.943 250.863,389.600 250.188,389.600 250.122 C 389.600 249.764,388.898 250.154,388.158 250.924 " stroke="none" fill="#fad9b0" fill-rule="evenodd"></path></g></svg>