<svg id="svg" version="1.1" xmlns="http://www.w3.org/2000/svg" xmlns:xlink="http://www.w3.org/1999/xlink" width="400" height="400" viewBox="0, 0, 400,400"><g id="svgg"><path id="path0" d="M58.499 104.330 C 58.100 104.584,58.019 121.707,58.099 188.624 L 58.200 272.600 200.000 272.600 L 341.800 272.600 341.901 188.624 C 341.981 121.707,341.900 104.584,341.501 104.330 C 341.225 104.155,277.550 104.012,200.000 104.012 C 122.450 104.012,58.775 104.155,58.499 104.330 M202.940 112.604 C 203.633 112.936,205.280 114.013,206.600 114.997 C 207.920 115.981,209.360 117.047,209.800 117.366 C 210.240 117.685,212.845 119.583,215.588 121.583 C 218.331 123.583,220.941 125.483,221.388 125.804 C 224.435 127.997,233.884 134.884,236.200 136.601 C 237.740 137.742,239.842 139.243,240.870 139.936 C 241.899 140.630,242.979 141.429,243.270 141.712 C 243.562 141.995,245.306 143.301,247.147 144.613 C 254.970 150.192,257.276 151.864,258.750 153.030 C 259.328 153.487,260.677 154.477,261.748 155.230 C 262.819 155.984,264.196 156.960,264.807 157.400 C 265.418 157.840,267.421 159.271,269.259 160.581 C 271.096 161.890,272.690 163.071,272.800 163.205 C 272.910 163.339,274.260 164.331,275.800 165.411 C 277.340 166.490,278.690 167.484,278.800 167.619 C 278.910 167.755,280.529 168.931,282.398 170.233 C 288.341 174.373,289.589 176.110,288.353 178.526 C 287.220 180.742,287.005 180.781,276.143 180.791 C 267.346 180.799,266.055 180.879,265.843 181.433 C 265.709 181.781,265.600 200.307,265.600 222.602 L 265.600 263.138 264.369 264.369 L 263.138 265.600 240.428 265.600 L 217.717 265.600 216.675 264.634 C 215.228 263.293,215.236 263.377,215.092 248.400 C 214.996 238.354,214.831 234.700,214.432 233.800 C 214.140 233.140,213.703 232.150,213.461 231.600 C 209.410 222.375,195.124 220.649,188.631 228.600 C 185.275 232.710,185.213 233.061,185.206 248.092 C 185.199 262.292,185.022 263.638,182.980 264.976 C 181.540 265.920,137.660 265.920,136.220 264.976 C 134.600 263.915,134.605 264.043,134.400 222.000 L 134.200 181.000 124.661 180.800 L 115.123 180.600 114.163 179.400 C 111.996 176.689,113.167 174.716,119.602 170.233 C 121.471 168.931,123.090 167.750,123.200 167.609 C 123.310 167.467,124.660 166.465,126.200 165.382 C 127.740 164.299,129.180 163.264,129.400 163.082 C 129.980 162.601,138.062 156.764,141.800 154.125 C 143.560 152.882,145.090 151.755,145.200 151.619 C 145.310 151.484,146.660 150.490,148.200 149.411 C 149.740 148.331,151.090 147.339,151.200 147.205 C 151.310 147.071,152.930 145.896,154.800 144.594 C 156.670 143.292,158.444 141.989,158.743 141.699 C 159.041 141.409,160.391 140.428,161.743 139.518 C 163.094 138.608,165.190 137.118,166.400 136.207 C 167.610 135.297,169.500 133.891,170.600 133.085 C 171.700 132.278,172.780 131.474,173.000 131.298 C 173.220 131.122,174.930 129.912,176.800 128.608 C 178.670 127.305,180.290 126.134,180.400 126.006 C 180.510 125.878,181.590 125.072,182.800 124.215 C 185.006 122.653,187.277 120.988,194.460 115.664 C 199.669 111.804,200.582 111.475,202.940 112.604 " stroke="none" fill="#d3dbe3" fill-rule="evenodd"></path><path id="path1" d="M315.745 18.600 C 315.579 19.031,314.906 19.200,313.357 19.200 C 312.171 19.200,311.200 19.380,311.200 19.600 C 311.200 19.820,310.750 20.000,310.200 20.000 C 309.650 20.000,309.200 20.180,309.200 20.400 C 309.200 20.620,308.840 20.800,308.400 20.800 C 307.960 20.800,307.600 20.980,307.600 21.200 C 307.600 21.420,307.253 21.600,306.829 21.600 C 306.405 21.600,305.704 22.050,305.271 22.600 C 304.839 23.150,304.279 23.600,304.027 23.600 C 303.381 23.600,300.400 26.625,300.400 27.280 C 300.400 27.579,300.040 28.083,299.600 28.400 C 299.160 28.717,298.800 29.278,298.800 29.646 C 298.800 30.013,298.530 30.418,298.200 30.545 C 297.870 30.671,297.600 31.141,297.600 31.587 C 297.600 32.034,297.420 32.400,297.200 32.400 C 296.980 32.400,296.800 32.749,296.800 33.176 C 296.800 33.603,296.620 34.064,296.400 34.200 C 296.180 34.336,296.000 35.236,296.000 36.200 C 296.000 37.164,295.820 38.064,295.600 38.200 C 295.377 38.338,295.200 40.204,295.200 42.424 C 295.200 44.808,295.360 46.400,295.600 46.400 C 295.820 46.400,296.000 47.210,296.000 48.200 C 296.000 49.190,296.180 50.000,296.400 50.000 C 296.620 50.000,296.800 50.456,296.800 51.014 C 296.800 51.874,297.660 53.703,298.391 54.400 C 298.507 54.510,298.871 55.140,299.201 55.800 C 299.809 57.017,301.359 58.800,301.810 58.800 C 302.131 58.800,303.200 59.869,303.200 60.190 C 303.200 60.781,305.237 62.400,305.982 62.400 C 306.432 62.400,306.801 62.535,306.803 62.700 C 306.807 63.048,308.735 64.000,309.437 64.000 C 309.700 64.000,310.018 64.270,310.145 64.600 C 310.279 64.951,310.879 65.200,311.587 65.200 C 312.254 65.200,312.800 65.389,312.800 65.619 C 312.800 66.742,328.342 65.573,328.726 64.421 C 328.803 64.190,329.212 64.000,329.633 64.000 C 330.055 64.000,330.400 63.820,330.400 63.600 C 330.400 63.380,330.726 63.200,331.125 63.200 C 331.523 63.200,332.236 62.840,332.708 62.400 C 333.180 61.960,333.729 61.600,333.927 61.600 C 334.126 61.600,334.626 61.150,335.039 60.600 C 335.452 60.050,335.940 59.600,336.124 59.600 C 336.609 59.600,337.315 58.770,337.997 57.400 C 338.326 56.740,338.879 55.930,339.226 55.600 C 339.781 55.073,340.466 53.918,341.657 51.505 C 341.846 51.123,342.000 50.268,342.000 49.605 C 342.000 48.942,342.180 48.400,342.400 48.400 C 342.649 48.400,342.800 46.067,342.800 42.200 C 342.800 38.333,342.649 36.000,342.400 36.000 C 342.180 36.000,342.000 35.370,342.000 34.600 C 342.000 33.830,341.820 33.200,341.600 33.200 C 341.380 33.200,341.200 32.840,341.200 32.400 C 341.200 31.960,341.020 31.600,340.800 31.600 C 340.580 31.600,340.400 31.234,340.400 30.787 C 340.400 30.341,340.130 29.871,339.800 29.745 C 339.470 29.618,339.200 29.213,339.200 28.846 C 339.200 28.478,338.840 27.917,338.400 27.600 C 337.960 27.283,337.600 26.875,337.600 26.694 C 337.600 26.318,335.760 24.400,335.400 24.400 C 335.270 24.400,334.730 23.995,334.201 23.500 C 332.596 22.000,332.053 21.600,331.617 21.600 C 331.388 21.600,331.200 21.420,331.200 21.200 C 331.200 20.980,330.840 20.800,330.400 20.800 C 329.960 20.800,329.600 20.620,329.600 20.400 C 329.600 20.180,328.970 20.000,328.200 20.000 C 327.430 20.000,326.800 19.820,326.800 19.600 C 326.800 19.380,325.894 19.200,324.787 19.200 C 323.368 19.200,322.707 19.023,322.545 18.600 C 322.367 18.137,321.593 18.000,319.145 18.000 C 316.696 18.000,315.923 18.137,315.745 18.600 M202.400 26.721 C 199.797 28.488,199.600 28.908,199.600 32.682 C 199.601 36.538,200.495 38.400,202.347 38.400 C 202.816 38.400,203.200 38.580,203.200 38.800 C 203.200 39.026,204.333 39.200,205.800 39.200 C 207.267 39.200,208.400 39.026,208.400 38.800 C 208.400 38.580,208.760 38.400,209.200 38.400 C 209.640 38.400,210.000 38.220,210.000 38.000 C 210.000 37.780,210.240 37.600,210.532 37.600 C 211.549 37.600,212.147 35.653,212.126 32.414 C 212.107 29.497,211.607 28.000,210.649 28.000 C 210.535 28.000,209.956 27.550,209.362 27.000 C 208.017 25.754,204.058 25.595,202.400 26.721 M321.805 27.235 C 340.468 30.685,337.469 58.411,318.526 57.544 C 300.697 56.728,298.865 30.604,316.400 27.234 C 318.928 26.748,319.170 26.748,321.805 27.235 M66.200 30.000 C 66.064 30.220,65.353 30.400,64.619 30.400 C 63.803 30.400,63.196 30.633,63.055 31.000 C 62.929 31.330,62.369 31.600,61.813 31.600 C 61.256 31.600,60.800 31.780,60.800 32.000 C 60.800 32.220,60.596 32.400,60.347 32.400 C 60.098 32.400,59.603 32.727,59.247 33.128 C 58.891 33.528,58.285 33.972,57.900 34.115 C 57.515 34.258,57.200 34.611,57.200 34.899 C 57.200 35.188,56.570 36.018,55.800 36.744 C 54.821 37.668,54.400 38.416,54.400 39.232 C 54.400 39.875,54.220 40.400,54.000 40.400 C 53.780 40.400,53.600 41.210,53.600 42.200 C 53.600 43.190,53.420 44.000,53.200 44.000 C 52.980 44.000,52.800 44.979,52.800 46.176 C 52.800 47.373,52.980 48.464,53.200 48.600 C 53.420 48.736,53.600 49.647,53.600 50.624 C 53.600 51.601,53.780 52.400,54.000 52.400 C 54.220 52.400,54.400 52.768,54.400 53.218 C 54.400 53.668,54.850 54.486,55.400 55.036 C 55.950 55.586,56.400 56.229,56.400 56.464 C 56.400 57.143,59.282 59.600,60.078 59.600 C 60.475 59.600,60.800 59.870,60.800 60.200 C 60.800 60.533,61.156 60.800,61.600 60.800 C 62.040 60.800,62.400 60.980,62.400 61.200 C 62.400 61.420,63.030 61.600,63.800 61.600 C 64.570 61.600,65.200 61.780,65.200 62.000 C 65.200 62.241,66.867 62.400,69.400 62.400 C 71.933 62.400,73.600 62.241,73.600 62.000 C 73.600 61.780,74.035 61.600,74.568 61.600 C 75.590 61.600,77.993 60.409,77.997 59.900 C 77.999 59.735,78.198 59.600,78.440 59.600 C 78.681 59.600,79.383 59.060,80.000 58.400 C 80.617 57.740,81.319 57.200,81.560 57.200 C 81.802 57.200,82.000 57.012,82.000 56.783 C 82.000 56.554,82.360 55.980,82.800 55.508 C 83.240 55.036,83.600 54.413,83.600 54.125 C 83.600 53.836,83.780 53.600,84.000 53.600 C 84.220 53.600,84.400 52.970,84.400 52.200 C 84.400 51.430,84.580 50.800,84.800 50.800 C 85.044 50.800,85.200 48.933,85.200 46.000 C 85.200 43.067,85.044 41.200,84.800 41.200 C 84.580 41.200,84.400 40.750,84.400 40.200 C 84.400 39.650,84.220 39.200,84.000 39.200 C 83.780 39.200,83.600 38.840,83.600 38.400 C 83.600 37.960,83.420 37.600,83.200 37.600 C 82.980 37.600,82.800 37.317,82.800 36.971 C 82.800 36.167,79.016 32.400,78.209 32.400 C 77.874 32.400,77.600 32.220,77.600 32.000 C 77.600 31.780,77.169 31.600,76.643 31.600 C 76.116 31.600,75.582 31.330,75.455 31.000 C 75.303 30.604,74.677 30.400,73.613 30.400 C 72.726 30.400,72.000 30.220,72.000 30.000 C 72.000 29.772,70.808 29.600,69.224 29.600 C 67.697 29.600,66.336 29.780,66.200 30.000 M72.800 39.420 C 77.529 41.844,78.262 48.547,74.168 51.922 C 68.920 56.248,61.750 52.808,61.824 46.000 C 61.885 40.324,67.729 36.820,72.800 39.420 M115.600 41.600 C 115.600 41.820,115.234 42.000,114.786 42.000 C 113.598 42.000,112.000 43.174,112.000 44.046 C 112.000 44.461,111.820 44.800,111.600 44.800 C 111.365 44.800,111.200 46.200,111.200 48.200 C 111.200 50.200,111.365 51.600,111.600 51.600 C 111.820 51.600,112.000 51.788,112.000 52.018 C 112.000 52.248,112.442 52.878,112.982 53.418 C 115.029 55.466,122.400 54.456,122.400 52.128 C 122.400 51.838,122.670 51.600,123.000 51.600 C 123.374 51.600,123.600 51.222,123.600 50.595 C 123.600 50.042,123.816 49.243,124.081 48.819 C 124.442 48.241,124.450 47.820,124.112 47.125 C 123.865 46.616,123.555 45.705,123.423 45.100 C 123.292 44.495,123.008 44.000,122.792 44.000 C 122.577 44.000,122.400 43.795,122.400 43.544 C 122.400 42.878,121.135 42.027,120.124 42.013 C 119.642 42.006,119.136 41.820,119.000 41.600 C 118.864 41.380,118.043 41.200,117.176 41.200 C 116.309 41.200,115.600 41.380,115.600 41.600 M268.600 49.600 C 268.464 49.820,268.069 50.000,267.723 50.000 C 266.786 50.000,265.201 52.047,265.200 53.257 C 265.200 53.839,264.930 54.418,264.600 54.545 C 263.836 54.838,263.830 56.022,264.587 57.024 C 264.910 57.451,265.180 58.205,265.187 58.700 C 265.194 59.195,265.380 59.600,265.600 59.600 C 265.820 59.600,266.000 59.793,266.000 60.029 C 266.000 60.532,266.685 61.203,267.910 61.900 C 268.957 62.495,274.000 62.578,274.000 62.000 C 274.000 61.780,274.283 61.600,274.629 61.600 C 275.252 61.600,276.400 60.693,276.400 60.200 C 276.400 60.059,276.670 59.673,277.000 59.343 C 277.425 58.918,277.600 57.883,277.600 55.800 C 277.600 53.717,277.425 52.682,277.000 52.257 C 276.670 51.927,276.400 51.541,276.400 51.400 C 276.400 50.907,275.252 50.000,274.629 50.000 C 274.283 50.000,274.000 49.820,274.000 49.600 C 274.000 49.375,272.875 49.200,271.424 49.200 C 270.007 49.200,268.736 49.380,268.600 49.600 M45.857 72.600 C 45.520 72.937,44.543 73.200,43.629 73.200 C 42.733 73.200,42.000 73.380,42.000 73.600 C 42.000 73.820,41.640 74.000,41.200 74.000 C 40.760 74.000,40.400 74.180,40.400 74.400 C 40.400 74.620,39.950 74.800,39.400 74.800 C 38.850 74.800,38.400 74.980,38.400 75.200 C 38.400 75.420,38.117 75.600,37.771 75.600 C 37.053 75.600,36.000 76.534,36.000 77.171 C 36.000 77.407,35.658 77.600,35.240 77.600 C 34.255 77.600,31.600 80.255,31.600 81.240 C 31.600 81.658,31.407 82.000,31.171 82.000 C 30.534 82.000,29.600 83.053,29.600 83.771 C 29.600 84.117,29.420 84.400,29.200 84.400 C 28.980 84.400,28.800 84.749,28.800 85.176 C 28.800 85.603,28.620 86.064,28.400 86.200 C 28.180 86.336,28.000 86.797,28.000 87.224 C 28.000 87.651,27.822 88.000,27.605 88.000 C 27.387 88.000,27.094 88.724,26.952 89.609 C 26.811 90.494,26.539 91.314,26.347 91.432 C 25.890 91.715,25.890 308.285,26.347 308.568 C 26.539 308.686,26.811 309.506,26.952 310.391 C 27.094 311.276,27.387 312.000,27.605 312.000 C 27.822 312.000,28.000 312.349,28.000 312.776 C 28.000 313.203,28.180 313.664,28.400 313.800 C 28.620 313.936,28.800 314.397,28.800 314.824 C 28.800 315.251,28.980 315.600,29.200 315.600 C 29.420 315.600,29.600 315.883,29.600 316.229 C 29.600 316.947,30.534 318.000,31.171 318.000 C 31.407 318.000,31.600 318.342,31.600 318.760 C 31.600 319.745,34.255 322.400,35.240 322.400 C 35.658 322.400,36.000 322.593,36.000 322.829 C 36.000 323.466,37.053 324.400,37.771 324.400 C 38.117 324.400,38.400 324.580,38.400 324.800 C 38.400 325.020,38.850 325.200,39.400 325.200 C 39.950 325.200,40.400 325.380,40.400 325.600 C 40.400 325.820,40.760 326.000,41.200 326.000 C 41.640 326.000,42.000 326.180,42.000 326.400 C 42.000 326.620,42.733 326.800,43.629 326.800 C 44.543 326.800,45.520 327.063,45.857 327.400 C 46.385 327.928,53.476 328.000,104.829 328.000 L 163.200 328.000 163.200 329.200 C 163.200 329.860,163.064 330.400,162.898 330.400 C 162.731 330.400,162.341 330.985,162.030 331.700 C 161.719 332.415,161.355 333.090,161.222 333.200 C 161.088 333.310,160.384 334.165,159.656 335.100 C 158.928 336.035,158.144 336.800,157.913 336.800 C 157.683 336.800,157.203 337.124,156.847 337.520 C 156.491 337.917,155.533 338.551,154.717 338.931 C 153.901 339.311,153.126 339.797,152.993 340.011 C 152.861 340.225,152.313 340.400,151.776 340.400 C 151.239 340.400,150.800 340.580,150.800 340.800 C 150.800 341.039,149.267 341.200,147.000 341.200 C 144.733 341.200,143.200 341.361,143.200 341.600 C 143.200 341.820,142.401 342.000,141.424 342.000 C 140.447 342.000,139.536 342.180,139.400 342.400 C 139.264 342.620,138.816 342.800,138.405 342.800 C 137.994 342.800,137.419 343.025,137.129 343.300 C 136.838 343.575,136.061 344.070,135.403 344.400 C 134.023 345.092,131.600 347.377,131.600 347.987 C 131.600 348.214,131.412 348.400,131.182 348.400 C 130.551 348.400,128.800 350.280,128.800 350.958 C 128.800 351.285,128.620 351.664,128.400 351.800 C 128.180 351.936,128.000 352.397,128.000 352.824 C 128.000 353.251,127.857 353.600,127.682 353.600 C 126.483 353.600,125.226 365.875,126.355 366.572 C 126.550 366.693,126.828 367.423,126.973 368.196 C 127.118 368.968,127.408 369.600,127.618 369.600 C 127.828 369.600,128.000 369.960,128.000 370.400 C 128.000 370.840,128.180 371.200,128.400 371.200 C 128.620 371.200,128.800 371.560,128.800 372.000 C 128.800 372.440,128.980 372.800,129.200 372.800 C 129.420 372.800,129.600 372.993,129.600 373.229 C 129.600 373.668,130.575 374.800,130.953 374.800 C 131.227 374.800,133.200 376.773,133.200 377.047 C 133.200 377.425,134.332 378.400,134.771 378.400 C 135.007 378.400,135.200 378.580,135.200 378.800 C 135.200 379.020,135.560 379.200,136.000 379.200 C 136.440 379.200,136.800 379.380,136.800 379.600 C 136.800 379.820,137.340 380.000,138.000 380.000 C 138.660 380.000,139.200 380.180,139.200 380.400 C 139.200 380.620,139.991 380.800,140.957 380.800 C 142.150 380.800,142.788 380.993,142.945 381.400 C 143.295 382.312,256.705 382.312,257.055 381.400 C 257.212 380.993,257.850 380.800,259.043 380.800 C 260.009 380.800,260.800 380.620,260.800 380.400 C 260.800 380.180,261.340 380.000,262.000 380.000 C 262.660 380.000,263.200 379.864,263.200 379.698 C 263.200 379.531,263.785 379.137,264.500 378.822 C 265.771 378.262,266.800 377.467,266.800 377.047 C 266.800 376.773,268.773 374.800,269.047 374.800 C 269.425 374.800,270.400 373.668,270.400 373.229 C 270.400 372.993,270.580 372.800,270.800 372.800 C 271.020 372.800,271.200 372.440,271.200 372.000 C 271.200 371.560,271.380 371.200,271.600 371.200 C 271.820 371.200,272.000 370.855,272.000 370.433 C 272.000 370.012,272.190 369.603,272.421 369.526 C 274.217 368.928,274.217 354.272,272.421 353.674 C 272.190 353.597,272.000 353.199,272.000 352.790 C 272.000 352.382,271.820 351.936,271.600 351.800 C 271.380 351.664,271.200 351.285,271.200 350.958 C 271.200 350.280,269.449 348.400,268.818 348.400 C 268.588 348.400,268.400 348.214,268.400 347.987 C 268.400 347.377,265.977 345.092,264.597 344.400 C 263.939 344.070,263.162 343.575,262.871 343.300 C 262.581 343.025,262.006 342.800,261.595 342.800 C 261.184 342.800,260.736 342.620,260.600 342.400 C 260.464 342.180,259.553 342.000,258.576 342.000 C 257.599 342.000,256.800 341.820,256.800 341.600 C 256.800 341.361,255.267 341.200,253.000 341.200 C 250.733 341.200,249.200 341.039,249.200 340.800 C 249.200 340.580,248.761 340.400,248.224 340.400 C 247.687 340.400,247.139 340.225,247.007 340.011 C 246.874 339.797,246.168 339.338,245.437 338.991 C 244.706 338.644,243.731 338.009,243.271 337.580 C 242.810 337.151,242.261 336.800,242.050 336.800 C 241.840 336.800,241.069 336.035,240.337 335.100 C 239.606 334.165,238.691 333.051,238.304 332.625 C 237.917 332.198,237.600 331.523,237.600 331.125 C 237.600 330.726,237.420 330.400,237.200 330.400 C 236.980 330.400,236.800 329.860,236.800 329.200 L 236.800 328.000 295.171 328.000 C 346.524 328.000,353.615 327.928,354.143 327.400 C 354.480 327.063,355.457 326.800,356.371 326.800 C 357.267 326.800,358.000 326.620,358.000 326.400 C 358.000 326.180,358.360 326.000,358.800 326.000 C 359.240 326.000,359.600 325.820,359.600 325.600 C 359.600 325.380,360.050 325.200,360.600 325.200 C 361.150 325.200,361.600 325.020,361.600 324.800 C 361.600 324.580,361.883 324.400,362.229 324.400 C 362.947 324.400,364.000 323.466,364.000 322.829 C 364.000 322.593,364.342 322.400,364.760 322.400 C 365.745 322.400,368.400 319.745,368.400 318.760 C 368.400 318.342,368.593 318.000,368.829 318.000 C 369.466 318.000,370.400 316.947,370.400 316.229 C 370.400 315.883,370.580 315.600,370.800 315.600 C 371.020 315.600,371.200 315.251,371.200 314.824 C 371.200 314.397,371.380 313.936,371.600 313.800 C 371.820 313.664,372.000 313.281,372.000 312.948 C 372.000 312.615,372.270 312.073,372.600 311.743 C 372.930 311.413,373.200 310.626,373.200 309.995 C 373.200 309.364,373.380 308.736,373.600 308.600 C 373.865 308.436,374.000 271.804,374.000 200.000 C 374.000 128.196,373.865 91.564,373.600 91.400 C 373.380 91.264,373.200 90.636,373.200 90.005 C 373.200 89.374,372.930 88.587,372.600 88.257 C 372.270 87.927,372.000 87.385,372.000 87.052 C 372.000 86.719,371.820 86.336,371.600 86.200 C 371.380 86.064,371.200 85.603,371.200 85.176 C 371.200 84.749,371.020 84.400,370.800 84.400 C 370.580 84.400,370.400 84.117,370.400 83.771 C 370.400 83.053,369.466 82.000,368.829 82.000 C 368.593 82.000,368.400 81.658,368.400 81.240 C 368.400 80.255,365.745 77.600,364.760 77.600 C 364.342 77.600,364.000 77.407,364.000 77.171 C 364.000 76.534,362.947 75.600,362.229 75.600 C 361.883 75.600,361.600 75.420,361.600 75.200 C 361.600 74.980,361.150 74.800,360.600 74.800 C 360.050 74.800,359.600 74.620,359.600 74.400 C 359.600 74.180,359.240 74.000,358.800 74.000 C 358.360 74.000,358.000 73.820,358.000 73.600 C 358.000 73.380,357.267 73.200,356.371 73.200 C 355.457 73.200,354.480 72.937,354.143 72.600 C 353.229 71.687,46.771 71.687,45.857 72.600 M352.480 81.250 C 357.403 82.296,361.555 85.512,363.713 89.952 L 365.000 92.600 365.000 200.000 L 365.000 307.400 363.732 310.000 C 361.572 314.431,357.996 317.328,353.065 318.641 C 350.018 319.452,50.028 319.464,46.983 318.653 C 41.003 317.061,36.784 312.878,35.228 307.000 C 34.639 304.774,34.633 95.258,35.222 93.000 C 36.710 87.299,41.299 82.764,47.000 81.360 C 49.773 80.678,349.276 80.570,352.480 81.250 M53.000 96.272 C 52.560 96.362,51.750 96.777,51.200 97.195 L 50.200 97.954 50.200 188.412 L 50.200 278.869 51.322 279.835 L 52.445 280.800 200.000 280.800 L 347.555 280.800 348.678 279.835 L 349.800 278.869 349.903 189.068 C 350.013 92.869,350.118 97.543,347.815 96.581 C 346.505 96.033,55.660 95.729,53.000 96.272 M342.557 104.233 C 343.004 105.397,342.835 271.988,342.386 272.826 C 341.733 274.046,58.267 274.046,57.614 272.826 C 57.166 271.989,57.007 106.162,57.452 104.500 L 57.693 103.600 200.004 103.600 C 329.403 103.600,342.336 103.657,342.557 104.233 M198.158 113.720 C 195.907 115.315,194.713 116.189,193.650 117.021 C 193.072 117.472,191.361 118.732,189.847 119.821 C 188.332 120.909,185.606 122.880,183.787 124.200 C 181.969 125.520,178.978 127.671,177.141 128.981 C 175.303 130.290,173.710 131.469,173.600 131.600 C 173.490 131.731,171.901 132.910,170.069 134.219 C 162.909 139.336,161.376 140.446,160.726 140.987 C 160.356 141.295,159.546 141.870,158.926 142.264 C 158.307 142.659,157.710 143.080,157.600 143.200 C 157.490 143.320,156.230 144.263,154.800 145.296 C 153.370 146.329,152.020 147.321,151.800 147.502 C 151.580 147.682,150.140 148.719,148.600 149.807 C 147.060 150.895,145.740 151.923,145.667 152.093 C 145.593 152.262,145.355 152.400,145.138 152.400 C 144.921 152.400,144.467 152.676,144.129 153.014 C 143.791 153.352,142.409 154.373,141.057 155.284 C 139.706 156.195,138.510 157.049,138.400 157.183 C 138.290 157.317,137.210 158.135,136.000 159.000 C 134.790 159.865,133.710 160.670,133.600 160.787 C 133.490 160.904,133.105 161.180,132.744 161.400 C 132.103 161.791,123.390 168.047,122.600 168.684 C 122.380 168.861,120.520 170.258,118.466 171.789 C 114.053 175.078,113.320 176.157,114.152 178.146 C 114.998 180.171,115.065 180.184,125.200 180.400 L 134.600 180.600 134.702 221.200 C 134.813 265.322,134.726 263.691,137.004 264.729 C 140.463 266.305,183.165 265.195,184.056 263.506 C 184.087 263.448,184.222 256.794,184.356 248.720 C 184.538 237.783,184.727 233.912,185.100 233.540 C 185.375 233.265,185.600 232.802,185.600 232.511 C 185.600 232.221,186.095 231.224,186.700 230.297 C 192.460 221.467,203.845 220.207,211.221 227.583 C 215.340 231.702,215.995 234.899,216.012 251.000 C 216.026 263.607,216.047 263.762,217.874 264.735 C 219.308 265.498,261.679 265.386,263.171 264.615 C 265.017 263.660,264.992 264.187,265.200 221.600 L 265.400 180.600 275.400 180.502 C 286.187 180.396,286.827 180.282,287.866 178.273 C 289.135 175.819,289.247 175.927,273.413 164.400 C 269.937 161.870,265.622 158.720,263.824 157.400 C 262.026 156.080,259.891 154.550,259.080 154.000 C 258.269 153.450,257.604 152.865,257.603 152.700 C 257.601 152.535,257.345 152.400,257.033 152.400 C 256.722 152.400,256.407 152.256,256.333 152.080 C 256.260 151.903,254.940 150.874,253.400 149.793 C 251.860 148.712,250.510 147.718,250.400 147.583 C 250.290 147.449,248.063 145.823,245.451 143.970 C 235.560 136.951,234.595 136.255,234.400 136.007 C 234.290 135.866,232.940 134.863,231.400 133.777 C 229.860 132.691,228.330 131.591,228.000 131.331 C 225.382 129.273,221.896 126.800,221.612 126.800 C 221.422 126.800,221.207 126.662,221.133 126.493 C 221.060 126.324,220.010 125.482,218.800 124.622 C 217.590 123.761,215.340 122.128,213.800 120.992 C 201.388 111.835,201.043 111.675,198.158 113.720 M204.600 123.318 C 206.140 124.474,208.660 126.309,210.200 127.396 C 211.740 128.483,213.090 129.484,213.200 129.619 C 213.310 129.755,214.901 130.931,216.736 132.233 C 218.572 133.535,221.564 135.680,223.386 137.000 C 231.049 142.550,241.169 149.920,243.431 151.597 C 244.768 152.589,248.711 155.470,252.191 158.000 C 255.672 160.530,259.618 163.410,260.960 164.401 C 262.302 165.391,264.660 167.095,266.200 168.186 C 267.740 169.278,269.349 170.492,269.775 170.885 C 270.202 171.278,270.691 171.600,270.861 171.600 C 271.032 171.600,271.362 171.954,271.593 172.387 C 272.011 173.169,271.608 173.175,219.201 173.193 C 168.846 173.209,166.408 173.177,166.845 172.505 C 167.097 172.117,169.755 169.957,172.751 167.704 C 175.748 165.452,181.514 161.092,185.565 158.015 C 189.615 154.938,193.472 152.011,194.136 151.510 C 200.350 146.825,200.779 146.365,200.791 144.375 C 200.803 142.449,199.124 140.800,197.150 140.800 C 195.626 140.800,195.654 140.782,185.800 148.295 C 183.820 149.805,179.230 153.294,175.600 156.049 C 166.147 163.223,162.361 166.108,157.600 169.770 L 153.400 173.000 141.700 173.088 C 134.807 173.139,130.000 173.025,130.000 172.808 C 130.000 172.607,131.555 171.307,133.455 169.921 C 137.018 167.321,140.788 164.563,146.000 160.743 C 147.650 159.534,150.231 157.657,151.735 156.573 C 158.383 151.778,161.751 149.330,171.786 142.000 C 186.746 131.073,187.804 130.303,191.400 127.732 C 193.160 126.473,194.780 125.293,195.000 125.111 C 200.302 120.704,200.956 120.581,204.600 123.318 M257.511 186.500 L 257.621 192.400 200.011 192.400 L 142.400 192.400 142.400 186.667 C 142.400 183.513,142.516 180.817,142.659 180.675 C 142.801 180.532,168.676 180.457,200.159 180.508 L 257.400 180.600 257.511 186.500 M257.903 228.556 C 257.978 249.299,257.883 257.059,257.550 257.460 C 257.175 257.912,254.096 257.990,240.047 257.904 L 223.000 257.800 222.772 246.000 C 222.640 239.150,222.358 233.613,222.101 232.800 C 221.183 229.901,220.960 229.347,219.883 227.293 C 212.417 213.043,190.651 211.931,181.516 225.332 C 177.798 230.786,177.524 232.126,177.237 246.200 L 177.000 257.800 160.046 257.904 C 147.863 257.979,142.939 257.881,142.546 257.555 C 141.962 257.071,141.689 200.844,142.268 200.265 C 142.415 200.118,168.470 200.043,200.168 200.099 L 257.800 200.200 257.903 228.556 M196.467 293.258 C 191.986 295.476,190.984 301.672,194.522 305.286 C 197.768 308.602,202.169 308.652,205.411 305.411 C 211.635 299.186,204.387 289.338,196.467 293.258 M226.300 327.852 C 227.034 328.049,227.200 328.375,227.200 329.623 C 227.200 330.464,227.380 331.264,227.600 331.400 C 227.820 331.536,228.000 332.076,228.000 332.600 C 228.000 333.124,228.180 333.664,228.400 333.800 C 228.620 333.936,228.800 334.397,228.800 334.824 C 228.800 335.251,228.960 335.600,229.157 335.600 C 229.353 335.600,229.626 336.050,229.764 336.600 C 229.902 337.150,230.192 337.600,230.408 337.600 C 230.623 337.600,230.800 337.870,230.800 338.200 C 230.800 338.530,230.980 338.800,231.200 338.800 C 231.420 338.800,231.600 339.014,231.600 339.276 C 231.600 339.938,237.743 345.865,238.766 346.189 C 239.225 346.335,239.600 346.622,239.600 346.827 C 239.600 347.032,239.825 347.197,240.100 347.194 C 240.522 347.188,242.307 347.973,245.695 349.655 C 246.077 349.845,247.101 350.000,247.971 350.000 C 248.841 350.000,249.664 350.180,249.800 350.400 C 249.936 350.620,251.479 350.800,253.229 350.800 C 254.979 350.800,256.723 350.959,257.105 351.153 C 257.487 351.348,258.296 351.739,258.902 352.022 C 260.390 352.718,262.619 354.998,263.213 356.431 C 263.479 357.074,263.855 357.600,264.049 357.600 C 264.242 357.600,264.400 359.400,264.400 361.600 C 264.400 363.800,264.242 365.600,264.049 365.600 C 263.855 365.600,263.460 366.172,263.171 366.871 C 262.445 368.623,260.760 370.136,258.169 371.363 L 255.978 372.400 200.000 372.400 L 144.022 372.400 141.911 371.400 C 139.859 370.428,137.600 368.775,137.600 368.246 C 137.600 368.102,137.150 367.271,136.600 366.400 C 133.868 362.072,136.323 354.249,141.115 352.013 C 141.712 351.734,142.513 351.348,142.895 351.153 C 143.277 350.959,145.021 350.800,146.771 350.800 C 148.521 350.800,150.064 350.620,150.200 350.400 C 150.336 350.180,151.236 350.000,152.200 350.000 C 153.164 350.000,154.064 349.820,154.200 349.600 C 154.336 349.380,154.865 349.200,155.375 349.200 C 155.885 349.200,156.526 348.930,156.800 348.600 C 157.074 348.270,157.636 348.000,158.049 348.000 C 158.462 348.000,158.800 347.820,158.800 347.600 C 158.800 347.380,159.160 347.200,159.600 347.200 C 160.040 347.200,160.400 347.020,160.400 346.800 C 160.400 346.580,160.669 346.400,160.998 346.400 C 161.326 346.400,162.417 345.590,163.421 344.600 C 164.425 343.610,165.416 342.800,165.624 342.800 C 165.831 342.800,166.005 342.665,166.011 342.500 C 166.018 342.335,166.718 341.419,167.568 340.464 C 168.417 339.510,169.447 338.070,169.856 337.264 C 170.265 336.459,170.735 335.740,170.900 335.667 C 171.065 335.593,171.200 335.199,171.200 334.790 C 171.200 334.382,171.380 333.936,171.600 333.800 C 171.820 333.664,172.000 333.124,172.000 332.600 C 172.000 332.076,172.180 331.536,172.400 331.400 C 172.620 331.264,172.800 330.636,172.800 330.005 C 172.800 327.484,171.499 327.599,199.729 327.605 C 213.848 327.608,225.805 327.719,226.300 327.852 M289.500 335.633 C 288.497 336.681,288.000 337.571,288.000 338.320 C 288.000 338.936,287.775 339.678,287.500 339.970 C 287.100 340.394,287.100 340.537,287.500 340.683 C 287.775 340.784,288.000 341.371,288.000 341.988 C 288.000 344.188,289.730 346.362,291.500 346.387 C 291.995 346.394,292.400 346.580,292.400 346.800 C 292.400 347.020,293.210 347.200,294.200 347.200 C 295.190 347.200,296.000 347.020,296.000 346.800 C 296.000 346.580,296.366 346.400,296.814 346.400 C 297.879 346.400,299.600 345.260,299.600 344.554 C 299.600 344.249,299.780 344.000,300.000 344.000 C 300.235 344.000,300.400 342.595,300.400 340.584 L 300.400 337.169 298.831 335.584 L 297.263 334.000 294.131 334.033 C 291.028 334.066,290.987 334.081,289.500 335.633 M114.800 338.000 C 114.800 338.220,114.380 338.400,113.868 338.400 C 113.282 338.400,112.736 338.772,112.400 339.400 C 112.106 339.950,111.715 340.400,111.532 340.400 C 111.350 340.400,111.200 342.110,111.200 344.200 C 111.200 346.467,111.361 348.000,111.600 348.000 C 111.820 348.000,112.000 348.193,112.000 348.429 C 112.000 349.134,113.086 350.000,113.971 350.000 C 114.427 350.000,114.800 350.180,114.800 350.400 C 114.800 350.626,115.933 350.800,117.400 350.800 C 118.867 350.800,120.000 350.626,120.000 350.400 C 120.000 350.180,120.276 350.000,120.613 350.000 C 121.562 350.000,123.600 347.686,123.600 346.610 C 123.600 346.080,123.780 345.536,124.000 345.400 C 124.220 345.264,124.400 344.713,124.400 344.176 C 124.400 343.639,124.220 343.200,124.000 343.200 C 123.780 343.200,123.600 342.570,123.600 341.800 C 123.600 340.822,123.419 340.400,123.000 340.400 C 122.670 340.400,122.400 340.207,122.400 339.971 C 122.400 339.334,121.347 338.400,120.629 338.400 C 120.283 338.400,120.000 338.220,120.000 338.000 C 120.000 337.774,118.867 337.600,117.400 337.600 C 115.933 337.600,114.800 337.774,114.800 338.000 M74.000 341.600 C 74.000 341.820,73.201 342.000,72.224 342.000 C 71.247 342.000,70.336 342.180,70.200 342.400 C 70.064 342.620,69.508 342.800,68.964 342.800 C 68.420 342.800,67.871 343.070,67.745 343.400 C 67.618 343.730,67.213 344.000,66.846 344.000 C 66.478 344.000,65.917 344.360,65.600 344.800 C 65.283 345.240,64.826 345.600,64.584 345.600 C 63.937 345.600,61.869 347.631,61.224 348.900 C 60.916 349.505,60.425 350.000,60.132 350.000 C 59.840 350.000,59.600 350.360,59.600 350.800 C 59.600 351.240,59.420 351.600,59.200 351.600 C 58.980 351.600,58.800 351.949,58.800 352.376 C 58.800 352.803,58.620 353.264,58.400 353.400 C 58.180 353.536,58.000 354.087,58.000 354.624 C 58.000 355.161,57.820 355.600,57.600 355.600 C 57.352 355.600,57.200 357.792,57.200 361.376 C 57.200 364.796,57.363 367.254,57.600 367.400 C 57.820 367.536,58.000 367.963,58.000 368.349 C 58.000 369.329,59.916 373.200,60.401 373.200 C 60.620 373.200,60.800 373.470,60.800 373.800 C 60.800 374.130,60.980 374.400,61.200 374.400 C 61.420 374.400,61.600 374.601,61.600 374.847 C 61.600 375.378,64.019 377.584,64.612 377.594 C 64.838 377.597,65.283 377.960,65.600 378.400 C 65.917 378.840,66.497 379.200,66.888 379.200 C 67.280 379.200,67.600 379.380,67.600 379.600 C 67.600 379.820,68.050 380.000,68.600 380.000 C 69.150 380.000,69.600 380.180,69.600 380.400 C 69.600 380.620,70.506 380.800,71.613 380.800 C 73.032 380.800,73.693 380.977,73.855 381.400 C 74.031 381.858,74.783 382.000,77.043 382.000 C 79.405 382.000,80.000 381.879,80.000 381.400 C 80.000 380.957,80.464 380.800,81.776 380.800 C 82.753 380.800,83.664 380.620,83.800 380.400 C 83.936 380.180,84.577 380.000,85.224 380.000 C 85.871 380.000,86.400 379.820,86.400 379.600 C 86.400 379.380,86.685 379.200,87.033 379.200 C 87.382 379.200,88.279 378.570,89.026 377.800 C 89.774 377.030,90.548 376.400,90.747 376.400 C 90.946 376.400,91.428 375.905,91.819 375.300 C 92.210 374.695,92.950 373.804,93.465 373.319 C 93.979 372.835,94.400 372.160,94.400 371.819 C 94.400 371.479,94.580 371.200,94.800 371.200 C 95.020 371.200,95.200 370.840,95.200 370.400 C 95.200 369.960,95.380 369.600,95.600 369.600 C 95.820 369.600,96.000 368.970,96.000 368.200 C 96.000 367.430,96.180 366.800,96.400 366.800 C 96.646 366.800,96.800 364.800,96.800 361.600 C 96.800 358.400,96.646 356.400,96.400 356.400 C 96.180 356.400,96.000 355.770,96.000 355.000 C 96.000 354.230,95.820 353.600,95.600 353.600 C 95.380 353.600,95.200 353.351,95.200 353.046 C 95.200 352.121,94.215 350.521,92.872 349.267 C 92.172 348.614,91.600 347.963,91.600 347.821 C 91.600 347.399,89.671 345.600,89.218 345.600 C 88.988 345.600,88.800 345.441,88.800 345.246 C 88.800 345.051,88.178 344.596,87.417 344.235 C 86.656 343.874,85.926 343.403,85.793 343.189 C 85.661 342.975,85.113 342.800,84.576 342.800 C 84.039 342.800,83.600 342.620,83.600 342.400 C 83.600 342.180,82.790 342.000,81.800 342.000 C 80.810 342.000,80.000 341.820,80.000 341.600 C 80.000 341.369,78.733 341.200,77.000 341.200 C 75.267 341.200,74.000 341.369,74.000 341.600 M81.800 351.185 C 87.222 353.579,89.901 360.648,87.448 366.089 C 82.299 377.509,65.637 373.893,65.606 361.349 C 65.586 353.165,74.133 347.801,81.800 351.185 M352.800 357.600 C 352.800 357.820,352.427 358.000,351.971 358.000 C 351.516 358.000,350.886 358.257,350.571 358.571 C 350.257 358.886,350.000 359.516,350.000 359.971 C 350.000 360.427,349.820 360.800,349.600 360.800 C 349.024 360.800,349.105 365.447,349.700 366.476 C 350.560 367.965,352.258 369.600,352.943 369.600 C 353.304 369.600,353.600 369.780,353.600 370.000 C 353.600 370.220,354.489 370.400,355.576 370.400 C 356.663 370.400,357.664 370.220,357.800 370.000 C 357.936 369.780,358.397 369.600,358.824 369.600 C 359.251 369.600,359.600 369.330,359.600 369.000 C 359.600 368.670,359.804 368.400,360.053 368.400 C 361.355 368.400,362.399 366.219,362.400 363.500 C 362.400 361.966,362.227 360.800,362.000 360.800 C 361.780 360.800,361.600 360.468,361.600 360.062 C 361.600 359.310,360.905 358.594,359.305 357.700 C 358.239 357.104,352.800 357.020,352.800 357.600 " stroke="none" fill="#0e0f0f" fill-rule="evenodd"></path><path id="path2" d="M316.400 27.234 C 298.865 30.604,300.697 56.728,318.526 57.544 C 337.469 58.411,340.468 30.685,321.805 27.235 C 319.170 26.748,318.928 26.748,316.400 27.234 M67.526 38.780 C 61.598 39.929,59.669 48.494,64.514 52.152 C 69.688 56.057,76.800 52.576,76.800 46.138 C 76.800 41.156,72.573 37.802,67.526 38.780 M47.000 81.360 C 41.299 82.764,36.710 87.299,35.222 93.000 C 34.633 95.258,34.639 304.774,35.228 307.000 C 36.784 312.878,41.003 317.061,46.983 318.653 C 50.028 319.464,350.018 319.452,353.065 318.641 C 357.996 317.328,361.572 314.431,363.732 310.000 L 365.000 307.400 365.000 200.000 L 365.000 92.600 363.713 89.952 C 361.555 85.512,357.403 82.296,352.480 81.250 C 349.276 80.570,49.773 80.678,47.000 81.360 M347.815 96.581 C 350.118 97.543,350.013 92.869,349.903 189.068 L 349.800 278.869 348.678 279.835 L 347.555 280.800 200.000 280.800 L 52.445 280.800 51.322 279.835 L 50.200 278.869 50.200 188.412 L 50.200 97.954 51.200 97.195 C 51.750 96.777,52.560 96.362,53.000 96.272 C 55.660 95.729,346.505 96.033,347.815 96.581 M57.452 104.500 C 57.007 106.162,57.166 271.989,57.614 272.826 C 58.267 274.046,341.733 274.046,342.386 272.826 C 342.835 271.988,343.004 105.397,342.557 104.233 C 342.336 103.657,329.403 103.600,200.004 103.600 L 57.693 103.600 57.452 104.500 M341.501 104.330 C 341.900 104.584,341.981 121.707,341.901 188.624 L 341.800 272.600 200.000 272.600 L 58.200 272.600 58.099 188.624 C 58.019 121.707,58.100 104.584,58.499 104.330 C 58.775 104.155,122.450 104.012,200.000 104.012 C 277.550 104.012,341.225 104.155,341.501 104.330 M199.260 112.427 C 198.743 112.634,196.583 114.091,194.460 115.664 C 187.277 120.988,185.006 122.653,182.800 124.215 C 181.590 125.072,180.510 125.878,180.400 126.006 C 180.290 126.134,178.670 127.305,176.800 128.608 C 174.930 129.912,173.220 131.122,173.000 131.298 C 172.780 131.474,171.700 132.278,170.600 133.085 C 169.500 133.891,167.610 135.297,166.400 136.207 C 165.190 137.118,163.094 138.608,161.743 139.518 C 160.391 140.428,159.041 141.409,158.743 141.699 C 158.444 141.989,156.670 143.292,154.800 144.594 C 152.930 145.896,151.310 147.071,151.200 147.205 C 151.090 147.339,149.740 148.331,148.200 149.411 C 146.660 150.490,145.310 151.484,145.200 151.619 C 145.090 151.755,143.560 152.882,141.800 154.125 C 138.062 156.764,129.980 162.601,129.400 163.082 C 129.180 163.264,127.740 164.299,126.200 165.382 C 124.660 166.465,123.310 167.467,123.200 167.609 C 123.090 167.750,121.471 168.931,119.602 170.233 C 113.167 174.716,111.996 176.689,114.163 179.400 L 115.123 180.600 124.661 180.800 L 134.200 181.000 134.400 222.000 C 134.605 264.043,134.600 263.915,136.220 264.976 C 137.660 265.920,181.540 265.920,182.980 264.976 C 185.022 263.638,185.199 262.292,185.206 248.092 C 185.213 233.061,185.275 232.710,188.631 228.600 C 195.124 220.649,209.410 222.375,213.461 231.600 C 213.703 232.150,214.140 233.140,214.432 233.800 C 214.831 234.700,214.996 238.354,215.092 248.400 C 215.236 263.377,215.228 263.293,216.675 264.634 L 217.717 265.600 240.428 265.600 L 263.138 265.600 264.369 264.369 L 265.600 263.138 265.600 222.602 C 265.600 200.307,265.709 181.781,265.843 181.433 C 266.055 180.879,267.346 180.799,276.143 180.791 C 287.005 180.781,287.220 180.742,288.353 178.526 C 289.589 176.110,288.341 174.373,282.398 170.233 C 280.529 168.931,278.910 167.755,278.800 167.619 C 278.690 167.484,277.340 166.490,275.800 165.411 C 274.260 164.331,272.910 163.339,272.800 163.205 C 272.690 163.071,271.096 161.890,269.259 160.581 C 267.421 159.271,265.418 157.840,264.807 157.400 C 264.196 156.960,262.819 155.984,261.748 155.230 C 260.677 154.477,259.328 153.487,258.750 153.030 C 257.276 151.864,254.970 150.192,247.147 144.613 C 245.306 143.301,243.562 141.995,243.270 141.712 C 242.979 141.429,241.899 140.630,240.870 139.936 C 239.842 139.243,237.740 137.742,236.200 136.601 C 233.884 134.884,224.435 127.997,221.388 125.804 C 220.941 125.483,218.331 123.583,215.588 121.583 C 212.845 119.583,210.240 117.685,209.800 117.366 C 209.360 117.047,207.920 115.981,206.600 114.997 C 202.709 112.096,201.310 111.606,199.260 112.427 M206.800 115.868 C 209.110 117.550,212.260 119.855,213.800 120.992 C 215.340 122.128,217.590 123.761,218.800 124.622 C 220.010 125.482,221.060 126.324,221.133 126.493 C 221.207 126.662,221.422 126.800,221.612 126.800 C 221.896 126.800,225.382 129.273,228.000 131.331 C 228.330 131.591,229.860 132.691,231.400 133.777 C 232.940 134.863,234.290 135.866,234.400 136.007 C 234.595 136.255,235.560 136.951,245.451 143.970 C 248.063 145.823,250.290 147.449,250.400 147.583 C 250.510 147.718,251.860 148.712,253.400 149.793 C 254.940 150.874,256.260 151.903,256.333 152.080 C 256.407 152.256,256.722 152.400,257.033 152.400 C 257.345 152.400,257.601 152.535,257.603 152.700 C 257.604 152.865,258.269 153.450,259.080 154.000 C 259.891 154.550,262.026 156.080,263.824 157.400 C 265.622 158.720,269.937 161.870,273.413 164.400 C 289.247 175.927,289.135 175.819,287.866 178.273 C 286.827 180.282,286.187 180.396,275.400 180.502 L 265.400 180.600 265.200 221.600 C 264.992 264.187,265.017 263.660,263.171 264.615 C 261.679 265.386,219.308 265.498,217.874 264.735 C 216.047 263.762,216.026 263.607,216.012 251.000 C 215.995 234.899,215.340 231.702,211.221 227.583 C 203.845 220.207,192.460 221.467,186.700 230.297 C 186.095 231.224,185.600 232.221,185.600 232.511 C 185.600 232.802,185.375 233.265,185.100 233.540 C 184.727 233.912,184.538 237.783,184.356 248.720 C 184.222 256.794,184.087 263.448,184.056 263.506 C 183.165 265.195,140.463 266.305,137.004 264.729 C 134.726 263.691,134.813 265.322,134.702 221.200 L 134.600 180.600 125.200 180.400 C 115.065 180.184,114.998 180.171,114.152 178.146 C 113.320 176.157,114.053 175.078,118.466 171.789 C 120.520 170.258,122.380 168.861,122.600 168.684 C 123.390 168.047,132.103 161.791,132.744 161.400 C 133.105 161.180,133.490 160.904,133.600 160.787 C 133.710 160.670,134.790 159.865,136.000 159.000 C 137.210 158.135,138.290 157.317,138.400 157.183 C 138.510 157.049,139.706 156.195,141.057 155.284 C 142.409 154.373,143.791 153.352,144.129 153.014 C 144.467 152.676,144.921 152.400,145.138 152.400 C 145.355 152.400,145.593 152.262,145.667 152.093 C 145.740 151.923,147.060 150.895,148.600 149.807 C 150.140 148.719,151.580 147.682,151.800 147.502 C 152.020 147.321,153.370 146.329,154.800 145.296 C 156.230 144.263,157.490 143.320,157.600 143.200 C 157.710 143.080,158.307 142.659,158.926 142.264 C 159.546 141.870,160.356 141.295,160.726 140.987 C 161.376 140.446,162.909 139.336,170.069 134.219 C 171.901 132.910,173.490 131.731,173.600 131.600 C 173.710 131.469,175.303 130.290,177.141 128.981 C 178.978 127.671,181.969 125.520,183.787 124.200 C 185.606 122.880,188.332 120.909,189.847 119.821 C 191.361 118.732,193.072 117.472,193.650 117.021 C 194.713 116.189,195.907 115.315,198.158 113.720 C 200.531 112.037,202.062 112.418,206.800 115.868 M207.600 125.746 C 207.600 125.856,208.140 126.330,208.800 126.800 C 209.460 127.270,210.000 127.564,210.000 127.454 C 210.000 127.344,209.460 126.870,208.800 126.400 C 208.140 125.930,207.600 125.636,207.600 125.746 M189.000 129.435 L 187.800 130.466 189.100 129.606 C 189.815 129.133,190.400 128.668,190.400 128.573 C 190.400 128.273,190.231 128.378,189.000 129.435 M183.000 133.835 L 181.800 134.866 183.100 134.006 C 183.815 133.533,184.400 133.068,184.400 132.973 C 184.400 132.673,184.231 132.778,183.000 133.835 M217.600 132.946 C 217.600 133.056,218.140 133.530,218.800 134.000 C 219.460 134.470,220.000 134.764,220.000 134.654 C 220.000 134.544,219.460 134.070,218.800 133.600 C 218.140 133.130,217.600 132.836,217.600 132.946 M220.800 135.346 C 220.800 135.456,221.340 135.930,222.000 136.400 C 222.660 136.870,223.200 137.164,223.200 137.054 C 223.200 136.944,222.660 136.470,222.000 136.000 C 221.340 135.530,220.800 135.236,220.800 135.346 M224.800 138.146 C 224.800 138.256,225.340 138.730,226.000 139.200 C 226.660 139.670,227.200 139.964,227.200 139.854 C 227.200 139.744,226.660 139.270,226.000 138.800 C 225.340 138.330,224.800 138.036,224.800 138.146 M196.500 140.676 C 196.885 140.776,197.515 140.776,197.900 140.676 C 198.285 140.575,197.970 140.493,197.200 140.493 C 196.430 140.493,196.115 140.575,196.500 140.676 M163.800 147.835 L 162.600 148.866 163.900 148.006 C 164.615 147.533,165.200 147.068,165.200 146.973 C 165.200 146.673,165.031 146.778,163.800 147.835 M236.800 146.946 C 236.800 147.056,237.340 147.530,238.000 148.000 C 238.660 148.470,239.200 148.764,239.200 148.654 C 239.200 148.544,238.660 148.070,238.000 147.600 C 237.340 147.130,236.800 146.836,236.800 146.946 M239.600 148.946 C 239.600 149.056,240.140 149.530,240.800 150.000 C 241.460 150.470,242.000 150.764,242.000 150.654 C 242.000 150.544,241.460 150.070,240.800 149.600 C 240.140 149.130,239.600 148.836,239.600 148.946 M245.600 153.346 C 245.600 153.456,246.140 153.930,246.800 154.400 C 247.460 154.870,248.000 155.164,248.000 155.054 C 248.000 154.944,247.460 154.470,246.800 154.000 C 246.140 153.530,245.600 153.236,245.600 153.346 M184.200 159.060 C 182.995 160.136,182.905 160.285,183.836 159.663 C 184.941 158.924,186.332 157.576,185.949 157.615 C 185.867 157.623,185.080 158.273,184.200 159.060 M180.800 161.649 C 179.406 162.871,179.405 162.872,180.688 162.019 C 181.396 161.548,182.082 160.991,182.212 160.781 C 182.597 160.157,182.277 160.354,180.800 161.649 M141.800 163.835 L 140.600 164.866 141.900 164.006 C 142.615 163.533,143.200 163.068,143.200 162.973 C 143.200 162.673,143.031 162.778,141.800 163.835 M165.000 163.835 L 163.800 164.866 165.100 164.006 C 165.815 163.533,166.400 163.068,166.400 162.973 C 166.400 162.673,166.231 162.778,165.000 163.835 M258.800 162.946 C 258.800 163.056,259.340 163.530,260.000 164.000 C 260.660 164.470,261.200 164.764,261.200 164.654 C 261.200 164.544,260.660 164.070,260.000 163.600 C 259.340 163.130,258.800 162.836,258.800 162.946 M158.200 169.035 L 157.000 170.066 158.300 169.206 C 159.015 168.733,159.600 168.268,159.600 168.173 C 159.600 167.873,159.431 167.978,158.200 169.035 M130.480 172.080 C 129.525 173.035,130.065 173.199,133.900 173.118 L 137.800 173.035 134.263 172.902 C 131.362 172.792,130.767 172.663,130.951 172.184 C 131.223 171.474,131.110 171.450,130.480 172.080 M271.050 172.187 C 271.238 172.676,270.527 172.794,266.738 172.901 L 262.200 173.029 267.114 173.114 C 271.916 173.198,272.018 173.182,271.600 172.400 C 271.104 171.473,270.719 171.323,271.050 172.187 M166.538 172.900 C 166.436 173.065,187.648 173.157,213.676 173.104 C 239.704 173.052,253.440 172.962,244.200 172.905 C 199.936 172.631,166.706 172.629,166.538 172.900 M142.500 173.098 C 144.425 173.171,147.575 173.171,149.500 173.098 C 151.425 173.025,149.850 172.965,146.000 172.965 C 142.150 172.965,140.575 173.025,142.500 173.098 M142.661 180.700 C 142.558 180.865,144.212 180.952,146.337 180.894 C 153.182 180.706,153.937 180.546,148.324 180.472 C 145.312 180.432,142.763 180.535,142.661 180.700 M154.538 180.706 C 154.284 180.868,177.352 181.000,205.800 181.000 C 234.248 181.000,257.440 180.865,257.338 180.700 C 257.098 180.312,155.148 180.318,154.538 180.706 M171.100 192.300 C 186.995 192.358,213.005 192.358,228.900 192.300 C 244.795 192.242,231.790 192.195,200.000 192.195 C 168.210 192.195,155.205 192.242,171.100 192.300 M142.267 200.267 C 141.689 200.844,141.963 257.072,142.546 257.555 C 142.939 257.881,147.863 257.979,160.046 257.904 L 177.000 257.800 177.247 246.200 C 177.382 239.820,177.602 233.970,177.735 233.200 C 177.973 231.822,177.968 231.825,177.419 233.400 C 176.996 234.613,176.854 237.734,176.831 246.304 L 176.800 257.609 159.700 257.504 L 142.600 257.400 142.600 228.700 C 142.600 212.915,142.585 200.000,142.567 200.000 C 142.548 200.000,142.413 200.120,142.267 200.267 M257.400 228.738 L 257.400 257.400 240.300 257.504 L 223.200 257.609 223.200 246.347 C 223.200 228.778,219.966 221.880,209.600 217.338 C 207.290 216.326,206.324 216.001,205.681 216.021 C 205.307 216.032,206.100 216.451,207.445 216.951 C 213.915 219.356,219.405 224.676,221.323 230.400 C 221.507 230.950,221.857 232.030,222.101 232.800 C 222.358 233.613,222.640 239.150,222.772 246.000 L 223.000 257.800 239.954 257.904 C 252.137 257.979,257.061 257.881,257.454 257.555 C 258.058 257.054,258.301 200.633,257.700 200.262 C 257.535 200.160,257.400 212.974,257.400 228.738 M195.200 215.784 C 187.490 217.542,177.804 226.278,178.023 231.275 C 178.036 231.564,178.469 230.870,178.986 229.733 C 183.143 220.590,190.349 215.975,200.564 215.914 C 203.352 215.897,204.554 215.777,203.800 215.591 C 201.942 215.132,197.633 215.229,195.200 215.784 M202.369 292.654 C 204.286 293.037,206.899 295.816,207.502 298.114 C 209.512 305.775,200.095 310.979,194.522 305.286 C 188.988 299.633,194.322 291.044,202.369 292.654 M173.429 328.229 C 173.083 328.574,172.800 329.374,172.800 330.005 C 172.800 330.636,172.620 331.264,172.400 331.400 C 172.180 331.536,172.000 332.076,172.000 332.600 C 172.000 333.124,171.820 333.664,171.600 333.800 C 171.380 333.936,171.200 334.382,171.200 334.790 C 171.200 335.199,171.065 335.593,170.900 335.667 C 170.735 335.740,170.265 336.459,169.856 337.264 C 169.447 338.070,168.417 339.510,167.568 340.464 C 166.718 341.419,166.018 342.335,166.011 342.500 C 166.005 342.665,165.831 342.800,165.624 342.800 C 165.416 342.800,164.425 343.610,163.421 344.600 C 162.417 345.590,161.326 346.400,160.998 346.400 C 160.669 346.400,160.400 346.580,160.400 346.800 C 160.400 347.020,160.040 347.200,159.600 347.200 C 159.160 347.200,158.800 347.380,158.800 347.600 C 158.800 347.820,158.462 348.000,158.049 348.000 C 157.636 348.000,157.074 348.270,156.800 348.600 C 156.526 348.930,155.885 349.200,155.375 349.200 C 154.865 349.200,154.336 349.380,154.200 349.600 C 154.064 349.820,153.164 350.000,152.200 350.000 C 151.236 350.000,150.336 350.180,150.200 350.400 C 150.064 350.620,148.521 350.800,146.771 350.800 C 145.021 350.800,143.277 350.959,142.895 351.153 C 142.513 351.348,141.712 351.734,141.115 352.013 C 136.323 354.249,133.868 362.072,136.600 366.400 C 137.150 367.271,137.600 368.102,137.600 368.246 C 137.600 368.775,139.859 370.428,141.911 371.400 L 144.022 372.400 200.000 372.400 L 255.978 372.400 258.169 371.363 C 260.760 370.136,262.445 368.623,263.171 366.871 C 263.460 366.172,263.855 365.600,264.049 365.600 C 264.242 365.600,264.400 363.800,264.400 361.600 C 264.400 359.400,264.242 357.600,264.049 357.600 C 263.855 357.600,263.479 357.074,263.213 356.431 C 262.619 354.998,260.390 352.718,258.902 352.022 C 258.296 351.739,257.487 351.348,257.105 351.153 C 256.723 350.959,254.979 350.800,253.229 350.800 C 251.479 350.800,249.936 350.620,249.800 350.400 C 249.664 350.180,248.841 350.000,247.971 350.000 C 247.101 350.000,246.077 349.845,245.695 349.655 C 242.307 347.973,240.522 347.188,240.100 347.194 C 239.825 347.197,239.600 347.032,239.600 346.827 C 239.600 346.622,239.225 346.335,238.766 346.189 C 237.743 345.865,231.600 339.938,231.600 339.276 C 231.600 339.014,231.420 338.800,231.200 338.800 C 230.980 338.800,230.800 338.530,230.800 338.200 C 230.800 337.870,230.623 337.600,230.408 337.600 C 230.192 337.600,229.902 337.150,229.764 336.600 C 229.626 336.050,229.353 335.600,229.157 335.600 C 228.960 335.600,228.800 335.251,228.800 334.824 C 228.800 334.397,228.620 333.936,228.400 333.800 C 228.180 333.664,228.000 333.124,228.000 332.600 C 228.000 332.076,227.820 331.536,227.600 331.400 C 227.380 331.264,227.200 330.464,227.200 329.623 C 227.200 328.375,227.034 328.049,226.300 327.852 C 223.979 327.230,174.072 327.585,173.429 328.229 M74.577 350.355 C 66.871 351.675,63.103 361.044,67.481 368.000 C 71.083 373.724,79.667 374.644,84.748 369.850 C 93.115 361.954,86.039 348.392,74.577 350.355 " stroke="none" fill="#545c64" fill-rule="evenodd"></path><path id="path3" d="M142.800 186.601 L 142.800 192.003 200.100 191.901 L 257.400 191.800 257.516 187.400 C 257.580 184.980,257.532 182.595,257.409 182.100 L 257.185 181.200 199.992 181.200 L 142.800 181.200 142.800 186.601 M142.584 200.499 C 142.479 200.774,142.440 213.690,142.496 229.200 L 142.600 257.400 159.700 257.504 L 176.800 257.609 176.800 246.347 C 176.800 234.065,177.110 231.898,179.484 227.600 C 189.710 209.087,216.529 212.077,222.542 232.400 C 222.770 233.170,223.056 239.110,223.178 245.600 L 223.400 257.400 240.400 257.400 L 257.400 257.400 257.400 228.800 L 257.400 200.200 200.088 200.099 C 154.449 200.018,142.737 200.099,142.584 200.499 " stroke="none" fill="#fae757" fill-rule="evenodd"></path><path id="path4" d="M193.800 126.232 C 190.060 128.982,185.560 132.251,183.800 133.496 C 182.040 134.742,180.510 135.869,180.400 136.000 C 180.290 136.131,178.760 137.259,177.000 138.505 C 172.794 141.483,162.383 149.073,161.532 149.782 C 161.164 150.088,160.503 150.531,160.063 150.766 C 159.623 151.002,159.023 151.429,158.731 151.716 C 158.439 152.003,157.323 152.859,156.252 153.619 C 155.181 154.379,153.804 155.360,153.193 155.800 C 152.582 156.240,150.579 157.671,148.741 158.981 C 146.904 160.290,145.310 161.466,145.200 161.594 C 145.090 161.722,144.010 162.529,142.800 163.387 C 140.323 165.144,135.554 168.620,132.700 170.748 C 129.922 172.819,129.837 172.800,141.962 172.800 L 153.125 172.800 157.262 169.684 C 165.238 163.678,171.402 158.998,171.600 158.799 C 171.710 158.688,174.320 156.709,177.400 154.400 C 180.480 152.091,183.090 150.112,183.200 150.001 C 183.796 149.402,194.735 141.260,195.474 140.866 C 196.853 140.131,198.239 140.316,199.540 141.411 C 202.361 143.784,201.475 146.271,196.482 150.000 C 194.567 151.430,192.910 152.697,192.800 152.816 C 192.690 152.935,190.890 154.320,188.800 155.894 C 186.710 157.467,181.760 161.216,177.800 164.225 C 173.840 167.234,169.835 170.248,168.900 170.925 C 167.965 171.601,167.200 172.299,167.200 172.477 C 167.200 172.655,190.600 172.800,219.200 172.800 C 247.800 172.800,271.200 172.653,271.200 172.472 C 271.200 172.170,267.744 169.489,264.400 167.198 C 263.630 166.670,262.910 166.131,262.800 166.000 C 262.690 165.868,261.160 164.736,259.400 163.484 C 257.640 162.231,254.850 160.214,253.200 159.001 C 251.550 157.788,248.580 155.634,246.600 154.215 C 244.620 152.795,239.670 149.188,235.600 146.200 C 231.530 143.212,226.580 139.605,224.600 138.185 C 222.620 136.766,219.650 134.610,218.000 133.395 C 216.350 132.180,213.380 130.012,211.400 128.577 C 209.420 127.141,206.360 124.903,204.600 123.603 C 200.613 120.657,201.763 120.377,193.800 126.232 M142.575 181.321 C 142.465 181.608,142.431 184.173,142.501 187.021 L 142.626 192.200 142.713 186.711 L 142.800 181.222 148.500 181.099 L 154.200 180.976 148.487 180.888 C 144.099 180.820,142.729 180.921,142.575 181.321 M205.777 181.099 C 246.084 181.181,257.030 181.309,257.308 181.702 C 257.568 182.069,257.618 182.043,257.497 181.600 C 257.353 181.071,251.285 181.000,205.967 180.998 L 154.600 180.995 205.777 181.099 " stroke="none" fill="#db4353" fill-rule="evenodd"></path></g></svg>