<svg id="svg" version="1.1" xmlns="http://www.w3.org/2000/svg" xmlns:xlink="http://www.w3.org/1999/xlink" width="400" height="400" viewBox="0, 0, 400,400"><g id="svgg"><path id="path0" d="M153.600 42.400 C 153.600 42.620,152.610 42.800,151.400 42.800 C 149.711 42.800,149.200 42.939,149.200 43.400 C 149.200 43.819,148.778 44.000,147.800 44.000 C 147.030 44.000,146.400 44.180,146.400 44.400 C 146.400 44.620,145.860 44.800,145.200 44.800 C 144.540 44.800,144.000 44.980,144.000 45.200 C 144.000 45.420,143.674 45.600,143.275 45.600 C 142.877 45.600,142.164 45.960,141.692 46.400 C 141.220 46.840,140.637 47.200,140.398 47.200 C 140.158 47.200,139.545 47.650,139.035 48.200 C 138.525 48.750,137.878 49.200,137.597 49.200 C 136.939 49.200,131.600 54.698,131.600 55.375 C 131.600 55.657,131.150 56.226,130.600 56.639 C 130.050 57.052,129.600 57.707,129.600 58.095 C 129.600 58.483,129.420 58.800,129.200 58.800 C 128.980 58.800,128.800 59.250,128.800 59.800 C 128.800 60.350,128.620 60.800,128.400 60.800 C 128.180 60.800,128.000 61.083,128.000 61.429 C 128.000 61.774,127.730 62.327,127.400 62.657 C 127.070 62.987,126.800 63.594,126.800 64.005 C 126.800 64.416,126.620 64.864,126.400 65.000 C 126.180 65.136,126.000 65.766,126.000 66.400 C 126.000 67.034,125.820 67.664,125.600 67.800 C 125.350 67.955,125.200 71.937,125.200 78.424 L 125.200 88.800 86.387 88.800 C 52.256 88.800,47.547 88.872,47.345 89.400 C 47.179 89.831,46.506 90.000,44.957 90.000 C 43.771 90.000,42.800 90.180,42.800 90.400 C 42.800 90.620,42.260 90.800,41.600 90.800 C 40.940 90.800,40.400 90.980,40.400 91.200 C 40.400 91.420,40.038 91.600,39.595 91.600 C 38.832 91.600,37.234 92.313,36.800 92.846 C 36.690 92.981,36.195 93.219,35.700 93.373 C 35.205 93.528,34.800 93.822,34.800 94.027 C 34.800 94.232,34.480 94.400,34.088 94.400 C 33.697 94.400,33.117 94.760,32.800 95.200 C 32.483 95.640,31.999 96.000,31.726 96.000 C 31.133 96.000,26.000 101.024,26.000 101.605 C 26.000 101.826,25.460 102.572,24.800 103.263 C 24.140 103.954,23.600 104.762,23.600 105.059 C 23.600 105.357,23.423 105.600,23.208 105.600 C 22.992 105.600,22.702 106.050,22.564 106.600 C 22.426 107.150,22.153 107.600,21.957 107.600 C 21.760 107.600,21.600 107.949,21.600 108.376 C 21.600 108.803,21.420 109.264,21.200 109.400 C 20.980 109.536,20.800 110.177,20.800 110.824 C 20.800 111.471,20.620 112.000,20.400 112.000 C 20.180 112.000,20.000 112.619,20.000 113.376 C 20.000 114.133,19.820 114.864,19.600 115.000 C 19.335 115.164,19.200 151.871,19.200 223.824 C 19.200 295.941,19.334 332.400,19.600 332.400 C 19.820 332.400,20.000 333.120,20.000 334.000 C 20.000 334.880,20.180 335.600,20.400 335.600 C 20.620 335.600,20.800 336.050,20.800 336.600 C 20.800 337.150,20.980 337.600,21.200 337.600 C 21.420 337.600,21.600 337.960,21.600 338.400 C 21.600 338.840,21.780 339.200,22.000 339.200 C 22.220 339.200,22.400 339.566,22.400 340.013 C 22.400 340.459,22.670 340.929,23.000 341.055 C 23.330 341.182,23.600 341.626,23.600 342.043 C 23.600 342.459,23.780 342.800,24.000 342.800 C 24.220 342.800,24.400 343.070,24.400 343.400 C 24.400 343.730,24.536 344.000,24.702 344.000 C 24.869 344.000,25.244 344.540,25.536 345.200 C 25.828 345.860,26.245 346.400,26.462 346.400 C 26.894 346.400,28.000 347.396,28.000 347.785 C 28.000 348.244,30.775 350.800,31.287 350.813 C 31.998 350.830,33.200 351.792,33.200 352.344 C 33.200 352.595,33.560 352.800,34.000 352.800 C 34.440 352.800,34.800 352.980,34.800 353.200 C 34.800 353.420,35.070 353.600,35.400 353.600 C 35.730 353.600,36.000 353.780,36.000 354.000 C 36.000 354.220,36.360 354.400,36.800 354.400 C 37.240 354.400,37.600 354.580,37.600 354.800 C 37.600 355.020,38.230 355.200,39.000 355.200 C 39.770 355.200,40.400 355.380,40.400 355.600 C 40.400 355.820,40.921 356.000,41.557 356.000 C 42.217 356.000,42.813 356.258,42.945 356.600 C 43.107 357.022,43.765 357.200,45.164 357.200 C 46.258 357.200,47.264 357.380,47.400 357.600 C 47.743 358.155,352.257 358.155,352.600 357.600 C 352.736 357.380,353.742 357.200,354.836 357.200 C 356.235 357.200,356.893 357.022,357.055 356.600 C 357.187 356.258,357.783 356.000,358.443 356.000 C 359.079 356.000,359.600 355.820,359.600 355.600 C 359.600 355.380,360.230 355.200,361.000 355.200 C 361.770 355.200,362.400 355.020,362.400 354.800 C 362.400 354.580,362.760 354.400,363.200 354.400 C 363.640 354.400,364.000 354.254,364.000 354.075 C 364.000 353.896,364.630 353.502,365.400 353.200 C 366.170 352.898,366.800 352.458,366.800 352.223 C 366.800 351.988,367.304 351.572,367.920 351.300 C 369.281 350.697,372.000 348.263,372.000 347.646 C 372.000 347.401,372.204 347.200,372.453 347.200 C 373.029 347.200,374.799 345.163,374.800 344.500 C 374.800 344.225,374.980 344.000,375.200 344.000 C 375.420 344.000,375.600 343.730,375.600 343.400 C 375.600 343.070,375.780 342.800,376.000 342.800 C 376.220 342.800,376.400 342.459,376.400 342.043 C 376.400 341.626,376.670 341.182,377.000 341.055 C 377.330 340.929,377.600 340.459,377.600 340.013 C 377.600 339.566,377.780 339.200,378.000 339.200 C 378.220 339.200,378.400 338.840,378.400 338.400 C 378.400 337.960,378.580 337.600,378.800 337.600 C 379.020 337.600,379.200 337.150,379.200 336.600 C 379.200 336.050,379.380 335.600,379.600 335.600 C 379.820 335.600,380.000 334.880,380.000 334.000 C 380.000 333.120,380.180 332.400,380.400 332.400 C 380.666 332.400,380.800 295.941,380.800 223.824 C 380.800 151.871,380.665 115.164,380.400 115.000 C 380.180 114.864,380.000 114.133,380.000 113.376 C 380.000 112.619,379.820 112.000,379.600 112.000 C 379.380 112.000,379.200 111.471,379.200 110.824 C 379.200 110.177,379.020 109.536,378.800 109.400 C 378.580 109.264,378.400 108.803,378.400 108.376 C 378.400 107.949,378.240 107.600,378.043 107.600 C 377.847 107.600,377.574 107.150,377.436 106.600 C 377.298 106.050,377.008 105.600,376.792 105.600 C 376.577 105.600,376.400 105.330,376.400 105.000 C 376.400 104.670,376.220 104.400,376.000 104.400 C 375.780 104.400,375.600 104.170,375.600 103.888 C 375.600 103.607,375.240 103.117,374.800 102.800 C 374.360 102.483,374.000 101.970,374.000 101.660 C 374.000 100.989,368.932 96.000,368.250 96.000 C 367.990 96.000,367.517 95.640,367.200 95.200 C 366.883 94.760,366.303 94.400,365.912 94.400 C 365.520 94.400,365.200 94.246,365.200 94.057 C 365.200 93.582,361.299 91.600,360.363 91.600 C 359.943 91.600,359.600 91.420,359.600 91.200 C 359.600 90.980,359.060 90.800,358.400 90.800 C 357.740 90.800,357.200 90.620,357.200 90.400 C 357.200 90.180,356.229 90.000,355.043 90.000 C 353.494 90.000,352.821 89.831,352.655 89.400 C 352.453 88.872,347.744 88.800,313.613 88.800 L 274.800 88.800 274.800 78.424 C 274.800 71.937,274.650 67.955,274.400 67.800 C 274.180 67.664,274.000 67.034,274.000 66.400 C 274.000 65.766,273.820 65.136,273.600 65.000 C 273.380 64.864,273.200 64.308,273.200 63.764 C 273.200 63.220,272.930 62.671,272.600 62.545 C 272.270 62.418,272.000 61.974,272.000 61.557 C 272.000 61.141,271.820 60.800,271.600 60.800 C 271.380 60.800,271.200 60.350,271.200 59.800 C 271.200 59.250,271.020 58.800,270.800 58.800 C 270.580 58.800,270.400 58.483,270.400 58.095 C 270.400 57.707,269.950 57.052,269.400 56.639 C 268.850 56.226,268.400 55.657,268.400 55.375 C 268.400 54.667,263.046 49.200,262.352 49.200 C 262.043 49.200,261.452 48.750,261.039 48.200 C 260.626 47.650,260.036 47.200,259.727 47.200 C 259.419 47.200,258.780 46.840,258.308 46.400 C 257.836 45.960,257.134 45.600,256.748 45.600 C 256.363 45.600,255.936 45.420,255.800 45.200 C 255.664 44.980,255.113 44.800,254.576 44.800 C 254.039 44.800,253.600 44.620,253.600 44.400 C 253.600 44.180,252.970 44.000,252.200 44.000 C 251.222 44.000,250.800 43.819,250.800 43.400 C 250.800 42.939,250.289 42.800,248.600 42.800 C 247.390 42.800,246.400 42.620,246.400 42.400 C 246.400 42.136,230.667 42.000,200.000 42.000 C 169.333 42.000,153.600 42.136,153.600 42.400 M244.145 56.600 C 244.280 56.952,244.879 57.200,245.593 57.200 C 246.263 57.200,247.123 57.368,247.505 57.574 C 247.887 57.779,248.785 58.183,249.500 58.471 C 250.215 58.760,250.800 59.131,250.800 59.298 C 250.800 59.464,251.250 59.600,251.800 59.600 C 252.350 59.600,252.800 59.786,252.800 60.013 C 252.800 60.450,255.402 63.200,255.815 63.200 C 256.218 63.200,257.200 64.314,257.200 64.771 C 257.200 65.007,257.380 65.200,257.600 65.200 C 257.820 65.200,258.000 65.560,258.000 66.000 C 258.000 66.440,258.180 66.800,258.400 66.800 C 258.620 66.800,258.800 67.160,258.800 67.600 C 258.800 68.040,258.980 68.400,259.200 68.400 C 259.420 68.400,259.600 68.946,259.600 69.613 C 259.600 70.321,259.849 70.921,260.200 71.055 C 260.708 71.250,260.800 72.628,260.800 80.043 L 260.800 88.800 200.000 88.800 L 139.200 88.800 139.200 80.043 C 139.200 72.628,139.292 71.250,139.800 71.055 C 140.151 70.921,140.400 70.321,140.400 69.613 C 140.400 68.946,140.580 68.400,140.800 68.400 C 141.020 68.400,141.200 68.040,141.200 67.600 C 141.200 67.160,141.380 66.800,141.600 66.800 C 141.820 66.800,142.000 66.440,142.000 66.000 C 142.000 65.560,142.180 65.200,142.400 65.200 C 142.620 65.200,142.800 64.930,142.800 64.600 C 142.800 64.270,142.985 64.000,143.211 64.000 C 143.745 64.000,147.200 60.545,147.200 60.011 C 147.200 59.785,147.650 59.600,148.200 59.600 C 148.750 59.600,149.200 59.464,149.200 59.298 C 149.200 59.131,149.785 58.760,150.500 58.471 C 151.215 58.183,152.113 57.779,152.495 57.574 C 152.877 57.368,153.737 57.200,154.407 57.200 C 155.121 57.200,155.720 56.952,155.855 56.600 C 156.058 56.072,161.334 56.000,200.000 56.000 C 238.666 56.000,243.942 56.072,244.145 56.600 M353.682 103.015 C 354.716 103.463,355.691 103.958,355.848 104.115 C 356.005 104.272,356.463 104.400,356.867 104.400 C 357.270 104.400,357.600 104.536,357.600 104.702 C 357.600 104.869,358.129 105.239,358.775 105.525 C 362.114 107.003,366.750 113.841,367.832 118.881 C 368.610 122.508,368.632 236.192,367.855 239.800 C 366.284 247.102,361.466 252.528,353.800 255.627 C 353.360 255.805,352.280 256.079,351.400 256.236 C 349.551 256.566,247.438 256.930,246.131 256.612 C 245.281 256.405,245.258 256.222,245.131 248.700 C 244.985 240.102,244.716 239.119,242.019 237.301 L 240.682 236.400 200.041 236.401 C 150.059 236.403,155.204 235.064,155.201 248.071 C 155.200 254.329,155.098 255.645,154.571 256.171 C 153.791 256.952,53.788 257.145,49.931 256.374 C 40.652 254.518,34.581 249.071,32.325 240.578 C 31.903 238.987,31.800 226.977,31.800 179.200 L 31.800 119.800 32.760 116.869 C 35.293 109.136,42.000 103.372,49.600 102.395 C 55.965 101.577,351.754 102.180,353.682 103.015 M183.424 114.924 C 180.818 116.522,180.298 117.633,180.020 122.200 L 179.800 125.800 176.600 126.003 C 166.817 126.623,165.734 137.528,175.400 138.085 L 177.400 138.200 177.400 166.800 L 177.400 195.400 175.200 195.612 C 165.833 196.516,166.862 207.022,176.373 207.594 L 179.800 207.800 180.017 211.800 C 180.300 217.008,180.901 218.307,183.549 219.429 C 188.361 221.467,191.666 218.484,192.000 211.800 L 192.200 207.800 193.800 207.800 L 195.400 207.800 195.600 211.800 C 195.884 217.474,197.721 220.000,201.565 220.000 C 205.575 220.000,207.224 217.750,207.569 211.811 L 207.800 207.822 210.800 207.331 C 229.484 204.275,237.570 183.442,225.588 169.232 C 223.652 166.935,223.651 167.017,225.627 164.800 C 237.703 151.254,229.432 129.800,210.800 126.340 L 207.800 125.783 207.598 122.171 C 207.193 114.916,201.952 111.860,197.363 116.203 C 196.261 117.246,195.785 118.865,195.600 122.200 L 195.400 125.800 193.800 125.800 L 192.200 125.800 192.000 122.127 C 191.675 116.154,187.345 112.517,183.424 114.924 M210.600 138.400 C 210.736 138.620,211.209 138.800,211.652 138.800 C 216.438 138.800,220.833 147.639,218.805 153.186 C 216.298 160.045,213.338 161.266,199.600 161.111 L 189.800 161.000 189.693 150.006 C 189.635 143.959,189.674 138.784,189.781 138.506 C 190.027 137.865,210.206 137.763,210.600 138.400 M212.533 174.341 C 221.236 178.287,221.395 190.336,212.800 194.523 C 211.086 195.358,210.496 195.400,200.400 195.400 L 189.800 195.400 189.693 184.806 C 189.634 178.980,189.674 173.985,189.781 173.706 C 189.930 173.317,192.282 173.200,199.996 173.200 L 210.018 173.200 212.533 174.341 M232.704 265.300 L 232.600 282.200 200.000 282.200 L 167.400 282.200 167.296 265.300 L 167.191 248.400 200.000 248.400 L 232.809 248.400 232.704 265.300 M34.538 263.201 C 38.447 265.681,42.099 267.215,46.200 268.102 C 47.545 268.393,65.628 268.611,101.400 268.767 L 154.600 269.000 154.800 279.632 L 155.000 290.264 156.153 291.775 C 158.289 294.573,155.641 294.423,200.571 294.306 C 240.841 294.201,241.150 294.194,242.246 293.375 C 244.999 291.320,244.980 291.408,245.200 279.672 L 245.400 269.000 298.600 268.767 C 334.372 268.611,352.455 268.393,353.800 268.102 C 357.830 267.231,363.556 264.811,366.462 262.752 C 367.046 262.339,367.631 262.000,367.762 262.000 C 368.202 262.000,368.024 327.292,367.579 329.000 C 367.151 330.644,366.628 331.998,365.880 333.400 C 365.645 333.840,365.221 334.650,364.937 335.200 C 363.399 338.180,359.178 341.545,354.600 343.440 L 351.800 344.600 200.000 344.600 L 48.200 344.600 45.400 343.439 C 38.714 340.666,34.357 335.820,32.594 329.197 C 31.943 326.752,31.681 262.000,32.322 262.000 C 32.499 262.000,33.496 262.541,34.538 263.201 " stroke="none" fill="#0d3d64" fill-rule="evenodd"></path><path id="path1" d="M167.600 265.200 L 167.600 281.600 200.000 281.600 L 232.400 281.600 232.400 265.200 L 232.400 248.800 200.000 248.800 L 167.600 248.800 167.600 265.200 M32.883 296.380 C 32.974 322.264,33.110 329.670,33.500 330.060 C 33.775 330.335,34.000 330.974,34.000 331.480 C 34.000 331.986,34.180 332.400,34.400 332.400 C 34.620 332.400,34.800 332.699,34.800 333.064 C 34.800 333.966,39.088 339.600,39.775 339.600 C 39.929 339.600,40.808 340.110,41.728 340.734 C 44.060 342.316,45.963 343.200,47.038 343.200 C 47.541 343.200,48.064 343.380,48.200 343.600 C 48.543 344.155,351.457 344.155,351.800 343.600 C 351.936 343.380,352.477 343.200,353.002 343.200 C 353.528 343.200,354.822 342.726,355.879 342.146 C 356.935 341.566,358.204 340.891,358.697 340.646 C 359.190 340.401,359.595 340.065,359.597 339.900 C 359.599 339.735,359.793 339.600,360.029 339.600 C 360.811 339.600,364.454 335.121,365.339 333.070 C 365.641 332.371,366.138 331.260,366.444 330.600 C 367.149 329.078,367.510 263.200,366.813 263.200 C 366.586 263.200,366.400 263.380,366.400 263.600 C 366.400 263.820,366.040 264.000,365.600 264.000 C 365.160 264.000,364.800 264.142,364.800 264.316 C 364.800 264.489,363.765 265.140,362.500 265.761 C 361.235 266.383,359.887 267.051,359.505 267.246 C 359.123 267.441,358.459 267.600,358.029 267.600 C 357.599 267.600,357.136 267.780,357.000 268.000 C 356.864 268.220,355.989 268.400,355.056 268.400 C 354.123 268.400,353.181 268.579,352.961 268.799 C 352.702 269.058,334.034 269.232,299.381 269.299 L 246.200 269.400 246.000 280.010 C 245.776 291.915,245.842 291.653,242.485 293.974 L 241.000 295.000 200.000 295.000 L 159.000 295.000 157.390 293.906 C 154.292 291.802,154.225 291.524,154.000 279.800 L 153.800 269.400 100.619 269.299 C 65.966 269.232,47.298 269.058,47.039 268.799 C 46.819 268.579,45.866 268.400,44.920 268.400 C 43.974 268.400,43.200 268.220,43.200 268.000 C 43.200 267.780,42.748 267.600,42.195 267.600 C 41.642 267.600,40.877 267.441,40.495 267.246 C 40.113 267.051,38.765 266.383,37.500 265.761 C 36.235 265.140,35.200 264.489,35.200 264.316 C 35.200 264.142,34.840 264.000,34.400 264.000 C 33.960 264.000,33.600 263.820,33.600 263.600 C 33.600 263.380,33.412 263.200,33.183 263.200 C 32.895 263.200,32.802 273.536,32.883 296.380 " stroke="none" fill="#04b1e9" fill-rule="evenodd"></path><path id="path2" d="M46.376 103.757 C 40.178 105.906,35.528 110.566,33.364 116.800 C 32.359 119.694,32.149 238.470,33.143 241.400 C 35.384 248.004,39.613 252.359,46.400 255.054 C 48.171 255.757,150.762 256.489,153.463 255.818 C 154.304 255.609,154.330 255.404,154.463 247.902 C 154.615 239.356,154.772 238.816,157.716 236.716 L 159.000 235.800 200.063 235.800 L 241.126 235.800 242.621 237.010 C 245.386 239.248,245.600 240.060,245.600 248.286 C 245.600 255.522,245.608 255.587,246.500 255.809 C 249.152 256.468,351.808 255.766,353.529 255.076 C 360.505 252.283,364.013 248.732,366.844 241.600 C 367.767 239.276,367.663 119.313,366.736 116.800 C 364.361 110.360,360.154 106.183,353.602 103.761 L 351.003 102.800 200.002 102.823 L 49.000 102.847 46.376 103.757 M189.129 114.624 C 191.441 115.778,192.176 117.346,192.400 121.599 C 192.596 125.333,192.618 125.400,193.600 125.400 C 194.551 125.400,194.613 125.258,194.860 122.486 C 195.427 116.138,197.142 114.000,201.667 114.000 C 205.936 114.000,207.927 116.478,208.096 122.000 L 208.200 125.400 210.200 125.678 C 213.235 126.099,214.957 126.469,215.400 126.795 C 215.620 126.957,216.258 127.199,216.818 127.332 C 220.558 128.222,226.710 133.940,229.018 138.672 C 231.244 143.235,231.083 142.675,231.852 148.512 C 232.481 153.283,229.557 161.426,225.717 165.596 C 224.528 166.888,224.545 167.006,226.207 169.034 C 231.274 175.218,233.306 185.040,230.835 191.400 C 226.979 201.321,219.214 207.484,209.800 208.096 L 208.200 208.200 208.097 212.000 C 207.932 218.088,206.112 220.400,201.485 220.400 C 197.202 220.400,195.229 217.876,194.892 211.965 C 194.678 208.200,194.493 207.790,193.196 208.201 C 192.473 208.431,192.400 208.811,192.400 212.334 C 192.400 216.672,191.591 218.564,189.208 219.796 C 186.808 221.037,182.739 220.388,181.175 218.514 C 179.922 217.014,179.797 216.528,179.600 212.400 L 179.400 208.200 176.000 207.979 C 172.063 207.723,171.382 207.484,169.939 205.850 C 166.057 201.455,169.006 195.200,174.960 195.200 L 176.800 195.200 176.800 167.038 L 176.800 138.875 174.700 138.602 C 165.094 137.354,166.194 126.172,175.979 125.600 L 179.400 125.400 179.511 122.000 C 179.655 117.557,180.384 115.977,182.943 114.555 C 184.191 113.861,187.678 113.901,189.129 114.624 M190.400 149.771 L 190.400 160.800 199.169 160.800 C 210.358 160.800,213.236 160.143,216.059 156.947 C 219.658 152.872,219.458 145.452,215.652 141.867 C 212.682 139.069,212.417 139.015,200.900 138.872 L 190.400 138.741 190.400 149.771 M190.493 184.300 L 190.600 195.000 198.200 195.120 C 209.338 195.296,212.213 194.787,215.201 192.109 C 218.120 189.493,219.513 183.625,217.911 180.695 C 214.456 174.375,212.470 173.610,199.493 173.604 L 190.387 173.600 190.493 184.300 " stroke="none" fill="#fbdb44" fill-rule="evenodd"></path><path id="path3" d="M49.600 102.395 C 42.000 103.372,35.293 109.136,32.760 116.869 L 31.800 119.800 31.800 179.200 C 31.800 226.977,31.903 238.987,32.325 240.578 C 34.581 249.071,40.652 254.518,49.931 256.374 C 53.788 257.145,153.791 256.952,154.571 256.171 C 155.098 255.645,155.200 254.329,155.201 248.071 C 155.204 235.064,150.059 236.403,200.041 236.401 L 240.682 236.400 242.019 237.301 C 244.716 239.119,244.985 240.102,245.131 248.700 C 245.258 256.222,245.281 256.405,246.131 256.612 C 247.438 256.930,349.551 256.566,351.400 256.236 C 352.280 256.079,353.360 255.805,353.800 255.627 C 361.466 252.528,366.284 247.102,367.855 239.800 C 368.632 236.192,368.610 122.508,367.832 118.881 C 366.750 113.841,362.114 107.003,358.775 105.525 C 358.129 105.239,357.600 104.869,357.600 104.702 C 357.600 104.536,357.270 104.400,356.867 104.400 C 356.463 104.400,356.005 104.272,355.848 104.115 C 355.691 103.958,354.716 103.463,353.682 103.015 C 351.754 102.180,55.965 101.577,49.600 102.395 M353.602 103.761 C 360.154 106.183,364.361 110.360,366.736 116.800 C 367.663 119.313,367.767 239.276,366.844 241.600 C 364.013 248.732,360.505 252.283,353.529 255.076 C 351.808 255.766,249.152 256.468,246.500 255.809 C 245.608 255.587,245.600 255.522,245.600 248.286 C 245.600 240.060,245.386 239.248,242.621 237.010 L 241.126 235.800 200.063 235.800 L 159.000 235.800 157.716 236.716 C 154.772 238.816,154.615 239.356,154.463 247.902 C 154.330 255.404,154.304 255.609,153.463 255.818 C 150.762 256.489,48.171 255.757,46.400 255.054 C 39.613 252.359,35.384 248.004,33.143 241.400 C 32.149 238.470,32.359 119.694,33.364 116.800 C 35.528 110.566,40.178 105.906,46.376 103.757 L 49.000 102.847 200.002 102.823 L 351.003 102.800 353.602 103.761 M182.943 114.555 C 180.384 115.977,179.655 117.557,179.511 122.000 L 179.400 125.400 175.979 125.600 C 166.194 126.172,165.094 137.354,174.700 138.602 L 176.800 138.875 176.800 167.038 L 176.800 195.200 174.960 195.200 C 169.006 195.200,166.057 201.455,169.939 205.850 C 171.382 207.484,172.063 207.723,176.000 207.979 L 179.400 208.200 179.600 212.400 C 179.797 216.528,179.922 217.014,181.175 218.514 C 182.739 220.388,186.808 221.037,189.208 219.796 C 191.591 218.564,192.400 216.672,192.400 212.334 C 192.400 208.811,192.473 208.431,193.196 208.201 C 194.493 207.790,194.678 208.200,194.892 211.965 C 195.229 217.876,197.202 220.400,201.485 220.400 C 206.112 220.400,207.932 218.088,208.097 212.000 L 208.200 208.200 209.800 208.096 C 217.936 207.567,225.804 202.201,229.297 194.800 C 231.241 190.681,231.334 190.350,231.864 185.656 C 232.396 180.953,229.853 173.484,226.207 169.034 C 224.545 167.006,224.528 166.888,225.717 165.596 C 229.557 161.426,232.481 153.283,231.852 148.512 C 231.083 142.675,231.244 143.235,229.018 138.672 C 226.710 133.940,220.558 128.222,216.818 127.332 C 216.258 127.199,215.620 126.957,215.400 126.795 C 214.957 126.469,213.235 126.099,210.200 125.678 L 208.200 125.400 208.096 122.000 C 207.927 116.478,205.936 114.000,201.667 114.000 C 197.142 114.000,195.427 116.138,194.860 122.486 C 194.613 125.258,194.551 125.400,193.600 125.400 C 192.618 125.400,192.596 125.333,192.400 121.599 C 192.069 115.311,187.588 111.973,182.943 114.555 M188.804 115.300 C 191.261 116.972,191.780 118.080,192.000 122.127 L 192.200 125.800 193.800 125.800 L 195.400 125.800 195.600 122.200 C 195.785 118.865,196.261 117.246,197.363 116.203 C 201.952 111.860,207.193 114.916,207.598 122.171 L 207.800 125.783 210.800 126.340 C 229.432 129.800,237.703 151.254,225.627 164.800 C 223.651 167.017,223.652 166.935,225.588 169.232 C 235.164 180.588,231.893 197.753,218.800 204.860 C 216.487 206.115,214.521 206.722,210.800 207.331 L 207.800 207.822 207.569 211.811 C 207.224 217.750,205.575 220.000,201.565 220.000 C 197.721 220.000,195.884 217.474,195.600 211.800 L 195.400 207.800 193.800 207.800 L 192.200 207.800 192.000 211.800 C 191.666 218.484,188.361 221.467,183.549 219.429 C 180.901 218.307,180.300 217.008,180.017 211.800 L 179.800 207.800 176.373 207.594 C 166.862 207.022,165.833 196.516,175.200 195.612 L 177.400 195.400 177.400 166.800 L 177.400 138.200 175.400 138.085 C 171.175 137.842,169.067 135.819,169.067 132.008 C 169.067 128.016,171.160 126.348,176.600 126.003 L 179.800 125.800 180.020 122.200 C 180.429 115.485,184.443 112.332,188.804 115.300 M189.781 138.506 C 189.674 138.784,189.635 143.959,189.693 150.006 L 189.800 161.000 199.600 161.111 C 213.338 161.266,216.298 160.045,218.805 153.186 C 220.833 147.639,216.438 138.800,211.652 138.800 C 211.209 138.800,210.736 138.620,210.600 138.400 C 210.206 137.763,190.027 137.865,189.781 138.506 M213.000 139.939 C 221.912 145.156,220.051 158.104,210.069 160.326 C 208.783 160.612,204.466 160.800,199.169 160.800 L 190.400 160.800 190.400 149.771 L 190.400 138.741 200.900 138.872 C 211.070 138.998,211.450 139.032,213.000 139.939 M189.781 173.706 C 189.674 173.985,189.634 178.980,189.693 184.806 L 189.800 195.400 200.400 195.400 C 210.496 195.400,211.086 195.358,212.800 194.523 C 221.395 190.336,221.236 178.287,212.533 174.341 L 210.018 173.200 199.996 173.200 C 192.282 173.200,189.930 173.317,189.781 173.706 M210.590 174.212 C 213.990 175.243,215.814 176.859,217.911 180.695 C 219.513 183.625,218.120 189.493,215.201 192.109 C 212.213 194.787,209.338 195.296,198.200 195.120 L 190.600 195.000 190.493 184.300 L 190.387 173.600 199.493 173.604 C 206.457 173.608,209.068 173.751,210.590 174.212 " stroke="none" fill="#8c8c54" fill-rule="evenodd"></path><path id="path4" d="M167.296 265.300 L 167.400 282.200 200.000 282.200 L 232.600 282.200 232.704 265.300 L 232.809 248.400 200.000 248.400 L 167.191 248.400 167.296 265.300 M232.400 265.200 L 232.400 281.600 200.000 281.600 L 167.600 281.600 167.600 265.200 L 167.600 248.800 200.000 248.800 L 232.400 248.800 232.400 265.200 M32.005 294.500 C 32.009 321.729,32.104 327.356,32.594 329.197 C 34.357 335.820,38.714 340.666,45.400 343.439 L 48.200 344.600 200.000 344.600 L 351.800 344.600 354.600 343.440 C 359.178 341.545,363.399 338.180,364.937 335.200 C 365.221 334.650,365.645 333.840,365.880 333.400 C 366.628 331.998,367.151 330.644,367.579 329.000 C 368.024 327.292,368.202 262.000,367.762 262.000 C 367.631 262.000,367.046 262.339,366.462 262.752 C 363.556 264.811,357.830 267.231,353.800 268.102 C 352.455 268.393,334.372 268.611,298.600 268.767 L 245.400 269.000 245.200 279.672 C 244.980 291.408,244.999 291.320,242.246 293.375 C 241.150 294.194,240.841 294.201,200.571 294.306 C 155.641 294.423,158.289 294.573,156.153 291.775 L 155.000 290.264 154.800 279.632 L 154.600 269.000 101.400 268.767 C 65.628 268.611,47.545 268.393,46.200 268.102 C 42.099 267.215,38.447 265.681,34.538 263.201 C 33.496 262.541,32.499 262.000,32.322 262.000 C 32.145 262.000,32.002 276.625,32.005 294.500 M33.600 263.600 C 33.600 263.820,33.960 264.000,34.400 264.000 C 34.840 264.000,35.200 264.142,35.200 264.316 C 35.200 264.489,36.235 265.140,37.500 265.761 C 38.765 266.383,40.113 267.051,40.495 267.246 C 40.877 267.441,41.642 267.600,42.195 267.600 C 42.748 267.600,43.200 267.780,43.200 268.000 C 43.200 268.220,43.974 268.400,44.920 268.400 C 45.866 268.400,46.819 268.579,47.039 268.799 C 47.298 269.058,65.966 269.232,100.619 269.299 L 153.800 269.400 154.000 279.800 C 154.225 291.524,154.292 291.802,157.390 293.906 L 159.000 295.000 200.000 295.000 L 241.000 295.000 242.485 293.974 C 245.842 291.653,245.776 291.915,246.000 280.010 L 246.200 269.400 299.381 269.299 C 334.034 269.232,352.702 269.058,352.961 268.799 C 353.181 268.579,354.123 268.400,355.056 268.400 C 355.989 268.400,356.864 268.220,357.000 268.000 C 357.136 267.780,357.599 267.600,358.029 267.600 C 358.459 267.600,359.123 267.441,359.505 267.246 C 359.887 267.051,361.235 266.383,362.500 265.761 C 363.765 265.140,364.800 264.489,364.800 264.316 C 364.800 264.142,365.160 264.000,365.600 264.000 C 366.040 264.000,366.400 263.820,366.400 263.600 C 366.400 263.380,366.586 263.200,366.813 263.200 C 367.510 263.200,367.149 329.078,366.444 330.600 C 366.138 331.260,365.641 332.371,365.339 333.070 C 364.454 335.121,360.811 339.600,360.029 339.600 C 359.793 339.600,359.599 339.735,359.597 339.900 C 359.595 340.065,359.190 340.401,358.697 340.646 C 358.204 340.891,356.935 341.566,355.879 342.146 C 354.822 342.726,353.528 343.200,353.002 343.200 C 352.477 343.200,351.936 343.380,351.800 343.600 C 351.457 344.155,48.543 344.155,48.200 343.600 C 48.064 343.380,47.541 343.200,47.038 343.200 C 45.963 343.200,44.060 342.316,41.728 340.734 C 40.808 340.110,39.929 339.600,39.775 339.600 C 39.088 339.600,34.800 333.966,34.800 333.064 C 34.800 332.699,34.620 332.400,34.400 332.400 C 34.180 332.400,34.000 331.986,34.000 331.480 C 34.000 330.974,33.775 330.335,33.500 330.060 C 32.841 329.401,32.527 263.200,33.183 263.200 C 33.412 263.200,33.600 263.380,33.600 263.600 " stroke="none" fill="#0494cc" fill-rule="evenodd"></path></g></svg>