<svg id="svg" version="1.1" xmlns="http://www.w3.org/2000/svg" xmlns:xlink="http://www.w3.org/1999/xlink" width="400" height="400" viewBox="0, 0, 400,400"><g id="svgg"><path id="path0" d="M114.200 159.200 C 114.064 159.420,113.265 159.600,112.425 159.600 C 111.556 159.600,110.684 159.858,110.400 160.200 C 110.126 160.530,109.384 160.800,108.751 160.800 C 108.118 160.800,107.600 160.980,107.600 161.200 C 107.600 161.420,107.240 161.600,106.800 161.600 C 106.360 161.600,106.000 161.780,106.000 162.000 C 106.000 162.220,105.812 162.400,105.583 162.400 C 105.193 162.400,104.751 162.705,103.434 163.881 C 103.138 164.145,102.784 164.250,102.648 164.114 C 102.511 163.978,102.400 164.123,102.400 164.436 C 102.400 164.749,101.818 165.262,101.107 165.577 C 100.396 165.892,99.395 166.569,98.881 167.082 C 98.368 167.595,97.794 167.920,97.606 167.804 C 97.418 167.688,96.909 168.044,96.474 168.596 C 96.040 169.148,95.563 169.600,95.415 169.600 C 95.266 169.600,94.359 170.140,93.400 170.800 C 92.441 171.460,91.463 172.000,91.228 172.000 C 90.993 172.000,90.800 172.193,90.800 172.429 C 90.800 173.106,89.728 174.000,88.917 174.000 C 88.510 174.000,87.917 174.360,87.600 174.800 C 87.283 175.240,86.785 175.600,86.493 175.600 C 86.201 175.600,85.545 176.050,85.035 176.600 C 84.525 177.150,83.854 177.600,83.542 177.600 C 83.231 177.600,82.717 177.960,82.400 178.400 C 82.083 178.840,81.593 179.200,81.312 179.200 C 81.030 179.200,80.800 179.380,80.800 179.600 C 80.800 179.820,80.440 180.000,80.000 180.000 C 79.542 180.000,79.200 180.267,79.200 180.624 C 79.200 180.967,79.020 181.136,78.800 181.000 C 78.580 180.864,78.400 181.033,78.400 181.376 C 78.400 181.719,78.085 182.000,77.700 182.000 C 77.315 182.001,76.483 182.446,75.851 182.989 C 75.219 183.533,74.364 184.084,73.951 184.216 C 73.538 184.347,73.200 184.678,73.200 184.952 C 73.200 185.226,72.570 185.698,71.800 186.000 C 71.030 186.302,70.400 186.667,70.400 186.812 C 70.400 186.956,69.590 187.491,68.600 188.000 C 67.610 188.509,66.800 189.167,66.800 189.463 C 66.800 189.758,66.440 190.000,66.000 190.000 C 65.560 190.000,65.200 190.180,65.200 190.400 C 65.200 190.620,64.930 190.800,64.600 190.800 C 64.270 190.800,64.000 190.950,64.000 191.132 C 64.000 191.315,63.505 191.720,62.900 192.032 C 62.295 192.345,61.581 192.780,61.314 193.000 C 61.047 193.220,60.559 193.625,60.231 193.900 C 59.902 194.175,59.529 194.400,59.400 194.400 C 59.272 194.400,58.780 194.760,58.308 195.200 C 57.836 195.640,57.213 196.000,56.925 196.000 C 56.636 196.000,56.400 196.180,56.400 196.400 C 56.400 196.620,56.149 196.800,55.843 196.800 C 55.536 196.800,55.182 197.070,55.055 197.400 C 54.929 197.730,54.589 198.000,54.301 198.000 C 54.013 198.000,53.517 198.360,53.200 198.800 C 52.883 199.240,52.449 199.600,52.236 199.600 C 51.556 199.600,49.206 201.382,49.203 201.900 C 49.201 202.175,48.739 202.400,48.176 202.400 C 47.596 202.400,47.260 202.573,47.400 202.800 C 47.536 203.020,47.367 203.200,47.024 203.200 C 46.681 203.200,46.400 203.380,46.400 203.600 C 46.400 203.820,46.164 204.000,45.875 204.000 C 45.587 204.000,44.964 204.360,44.492 204.800 C 44.020 205.240,43.454 205.600,43.235 205.600 C 43.016 205.600,42.386 206.050,41.836 206.600 C 41.286 207.150,40.558 207.600,40.218 207.600 C 39.878 207.600,39.600 207.780,39.600 208.000 C 39.600 208.220,39.373 208.400,39.095 208.400 C 38.817 208.400,38.254 208.847,37.845 209.392 C 37.435 209.938,36.941 210.287,36.747 210.167 C 36.553 210.047,36.286 210.231,36.154 210.575 C 36.022 210.919,35.664 211.200,35.357 211.200 C 35.051 211.200,34.800 211.380,34.800 211.600 C 34.800 211.820,34.480 212.000,34.088 212.000 C 33.697 212.000,33.117 212.360,32.800 212.800 C 32.483 213.240,32.038 213.603,31.812 213.606 C 31.585 213.610,30.799 214.143,30.063 214.791 C 29.328 215.439,28.383 216.078,27.963 216.212 C 27.544 216.345,27.200 216.622,27.200 216.827 C 27.200 217.032,27.012 217.200,26.783 217.200 C 26.347 217.200,25.804 217.600,24.199 219.100 C 23.670 219.595,22.908 220.000,22.506 220.000 C 22.105 220.000,21.517 220.360,21.200 220.800 C 20.883 221.240,20.387 221.600,20.099 221.600 C 19.811 221.600,19.472 221.869,19.346 222.198 C 19.219 222.526,18.954 222.695,18.755 222.572 C 18.557 222.450,18.289 222.624,18.160 222.959 C 18.031 223.295,17.577 223.680,17.150 223.816 C 16.723 223.951,15.938 224.498,15.405 225.031 C 14.872 225.564,14.171 226.000,13.847 226.000 C 13.523 226.000,12.904 226.450,12.471 227.000 C 12.039 227.550,11.488 228.000,11.247 228.000 C 9.494 228.000,9.200 229.135,9.200 235.914 L 9.200 242.451 10.700 241.605 C 11.525 241.140,14.248 239.283,16.751 237.480 C 19.254 235.676,21.637 234.004,22.048 233.764 C 22.459 233.525,23.111 233.057,23.497 232.725 C 24.500 231.862,29.555 228.400,29.811 228.400 C 29.929 228.400,32.675 226.555,35.913 224.299 C 39.151 222.043,43.060 219.330,44.600 218.270 C 46.140 217.209,48.660 215.447,50.200 214.353 C 52.923 212.418,56.004 210.277,60.782 207.000 C 69.503 201.019,95.437 183.014,95.600 182.828 C 95.710 182.703,96.880 181.882,98.200 181.005 C 99.520 180.128,100.690 179.307,100.800 179.179 C 100.910 179.052,102.080 178.245,103.400 177.387 C 104.720 176.530,105.890 175.724,106.000 175.596 C 106.483 175.038,111.546 171.705,113.000 170.989 C 114.503 170.248,115.594 170.194,130.960 170.105 L 147.321 170.010 147.997 167.905 C 148.369 166.747,148.903 164.990,149.183 164.000 C 149.462 163.010,149.870 161.816,150.088 161.348 C 151.308 158.724,151.839 158.800,132.197 158.800 C 120.795 158.800,114.359 158.943,114.200 159.200 M214.000 220.797 C 213.450 220.981,211.920 221.445,210.600 221.828 C 209.280 222.212,208.029 222.677,207.820 222.863 C 207.611 223.048,207.207 223.200,206.923 223.200 C 206.503 223.200,198.057 228.348,196.600 229.493 C 196.380 229.666,193.860 231.328,191.000 233.186 C 188.140 235.045,180.850 239.823,174.800 243.804 C 168.750 247.784,161.460 252.553,158.600 254.401 C 155.740 256.249,152.410 258.490,151.200 259.381 C 149.990 260.271,148.505 261.255,147.900 261.568 C 147.295 261.880,146.800 262.285,146.800 262.468 C 146.800 262.650,146.607 262.800,146.372 262.800 C 146.136 262.800,144.808 263.610,143.421 264.600 C 142.034 265.590,140.755 266.400,140.581 266.400 C 140.406 266.400,139.933 266.699,139.529 267.064 C 139.125 267.430,138.450 267.925,138.028 268.164 C 137.607 268.404,134.377 270.490,130.851 272.800 C 120.541 279.555,120.473 279.582,117.989 277.900 C 115.696 276.347,114.591 273.499,115.581 271.695 C 115.902 271.110,116.791 268.303,119.222 260.200 C 119.420 259.540,119.934 257.920,120.363 256.600 C 120.792 255.280,121.528 252.940,121.998 251.400 C 122.468 249.860,122.954 248.353,123.077 248.050 C 123.554 246.875,122.379 247.933,119.801 251.000 C 118.321 252.760,116.719 254.650,116.241 255.200 C 112.048 260.026,107.446 265.983,106.780 267.444 C 102.377 277.110,109.748 288.420,120.440 288.404 C 124.970 288.397,125.358 288.214,137.000 280.586 C 142.060 277.271,148.804 272.857,151.986 270.779 C 155.169 268.701,161.329 264.660,165.675 261.800 C 179.804 252.502,190.001 245.813,190.981 245.200 C 191.508 244.870,196.264 241.766,201.549 238.303 C 214.737 229.660,218.336 228.576,225.780 231.006 C 240.222 235.720,244.714 253.046,234.267 263.739 C 232.910 265.128,230.093 267.780,228.006 269.632 C 225.920 271.484,221.866 275.160,218.997 277.800 C 212.043 284.200,205.119 290.546,202.413 293.000 C 201.199 294.100,199.935 295.270,199.603 295.600 C 199.272 295.930,197.110 297.908,194.800 299.995 C 192.490 302.082,189.340 304.986,187.800 306.448 C 186.260 307.910,183.994 309.982,182.764 311.053 C 180.674 312.873,176.557 316.644,166.400 326.046 C 164.090 328.184,161.750 330.319,161.200 330.792 C 160.650 331.264,159.480 332.324,158.600 333.148 C 157.720 333.972,153.400 337.948,149.000 341.983 C 144.600 346.019,139.110 351.059,136.800 353.183 C 134.490 355.307,131.700 357.844,130.600 358.821 C 129.500 359.797,127.340 361.785,125.800 363.237 C 114.783 373.629,110.208 376.561,101.600 378.749 C 96.825 379.962,95.950 379.985,51.500 380.060 L 9.200 380.132 9.200 385.466 L 9.200 390.800 54.026 390.800 C 79.327 390.800,99.146 390.645,99.526 390.445 C 99.897 390.250,101.092 390.003,102.183 389.897 C 103.273 389.791,104.233 389.500,104.316 389.252 C 104.399 389.003,105.172 388.800,106.033 388.800 C 106.895 388.800,107.600 388.620,107.600 388.400 C 107.600 388.180,108.140 388.000,108.800 388.000 C 109.460 388.000,110.000 387.820,110.000 387.600 C 110.000 387.380,110.435 387.200,110.968 387.200 C 111.990 387.200,114.393 386.009,114.397 385.500 C 114.399 385.335,114.850 385.200,115.400 385.200 C 115.950 385.200,116.400 385.020,116.400 384.800 C 116.400 384.580,116.760 384.400,117.200 384.400 C 117.640 384.400,118.000 384.220,118.000 384.000 C 118.000 383.780,118.270 383.600,118.600 383.600 C 118.930 383.600,119.200 383.464,119.200 383.298 C 119.200 383.131,119.740 382.756,120.400 382.464 C 121.060 382.172,121.600 381.678,121.600 381.366 C 121.600 381.055,121.868 380.800,122.195 380.800 C 122.523 380.800,123.171 380.485,123.636 380.100 C 125.661 378.421,126.800 377.248,126.800 376.840 C 126.800 376.598,126.993 376.400,127.229 376.400 C 127.464 376.400,127.888 376.175,128.169 375.900 C 128.451 375.625,129.555 374.680,130.621 373.800 C 131.688 372.920,134.140 370.625,136.070 368.700 C 138.000 366.775,139.743 365.200,139.944 365.200 C 140.145 365.200,142.159 363.400,144.420 361.200 C 146.681 359.000,148.681 357.200,148.865 357.200 C 149.049 357.200,149.200 359.000,149.200 361.200 C 149.200 363.600,149.360 365.200,149.600 365.200 C 149.820 365.200,150.000 366.089,150.000 367.176 C 150.000 368.263,150.180 369.264,150.400 369.400 C 150.620 369.536,150.800 369.936,150.800 370.289 C 150.800 371.170,152.079 374.000,152.477 374.000 C 152.655 374.000,152.800 374.360,152.800 374.800 C 152.800 375.240,152.980 375.600,153.200 375.600 C 153.420 375.600,153.600 375.971,153.600 376.424 C 153.600 376.877,153.780 377.136,154.000 377.000 C 154.220 376.864,154.400 377.081,154.400 377.481 C 154.400 377.882,154.850 378.548,155.400 378.961 C 155.950 379.374,156.400 379.874,156.400 380.072 C 156.400 380.540,159.430 383.600,159.893 383.600 C 160.089 383.600,160.598 383.920,161.025 384.312 C 162.716 385.865,164.709 387.200,165.338 387.200 C 165.702 387.200,166.000 387.380,166.000 387.600 C 166.000 387.820,166.360 388.000,166.800 388.000 C 167.240 388.000,167.600 388.180,167.600 388.400 C 167.600 388.620,168.118 388.800,168.751 388.800 C 169.384 388.800,170.110 389.051,170.365 389.358 C 171.272 390.451,185.173 391.387,186.139 390.421 C 186.371 390.189,187.132 390.000,187.831 390.000 C 188.530 390.000,189.326 389.730,189.600 389.400 C 189.874 389.070,190.616 388.800,191.249 388.800 C 191.882 388.800,192.400 388.620,192.400 388.400 C 192.400 388.180,192.749 388.000,193.176 388.000 C 193.603 388.000,194.064 387.820,194.200 387.600 C 194.336 387.380,194.714 387.200,195.041 387.200 C 195.368 387.200,196.120 386.750,196.713 386.200 C 197.307 385.650,197.943 385.200,198.127 385.200 C 198.312 385.200,199.154 384.480,200.000 383.600 C 200.846 382.720,201.731 382.000,201.969 382.000 C 202.206 382.000,202.400 381.847,202.400 381.659 C 202.400 381.472,202.940 380.754,203.600 380.063 C 204.260 379.372,204.800 378.626,204.800 378.404 C 204.800 378.182,204.980 378.000,205.200 378.000 C 205.420 378.000,205.600 377.640,205.600 377.200 C 205.600 376.756,205.867 376.400,206.200 376.400 C 206.530 376.400,206.800 376.130,206.800 375.800 C 206.800 375.470,206.980 375.200,207.200 375.200 C 207.420 375.200,207.600 374.917,207.600 374.571 C 207.600 373.210,208.704 372.680,209.669 373.578 C 210.154 374.030,210.689 374.400,210.857 374.400 C 211.026 374.400,211.614 374.850,212.164 375.400 C 212.714 375.950,213.449 376.400,213.799 376.400 C 214.393 376.400,214.794 376.652,216.185 377.900 C 216.492 378.175,217.116 378.400,217.571 378.400 C 218.027 378.400,218.400 378.580,218.400 378.800 C 218.400 379.020,218.929 379.200,219.576 379.200 C 220.223 379.200,220.864 379.380,221.000 379.600 C 221.136 379.820,222.137 380.000,223.224 380.000 C 224.311 380.000,225.200 380.180,225.200 380.400 C 225.200 380.644,227.067 380.800,230.000 380.800 C 232.933 380.800,234.800 380.644,234.800 380.400 C 234.800 380.180,235.462 380.000,236.272 380.000 C 237.709 380.000,239.902 379.455,241.295 378.751 C 241.677 378.558,242.352 378.400,242.795 378.400 C 243.238 378.400,243.600 378.220,243.600 378.000 C 243.600 377.780,243.862 377.600,244.182 377.600 C 244.502 377.600,245.214 377.150,245.764 376.600 C 246.314 376.050,247.007 375.600,247.304 375.600 C 248.296 375.600,254.400 369.841,254.400 368.905 C 254.400 368.724,254.760 368.317,255.200 368.000 C 255.640 367.683,256.000 367.122,256.000 366.754 C 256.000 366.387,256.270 365.982,256.600 365.855 C 256.930 365.729,257.200 365.259,257.200 364.813 C 257.200 364.366,257.380 364.000,257.600 364.000 C 257.820 364.000,258.000 363.640,258.000 363.200 C 258.000 362.760,258.160 362.400,258.355 362.400 C 258.694 362.400,258.840 361.917,259.440 358.800 C 259.588 358.030,259.955 357.045,260.255 356.611 C 260.555 356.177,260.800 355.502,260.800 355.111 C 260.800 354.174,261.286 354.210,262.000 355.200 C 262.317 355.640,262.897 356.000,263.288 356.000 C 263.680 356.000,264.000 356.172,264.000 356.381 C 264.000 356.726,265.146 357.329,268.000 358.487 C 268.550 358.711,269.313 359.052,269.695 359.247 C 270.077 359.441,270.944 359.600,271.623 359.600 C 272.302 359.600,273.139 359.882,273.484 360.227 C 274.304 361.047,286.825 360.930,287.101 360.100 C 287.192 359.825,287.882 359.600,288.633 359.600 C 289.385 359.600,290.000 359.420,290.000 359.200 C 290.000 358.980,290.540 358.800,291.200 358.800 C 291.860 358.800,292.400 358.620,292.400 358.400 C 292.400 358.180,292.760 358.000,293.200 358.000 C 293.640 358.000,294.000 357.820,294.000 357.600 C 294.000 357.380,294.366 357.200,294.813 357.200 C 295.259 357.200,295.729 356.930,295.855 356.600 C 295.982 356.270,296.426 356.000,296.843 356.000 C 297.259 356.000,297.600 355.820,297.600 355.600 C 297.600 355.380,297.786 355.200,298.013 355.200 C 298.363 355.200,299.154 354.534,301.644 352.143 C 303.588 350.278,305.600 347.731,305.600 347.136 C 305.600 346.731,305.827 346.400,306.104 346.400 C 306.771 346.400,307.345 345.411,308.020 343.100 C 308.325 342.055,308.715 341.200,308.887 341.200 C 309.059 341.200,309.200 340.570,309.200 339.800 C 309.200 339.030,309.380 338.400,309.600 338.400 C 309.820 338.400,310.000 337.429,310.000 336.243 C 310.000 334.694,310.169 334.021,310.600 333.855 C 311.129 333.652,311.200 327.538,311.200 282.164 L 311.200 230.702 310.311 231.292 C 309.823 231.617,309.085 232.494,308.673 233.241 C 304.410 240.973,299.769 249.026,299.515 249.133 C 299.342 249.207,299.200 249.414,299.200 249.595 C 299.200 249.775,298.548 251.065,297.751 252.462 C 296.954 253.858,295.848 255.810,295.293 256.800 C 294.739 257.790,290.255 265.762,285.328 274.516 C 272.960 296.492,275.136 291.490,265.978 319.000 C 264.660 322.960,263.428 326.560,263.240 327.000 C 263.052 327.440,262.397 329.330,261.785 331.200 C 261.173 333.070,260.534 334.983,260.365 335.450 C 260.041 336.348,257.608 335.665,246.000 331.420 C 244.350 330.817,242.460 330.182,241.800 330.010 C 241.140 329.838,237.630 328.680,234.000 327.437 C 222.729 323.577,214.301 320.753,211.800 319.999 C 207.211 318.615,195.474 314.434,195.084 314.044 C 194.827 313.787,194.888 313.469,195.258 313.126 C 195.570 312.837,196.817 311.700,198.029 310.600 C 201.444 307.503,208.444 301.090,209.383 300.200 C 209.846 299.760,211.120 298.606,212.213 297.636 C 213.306 296.666,215.280 294.865,216.600 293.634 C 217.920 292.403,221.070 289.507,223.600 287.198 C 226.130 284.890,229.190 282.083,230.400 280.960 C 235.092 276.607,238.638 273.448,239.741 272.642 C 248.227 266.433,252.457 250.046,248.217 239.800 C 247.943 239.140,247.477 237.970,247.179 237.200 C 245.664 233.274,237.742 224.800,235.588 224.800 C 235.375 224.800,235.200 224.664,235.200 224.498 C 235.200 223.968,230.643 222.108,227.000 221.150 C 224.023 220.367,215.944 220.148,214.000 220.797 M299.199 333.600 C 298.758 335.793,298.585 336.325,297.574 338.600 C 296.540 340.926,293.826 344.084,291.426 345.750 C 287.150 348.721,285.258 349.329,280.259 349.340 C 274.815 349.352,272.327 348.554,268.092 345.436 C 263.794 342.272,259.927 335.148,261.549 333.380 C 261.740 333.171,262.219 331.920,262.611 330.600 C 263.004 329.280,263.477 328.029,263.663 327.820 C 263.848 327.611,264.000 327.024,264.000 326.515 C 264.000 326.006,264.173 325.277,264.385 324.895 C 265.001 323.782,267.600 316.169,267.600 315.477 C 267.600 315.131,267.780 314.736,268.000 314.600 C 268.220 314.464,268.400 313.924,268.400 313.400 C 268.400 312.876,268.580 312.336,268.800 312.200 C 269.020 312.064,269.200 311.601,269.200 311.171 C 269.200 310.741,269.368 310.077,269.574 309.695 C 269.780 309.313,270.422 307.560,271.000 305.800 C 271.579 304.040,272.196 302.240,272.371 301.800 C 272.546 301.360,272.905 300.280,273.169 299.400 C 274.217 295.905,275.827 292.388,278.542 287.662 C 279.344 286.265,280.000 284.960,280.000 284.762 C 280.000 284.563,280.136 284.400,280.302 284.400 C 280.469 284.400,280.862 283.815,281.176 283.100 C 281.490 282.385,282.305 280.900,282.986 279.800 C 283.667 278.700,284.482 277.260,284.798 276.600 C 285.113 275.940,285.665 274.950,286.023 274.400 C 286.382 273.850,287.306 272.230,288.077 270.800 C 289.347 268.443,290.067 267.148,292.522 262.800 C 293.718 260.682,295.275 257.897,295.764 257.000 C 296.004 256.560,296.290 256.110,296.401 256.000 C 296.511 255.890,296.868 255.260,297.194 254.600 C 297.520 253.940,298.149 252.825,298.593 252.121 L 299.400 250.843 299.521 291.121 C 299.606 319.436,299.511 332.053,299.199 333.600 M199.459 316.400 C 199.536 316.400,199.596 326.705,199.590 339.300 C 199.581 360.813,199.435 364.281,198.444 366.600 C 192.389 380.755,176.435 384.075,165.800 373.393 C 161.554 369.128,160.400 364.995,160.400 354.056 C 160.400 344.833,160.152 345.750,163.442 342.800 C 166.757 339.827,174.629 332.610,175.200 332.020 C 175.530 331.679,176.700 330.602,177.800 329.628 C 178.900 328.653,181.681 326.133,183.980 324.028 C 186.278 321.922,189.248 319.210,190.580 318.000 C 191.911 316.790,193.255 315.512,193.567 315.160 C 194.084 314.576,194.360 314.602,196.725 315.460 C 198.151 315.977,199.381 316.400,199.459 316.400 M213.400 321.046 C 214.500 321.404,215.713 321.855,216.095 322.048 C 216.477 322.242,217.141 322.400,217.571 322.400 C 218.001 322.400,218.464 322.580,218.600 322.800 C 218.736 323.020,219.199 323.200,219.629 323.200 C 220.059 323.200,220.723 323.367,221.105 323.571 C 221.487 323.775,223.330 324.438,225.200 325.045 C 227.070 325.651,228.771 326.294,228.980 326.474 C 229.189 326.653,229.828 326.800,230.400 326.800 C 230.972 326.800,231.611 326.946,231.820 327.124 C 232.029 327.302,234.360 328.133,237.000 328.970 C 239.640 329.808,242.160 330.643,242.600 330.826 C 243.040 331.009,244.630 331.567,246.133 332.067 C 247.727 332.596,249.035 333.291,249.272 333.735 C 249.860 334.833,249.477 353.783,248.830 355.600 C 248.274 357.164,246.722 360.491,246.405 360.800 C 246.292 360.910,245.529 361.835,244.709 362.856 C 243.889 363.877,242.359 365.268,241.309 365.946 C 240.259 366.624,239.220 367.323,239.000 367.500 C 238.780 367.676,237.790 368.062,236.800 368.357 C 235.810 368.652,234.478 369.052,233.840 369.247 C 225.949 371.651,215.671 366.036,211.793 357.200 L 210.651 354.600 210.485 338.093 C 210.394 329.015,210.422 321.320,210.547 320.993 C 210.832 320.250,210.958 320.252,213.400 321.046 " stroke="none" fill="#bc9d4d" fill-rule="evenodd"></path><path id="path1" d="M249.200 10.282 C 249.200 10.787,249.020 11.200,248.800 11.200 C 248.580 11.200,248.400 11.560,248.400 12.000 C 248.400 12.444,248.133 12.800,247.800 12.800 C 247.470 12.800,247.200 13.126,247.200 13.525 C 247.200 13.923,246.840 14.636,246.400 15.108 C 245.960 15.580,245.600 16.244,245.600 16.583 C 245.600 16.922,245.420 17.200,245.200 17.200 C 244.980 17.200,244.800 17.650,244.800 18.200 C 244.800 18.750,244.620 19.200,244.400 19.200 C 244.180 19.200,244.000 19.560,244.000 20.000 C 244.000 20.440,243.764 20.800,243.475 20.800 C 243.186 20.800,242.702 21.430,242.400 22.200 C 242.098 22.970,241.704 23.600,241.525 23.600 C 241.346 23.600,241.200 23.960,241.200 24.400 C 241.200 24.840,241.020 25.200,240.800 25.200 C 240.580 25.200,240.400 25.566,240.400 26.013 C 240.400 26.459,240.130 26.929,239.800 27.055 C 239.470 27.182,239.200 27.544,239.200 27.860 C 239.200 28.175,238.840 28.820,238.400 29.292 C 237.960 29.764,237.600 30.477,237.600 30.875 C 237.600 31.833,234.218 31.945,233.855 31.000 C 233.721 30.649,233.121 30.400,232.413 30.400 C 231.746 30.400,231.200 30.220,231.200 30.000 C 231.200 29.780,230.660 29.600,230.000 29.600 C 229.340 29.600,228.800 29.420,228.800 29.200 C 228.800 28.980,228.170 28.800,227.400 28.800 C 226.630 28.800,226.000 28.620,226.000 28.400 C 226.000 28.180,225.460 28.000,224.800 28.000 C 224.140 28.000,223.600 27.857,223.600 27.682 C 223.600 27.347,219.583 26.000,218.584 26.000 C 218.263 26.000,218.000 25.820,218.000 25.600 C 218.000 25.380,217.460 25.200,216.800 25.200 C 216.140 25.200,215.600 25.020,215.600 24.800 C 215.600 24.580,214.970 24.400,214.200 24.400 C 213.430 24.400,212.800 24.220,212.800 24.000 C 212.800 23.780,212.189 23.600,211.443 23.600 C 210.605 23.600,209.997 23.370,209.855 23.000 C 209.729 22.670,209.180 22.400,208.636 22.400 C 208.092 22.400,207.536 22.220,207.400 22.000 C 207.264 21.780,206.623 21.600,205.976 21.600 C 205.329 21.600,204.800 21.420,204.800 21.200 C 204.800 20.980,204.271 20.800,203.624 20.800 C 202.977 20.800,202.336 20.620,202.200 20.400 C 202.064 20.180,201.423 20.000,200.776 20.000 C 200.129 20.000,199.600 19.820,199.600 19.600 C 199.600 19.380,198.970 19.200,198.200 19.200 C 197.081 19.200,196.800 19.356,196.800 19.976 C 196.800 20.403,196.620 20.864,196.400 21.000 C 196.180 21.136,196.000 21.777,196.000 22.424 C 196.000 23.071,195.820 23.600,195.600 23.600 C 195.380 23.600,195.200 24.140,195.200 24.800 C 195.200 25.460,195.020 26.000,194.800 26.000 C 194.580 26.000,194.400 26.553,194.400 27.229 C 194.400 27.904,194.130 28.727,193.800 29.057 C 193.470 29.387,193.200 30.094,193.200 30.629 C 193.200 31.163,193.020 31.600,192.800 31.600 C 192.580 31.600,192.400 32.140,192.400 32.800 C 192.400 33.460,192.220 34.000,192.000 34.000 C 191.780 34.000,191.600 34.630,191.600 35.400 C 191.600 36.170,191.420 36.800,191.200 36.800 C 190.980 36.800,190.800 37.329,190.800 37.976 C 190.800 38.623,190.620 39.264,190.400 39.400 C 190.180 39.536,190.000 40.157,190.000 40.781 C 190.000 41.419,189.738 42.015,189.400 42.145 C 189.049 42.279,188.800 42.879,188.800 43.587 C 188.800 44.254,188.620 44.800,188.400 44.800 C 188.180 44.800,188.000 45.340,188.000 46.000 C 188.000 46.660,187.820 47.200,187.600 47.200 C 187.380 47.200,187.200 47.830,187.200 48.600 C 187.200 49.370,187.020 50.000,186.800 50.000 C 186.580 50.000,186.400 50.630,186.400 51.400 C 186.400 52.170,186.220 52.800,186.000 52.800 C 185.780 52.800,185.600 53.147,185.600 53.571 C 185.600 53.996,185.330 54.613,185.000 54.943 C 184.670 55.273,184.400 55.995,184.400 56.548 C 184.400 57.101,184.220 57.664,184.000 57.800 C 183.780 57.936,183.600 58.566,183.600 59.200 C 183.600 59.834,183.420 60.464,183.200 60.600 C 182.980 60.736,182.800 61.287,182.800 61.824 C 182.800 62.361,182.620 62.800,182.400 62.800 C 182.180 62.800,182.000 63.263,182.000 63.829 C 182.000 64.394,181.730 65.127,181.400 65.457 C 181.070 65.787,180.800 66.484,180.800 67.005 C 180.800 67.526,180.620 68.064,180.400 68.200 C 180.180 68.336,180.000 68.876,180.000 69.400 C 180.000 69.924,179.820 70.464,179.600 70.600 C 179.380 70.736,179.200 71.377,179.200 72.024 C 179.200 72.671,179.020 73.200,178.800 73.200 C 178.580 73.200,178.400 73.740,178.400 74.400 C 178.400 75.060,178.220 75.600,178.000 75.600 C 177.780 75.600,177.600 76.211,177.600 76.957 C 177.600 77.795,177.370 78.403,177.000 78.545 C 176.649 78.679,176.400 79.279,176.400 79.987 C 176.400 80.654,176.220 81.200,176.000 81.200 C 175.780 81.200,175.600 81.740,175.600 82.400 C 175.600 83.060,175.420 83.600,175.200 83.600 C 174.980 83.600,174.800 84.230,174.800 85.000 C 174.800 85.770,174.620 86.400,174.400 86.400 C 174.180 86.400,174.000 86.940,174.000 87.600 C 174.000 88.260,173.820 88.800,173.600 88.800 C 173.380 88.800,173.200 89.430,173.200 90.200 C 173.200 91.075,173.007 91.600,172.685 91.600 C 172.391 91.600,172.128 92.157,172.072 92.900 C 172.019 93.615,171.800 94.260,171.587 94.333 C 171.374 94.407,171.200 94.992,171.200 95.633 C 171.200 96.275,171.020 96.800,170.800 96.800 C 170.580 96.800,170.400 97.430,170.400 98.200 C 170.400 98.970,170.220 99.600,170.000 99.600 C 169.780 99.600,169.600 100.215,169.600 100.967 C 169.600 101.718,169.391 102.403,169.137 102.488 C 168.882 102.573,168.607 103.083,168.525 103.621 C 168.444 104.160,168.202 104.660,167.988 104.733 C 167.775 104.807,167.600 105.482,167.600 106.233 C 167.600 106.985,167.420 107.600,167.200 107.600 C 166.980 107.600,166.800 108.140,166.800 108.800 C 166.800 109.460,166.620 110.000,166.400 110.000 C 166.180 110.000,166.000 110.529,166.000 111.176 C 166.000 111.823,165.820 112.464,165.600 112.600 C 165.380 112.736,165.200 113.265,165.200 113.775 C 165.200 114.285,164.930 114.926,164.600 115.200 C 164.270 115.474,164.000 116.115,164.000 116.625 C 164.000 117.135,163.820 117.664,163.600 117.800 C 163.380 117.936,163.200 118.476,163.200 119.000 C 163.200 119.524,163.020 120.064,162.800 120.200 C 162.580 120.336,162.400 120.977,162.400 121.624 C 162.400 122.271,162.220 122.800,162.000 122.800 C 161.780 122.800,161.600 123.340,161.600 124.000 C 161.600 124.660,161.420 125.200,161.200 125.200 C 160.980 125.200,160.800 125.811,160.800 126.557 C 160.800 127.395,160.570 128.003,160.200 128.145 C 159.870 128.271,159.600 128.820,159.600 129.364 C 159.600 129.908,159.420 130.464,159.200 130.600 C 158.980 130.736,158.800 131.377,158.800 132.024 C 158.800 132.671,158.620 133.200,158.400 133.200 C 158.180 133.200,158.000 133.830,158.000 134.600 C 158.000 135.370,157.820 136.000,157.600 136.000 C 157.380 136.000,157.200 136.525,157.200 137.167 C 157.200 137.808,157.016 138.395,156.792 138.469 C 156.567 138.544,156.342 139.189,156.292 139.902 C 156.241 140.623,155.978 141.199,155.700 141.199 C 155.395 141.200,155.200 141.747,155.200 142.600 C 155.200 143.370,155.020 144.000,154.800 144.000 C 154.580 144.000,154.400 144.529,154.400 145.176 C 154.400 145.823,154.220 146.464,154.000 146.600 C 153.780 146.736,153.600 147.377,153.600 148.024 C 153.600 148.671,153.420 149.200,153.200 149.200 C 152.980 149.200,152.800 149.721,152.800 150.357 C 152.800 151.017,152.542 151.613,152.200 151.745 C 151.849 151.879,151.600 152.479,151.600 153.187 C 151.600 153.854,151.420 154.400,151.200 154.400 C 150.980 154.400,150.800 155.030,150.800 155.800 C 150.800 156.578,150.598 157.200,150.346 157.200 C 150.037 157.200,149.971 157.781,150.140 159.014 C 150.277 160.012,150.233 161.137,150.043 161.514 C 149.854 161.892,149.517 162.830,149.296 163.600 C 147.499 169.851,144.422 180.002,142.142 187.200 C 141.411 189.510,140.646 191.940,140.444 192.600 C 138.480 199.002,136.995 203.772,136.397 205.600 C 136.001 206.810,135.190 209.420,134.594 211.400 C 133.998 213.380,133.193 215.990,132.805 217.200 C 132.417 218.410,131.434 221.560,130.620 224.200 C 129.807 226.840,128.994 229.450,128.813 230.000 C 128.632 230.550,127.817 233.160,127.002 235.800 C 126.187 238.440,124.745 242.940,123.799 245.800 C 122.853 248.660,121.502 252.890,120.797 255.200 C 120.092 257.510,119.365 259.850,119.181 260.400 C 118.997 260.950,118.198 263.560,117.405 266.200 C 116.612 268.840,115.791 271.313,115.581 271.695 C 114.216 274.180,117.268 278.800,120.275 278.800 C 122.269 278.800,124.846 277.040,125.084 275.516 C 125.142 275.140,125.538 273.790,125.963 272.516 C 126.389 271.242,127.133 268.850,127.617 267.200 C 128.101 265.550,128.820 263.210,129.214 262.000 C 129.975 259.664,131.732 254.074,134.180 246.200 C 135.001 243.560,135.995 240.410,136.388 239.200 C 136.781 237.990,137.501 235.650,137.988 234.000 C 138.899 230.915,140.344 226.274,141.598 222.400 C 141.990 221.190,142.798 218.580,143.394 216.600 C 143.990 214.620,144.798 212.010,145.189 210.800 C 145.581 209.590,146.566 206.440,147.380 203.800 C 148.193 201.160,149.006 198.550,149.187 198.000 C 149.368 197.450,150.181 194.840,150.994 192.200 C 151.808 189.560,152.795 186.410,153.188 185.200 C 153.581 183.990,154.306 181.650,154.799 180.000 C 155.293 178.350,156.099 175.740,156.592 174.200 C 157.084 172.660,158.159 169.240,158.980 166.600 C 160.664 161.185,161.902 157.383,162.366 156.200 C 162.539 155.760,162.891 154.770,163.149 154.000 C 167.748 140.251,169.303 135.664,169.589 135.000 C 169.778 134.560,170.024 133.840,170.135 133.400 C 170.246 132.960,172.758 125.490,175.717 116.800 C 178.677 108.110,182.213 97.670,183.576 93.600 C 184.939 89.530,186.213 85.840,186.409 85.400 C 186.604 84.960,187.031 83.700,187.358 82.600 C 187.685 81.500,189.559 75.920,191.523 70.200 C 193.487 64.480,195.181 59.530,195.286 59.200 C 195.392 58.870,195.693 57.970,195.954 57.200 C 196.215 56.430,197.870 51.480,199.632 46.200 C 201.393 40.920,203.007 36.287,203.217 35.905 C 203.428 35.523,203.600 34.870,203.600 34.454 C 203.600 33.262,204.655 32.594,205.714 33.116 C 206.201 33.357,213.980 36.004,223.000 38.999 C 232.020 41.994,239.760 44.590,240.200 44.768 C 240.640 44.947,242.170 45.477,243.600 45.946 C 246.927 47.039,288.015 60.841,295.000 63.212 C 295.660 63.436,302.950 65.875,311.200 68.632 C 319.450 71.389,326.560 73.798,327.000 73.986 C 327.440 74.174,329.600 74.906,331.800 75.614 C 336.789 77.218,337.328 77.496,337.074 78.334 C 336.963 78.700,335.401 83.230,333.603 88.400 C 331.806 93.570,330.191 98.340,330.015 99.000 C 329.838 99.660,329.472 100.740,329.200 101.400 C 328.928 102.060,328.562 103.140,328.386 103.800 C 328.141 104.718,321.871 123.120,320.685 126.400 C 320.566 126.730,319.351 130.330,317.984 134.400 C 316.618 138.470,313.079 148.910,310.120 157.600 C 307.162 166.290,304.648 173.760,304.535 174.200 C 304.422 174.640,304.231 175.270,304.112 175.600 C 303.153 178.249,295.889 199.575,295.733 200.200 C 295.623 200.640,295.376 201.360,295.184 201.800 C 294.992 202.240,293.754 205.840,292.434 209.800 C 291.113 213.760,287.585 224.200,284.594 233.000 C 281.603 241.800,278.002 252.420,276.592 256.600 C 275.183 260.780,271.586 271.400,268.600 280.200 C 265.613 289.000,261.838 300.160,260.210 305.000 C 256.136 317.109,254.429 321.999,253.982 322.834 C 253.615 323.519,249.171 322.457,245.400 320.784 C 244.960 320.588,236.680 317.801,227.000 314.589 C 217.320 311.377,209.040 308.593,208.600 308.401 C 208.160 308.209,206.668 307.666,205.284 307.194 L 202.767 306.336 201.084 307.834 C 196.032 312.328,194.724 313.684,195.090 314.050 C 195.475 314.435,207.244 318.625,211.800 319.999 C 214.301 320.753,222.729 323.577,234.000 327.437 C 237.630 328.680,241.140 329.838,241.800 330.010 C 242.460 330.182,244.350 330.817,246.000 331.420 C 257.608 335.665,260.041 336.348,260.365 335.450 C 260.534 334.983,261.173 333.070,261.785 331.200 C 262.397 329.330,263.052 327.440,263.240 327.000 C 263.428 326.560,264.660 322.960,265.978 319.000 C 275.136 291.490,272.960 296.492,285.328 274.516 C 290.255 265.762,294.739 257.790,295.293 256.800 C 295.848 255.810,296.954 253.858,297.751 252.462 C 298.548 251.065,299.200 249.775,299.200 249.595 C 299.200 249.414,299.342 249.207,299.515 249.133 C 299.800 249.013,307.250 236.026,308.689 233.142 C 309.015 232.489,309.891 231.559,310.636 231.077 C 311.381 230.595,311.992 229.885,311.995 229.500 C 311.998 229.115,312.180 228.800,312.400 228.800 C 312.620 228.800,312.800 228.416,312.800 227.947 C 312.800 227.478,313.120 226.803,313.510 226.447 C 314.507 225.539,315.600 223.744,315.600 223.014 C 315.600 222.676,315.780 222.400,316.000 222.400 C 316.220 222.400,316.400 222.040,316.400 221.600 C 316.400 221.160,316.580 220.800,316.800 220.800 C 317.020 220.800,317.200 220.440,317.200 220.000 C 317.200 219.560,317.380 219.200,317.600 219.200 C 317.820 219.200,318.000 219.007,318.000 218.771 C 318.000 218.536,318.225 218.092,318.500 217.785 C 319.739 216.404,320.000 215.996,320.000 215.440 C 320.000 215.114,320.180 214.736,320.400 214.600 C 320.620 214.464,320.800 214.086,320.800 213.760 C 320.800 213.433,321.160 212.780,321.600 212.308 C 322.040 211.836,322.400 211.142,322.400 210.767 C 322.400 210.392,322.670 209.982,323.000 209.855 C 323.330 209.729,323.600 209.349,323.600 209.013 C 323.600 208.676,323.780 208.400,324.000 208.400 C 324.220 208.400,324.400 208.040,324.400 207.600 C 324.400 207.160,324.580 206.800,324.800 206.800 C 325.020 206.800,325.200 206.474,325.200 206.075 C 325.200 205.677,325.560 204.964,326.000 204.492 C 326.440 204.020,326.800 203.350,326.800 203.004 C 326.800 202.658,327.070 202.271,327.400 202.145 C 327.730 202.018,328.000 201.574,328.000 201.157 C 328.000 200.741,328.180 200.400,328.400 200.400 C 328.620 200.400,328.800 200.040,328.800 199.600 C 328.800 199.160,328.980 198.800,329.200 198.800 C 329.420 198.800,329.600 198.530,329.600 198.200 C 329.600 197.870,329.780 197.600,330.000 197.600 C 330.220 197.600,330.400 197.240,330.400 196.800 C 330.400 196.360,330.535 195.999,330.700 195.997 C 331.102 195.994,332.400 193.681,332.400 192.968 C 332.400 192.655,332.546 192.400,332.725 192.400 C 332.904 192.400,333.298 191.770,333.600 191.000 C 333.902 190.230,334.296 189.600,334.475 189.600 C 334.654 189.600,334.800 189.259,334.800 188.843 C 334.800 188.426,335.070 187.982,335.400 187.855 C 335.730 187.729,336.000 187.349,336.000 187.013 C 336.000 186.676,336.180 186.400,336.400 186.400 C 336.620 186.400,336.800 185.950,336.800 185.400 C 336.800 184.850,336.947 184.400,337.126 184.400 C 337.535 184.400,339.200 181.319,339.200 180.562 C 339.200 180.253,339.470 180.000,339.800 180.000 C 340.133 180.000,340.400 179.644,340.400 179.200 C 340.400 178.760,340.580 178.400,340.800 178.400 C 341.020 178.400,341.200 178.074,341.200 177.675 C 341.200 177.277,341.560 176.564,342.000 176.092 C 342.440 175.620,342.800 174.956,342.800 174.617 C 342.800 174.278,342.977 174.000,343.192 174.000 C 343.408 174.000,343.698 173.550,343.836 173.000 C 343.974 172.450,344.247 172.000,344.443 172.000 C 344.640 172.000,344.800 171.640,344.800 171.200 C 344.800 170.760,344.980 170.400,345.200 170.400 C 345.420 170.400,345.600 170.130,345.600 169.800 C 345.600 169.470,345.780 169.200,346.000 169.200 C 346.220 169.200,346.400 168.840,346.400 168.400 C 346.400 167.960,346.580 167.600,346.800 167.600 C 347.020 167.600,347.200 167.259,347.200 166.843 C 347.200 166.426,347.470 165.982,347.800 165.855 C 348.130 165.729,348.400 165.259,348.400 164.813 C 348.400 164.366,348.580 164.000,348.800 164.000 C 349.020 164.000,349.204 163.775,349.209 163.500 C 349.214 163.225,349.570 162.550,350.000 162.000 C 350.430 161.450,350.786 160.685,350.791 160.300 C 350.796 159.915,350.980 159.600,351.200 159.600 C 351.420 159.600,351.600 159.240,351.600 158.800 C 351.600 158.356,351.867 158.000,352.200 158.000 C 352.537 158.000,352.800 157.643,352.800 157.183 C 352.800 156.734,353.160 155.980,353.600 155.508 C 354.040 155.036,354.400 154.413,354.400 154.125 C 354.400 153.836,354.580 153.600,354.800 153.600 C 355.020 153.600,355.200 153.150,355.200 152.600 C 355.200 152.050,355.380 151.600,355.600 151.600 C 355.820 151.600,356.000 151.240,356.000 150.800 C 356.000 150.356,356.267 150.000,356.600 150.000 C 356.933 150.000,357.200 149.644,357.200 149.200 C 357.200 148.760,357.380 148.400,357.600 148.400 C 357.820 148.400,358.000 148.130,358.000 147.800 C 358.000 147.470,358.180 147.200,358.400 147.200 C 358.620 147.200,358.800 146.840,358.800 146.400 C 358.800 145.960,358.980 145.600,359.200 145.600 C 359.420 145.600,359.600 145.259,359.600 144.843 C 359.600 144.426,359.870 143.982,360.200 143.855 C 360.530 143.729,360.800 143.259,360.800 142.813 C 360.800 142.366,360.980 142.000,361.200 142.000 C 361.420 142.000,361.600 141.730,361.600 141.400 C 361.600 141.070,361.780 140.800,362.000 140.800 C 362.220 140.800,362.400 140.440,362.400 140.000 C 362.400 139.560,362.580 139.200,362.800 139.200 C 363.020 139.200,363.200 138.840,363.200 138.400 C 363.200 137.960,363.380 137.600,363.600 137.600 C 363.820 137.600,364.000 137.240,364.000 136.800 C 364.000 136.360,364.172 136.000,364.381 136.000 C 364.591 136.000,365.061 135.370,365.427 134.600 C 365.792 133.830,366.251 133.200,366.446 133.200 C 366.641 133.200,366.800 132.851,366.800 132.424 C 366.800 131.997,366.980 131.536,367.200 131.400 C 367.420 131.264,367.600 130.803,367.600 130.376 C 367.600 129.949,367.780 129.600,368.000 129.600 C 368.220 129.600,368.400 129.240,368.400 128.800 C 368.400 128.360,368.636 128.000,368.925 128.000 C 369.214 128.000,369.698 127.370,370.000 126.600 C 370.302 125.830,370.696 125.200,370.875 125.200 C 371.054 125.200,371.200 124.840,371.200 124.400 C 371.200 123.960,371.380 123.600,371.600 123.600 C 371.820 123.600,372.000 123.150,372.000 122.600 C 372.000 121.978,372.227 121.600,372.600 121.600 C 372.933 121.600,373.200 121.244,373.200 120.800 C 373.200 120.360,373.380 120.000,373.600 120.000 C 373.820 120.000,374.000 119.730,374.000 119.400 C 374.000 119.070,374.180 118.800,374.400 118.800 C 374.620 118.800,374.800 118.440,374.800 118.000 C 374.800 117.560,374.980 117.200,375.200 117.200 C 375.420 117.200,375.600 116.840,375.600 116.400 C 375.600 115.960,375.780 115.600,376.000 115.600 C 376.220 115.600,376.400 115.150,376.400 114.600 C 376.400 114.050,376.625 113.600,376.901 113.600 C 377.420 113.600,379.203 110.578,379.201 109.700 C 379.200 109.425,379.380 109.200,379.600 109.200 C 379.820 109.200,380.000 108.840,380.000 108.400 C 380.000 107.960,380.180 107.600,380.400 107.600 C 380.620 107.600,380.803 107.285,380.807 106.900 C 380.811 106.515,381.261 105.776,381.807 105.258 C 382.353 104.740,382.800 104.065,382.800 103.758 C 382.800 103.451,382.980 103.200,383.200 103.200 C 383.420 103.200,383.600 102.750,383.600 102.200 C 383.600 101.650,383.780 101.200,384.000 101.200 C 384.220 101.200,384.400 100.840,384.400 100.400 C 384.400 99.960,384.580 99.600,384.800 99.600 C 385.020 99.600,385.200 99.407,385.200 99.171 C 385.200 98.936,385.425 98.492,385.700 98.185 C 386.944 96.798,387.200 96.394,387.200 95.817 C 387.200 95.478,387.380 95.200,387.600 95.200 C 387.820 95.200,388.000 94.750,388.000 94.200 C 388.000 93.650,388.180 93.200,388.400 93.200 C 388.620 93.200,388.803 92.975,388.807 92.700 C 388.811 92.425,389.261 91.776,389.807 91.258 C 391.253 89.887,391.248 87.200,389.800 87.200 C 389.250 87.200,388.800 87.020,388.800 86.800 C 388.800 86.580,388.440 86.400,388.000 86.400 C 387.560 86.400,387.200 86.220,387.200 86.000 C 387.200 85.780,387.007 85.600,386.771 85.600 C 386.536 85.600,386.092 85.375,385.785 85.100 C 384.398 83.856,383.994 83.600,383.417 83.600 C 383.078 83.600,382.800 83.420,382.800 83.200 C 382.800 82.980,382.350 82.800,381.800 82.800 C 381.250 82.800,380.800 82.620,380.800 82.400 C 380.800 82.180,380.575 81.997,380.300 81.993 C 380.025 81.989,379.376 81.539,378.858 80.993 C 378.340 80.447,377.575 80.000,377.158 80.000 C 376.741 80.000,376.400 79.820,376.400 79.600 C 376.400 79.380,376.040 79.200,375.600 79.200 C 375.160 79.200,374.800 79.020,374.800 78.800 C 374.800 78.580,374.440 78.400,374.000 78.400 C 373.560 78.400,373.200 78.220,373.200 78.000 C 373.200 77.780,372.930 77.600,372.600 77.600 C 372.270 77.600,371.999 77.465,371.997 77.300 C 371.994 76.898,369.681 75.600,368.968 75.600 C 368.655 75.600,368.400 75.420,368.400 75.200 C 368.400 74.980,368.040 74.800,367.600 74.800 C 367.160 74.800,366.800 74.620,366.800 74.400 C 366.800 74.180,366.530 74.000,366.200 74.000 C 365.870 74.000,365.600 73.820,365.600 73.600 C 365.600 73.380,365.259 73.200,364.843 73.200 C 364.426 73.200,363.982 72.930,363.855 72.600 C 363.729 72.270,363.349 72.000,363.013 72.000 C 362.676 72.000,362.400 71.820,362.400 71.600 C 362.400 71.380,362.051 71.200,361.624 71.200 C 361.197 71.200,360.736 71.020,360.600 70.800 C 360.464 70.580,360.070 70.400,359.723 70.400 C 359.377 70.400,358.803 70.066,358.447 69.657 C 358.091 69.249,357.395 68.787,356.900 68.630 C 356.405 68.474,356.000 68.178,356.000 67.973 C 356.000 67.768,355.640 67.600,355.200 67.600 C 354.760 67.600,354.400 67.420,354.400 67.200 C 354.400 66.980,354.040 66.800,353.600 66.800 C 353.160 66.800,352.800 66.620,352.800 66.400 C 352.800 66.180,352.530 66.000,352.200 66.000 C 351.870 66.000,351.600 65.820,351.600 65.600 C 351.600 65.380,351.240 65.200,350.800 65.200 C 350.360 65.200,350.000 65.020,350.000 64.800 C 350.000 64.580,349.752 64.400,349.449 64.400 C 349.146 64.400,348.674 64.130,348.400 63.800 C 348.126 63.470,347.564 63.200,347.151 63.200 C 346.738 63.200,346.400 63.020,346.400 62.800 C 346.400 62.580,346.040 62.400,345.600 62.400 C 345.160 62.400,344.800 62.220,344.800 62.000 C 344.800 61.780,344.530 61.600,344.200 61.600 C 343.870 61.600,343.600 61.420,343.600 61.200 C 343.600 60.980,343.259 60.800,342.843 60.800 C 342.426 60.800,341.982 60.530,341.855 60.200 C 341.729 59.870,341.349 59.600,341.013 59.600 C 340.676 59.600,340.400 59.420,340.400 59.200 C 340.400 58.980,339.950 58.800,339.400 58.800 C 338.850 58.800,338.400 58.641,338.400 58.447 C 338.400 58.253,337.410 57.610,336.200 57.018 C 334.990 56.426,334.000 55.774,334.000 55.571 C 334.000 55.367,333.640 55.200,333.200 55.200 C 332.760 55.200,332.400 55.020,332.400 54.800 C 332.400 54.580,332.074 54.400,331.675 54.400 C 331.277 54.400,330.564 54.040,330.092 53.600 C 329.620 53.160,328.956 52.800,328.617 52.800 C 328.278 52.800,328.000 52.623,328.000 52.408 C 328.000 52.192,327.550 51.902,327.000 51.764 C 326.450 51.626,326.000 51.353,326.000 51.157 C 326.000 50.960,325.640 50.800,325.200 50.800 C 324.760 50.800,324.400 50.620,324.400 50.400 C 324.400 50.180,324.130 50.000,323.800 50.000 C 323.470 50.000,323.200 49.820,323.200 49.600 C 323.200 49.380,322.840 49.200,322.400 49.200 C 321.960 49.200,321.600 49.020,321.600 48.800 C 321.600 48.580,321.259 48.400,320.843 48.400 C 320.426 48.400,319.982 48.130,319.855 47.800 C 319.729 47.470,319.259 47.200,318.813 47.200 C 318.366 47.200,318.000 47.020,318.000 46.800 C 318.000 46.580,317.775 46.396,317.500 46.391 C 317.225 46.386,316.550 46.030,316.000 45.600 C 315.450 45.170,314.685 44.814,314.300 44.809 C 313.915 44.804,313.600 44.620,313.600 44.400 C 313.600 44.180,313.240 44.000,312.800 44.000 C 312.356 44.000,312.000 43.733,312.000 43.400 C 312.000 43.042,311.632 42.800,311.088 42.800 C 310.587 42.800,309.917 42.440,309.600 42.000 C 309.283 41.560,308.703 41.200,308.312 41.200 C 307.920 41.200,307.600 41.020,307.600 40.800 C 307.600 40.580,307.169 40.400,306.643 40.400 C 306.116 40.400,305.582 40.130,305.455 39.800 C 305.329 39.470,304.949 39.200,304.613 39.200 C 304.276 39.200,304.000 39.054,304.000 38.875 C 304.000 38.696,303.370 38.302,302.600 38.000 C 301.830 37.698,301.200 37.304,301.200 37.125 C 301.200 36.946,300.840 36.800,300.400 36.800 C 299.960 36.800,299.600 36.620,299.600 36.400 C 299.600 36.180,299.150 36.000,298.600 36.000 C 297.978 36.000,297.600 35.773,297.600 35.400 C 297.600 35.070,297.322 34.800,296.983 34.800 C 296.644 34.800,295.980 34.440,295.508 34.000 C 295.036 33.560,294.323 33.200,293.925 33.200 C 293.526 33.200,293.200 33.020,293.200 32.800 C 293.200 32.580,292.840 32.400,292.400 32.400 C 291.960 32.400,291.600 32.220,291.600 32.000 C 291.600 31.780,291.240 31.600,290.800 31.600 C 290.360 31.600,290.000 31.417,290.000 31.194 C 290.000 30.970,289.370 30.487,288.600 30.119 C 287.830 29.752,287.200 29.305,287.200 29.126 C 287.200 28.947,286.750 28.800,286.200 28.800 C 285.650 28.800,285.200 28.620,285.200 28.400 C 285.200 28.180,284.917 28.000,284.571 28.000 C 284.226 28.000,283.671 27.728,283.339 27.396 C 283.007 27.064,282.570 26.895,282.368 27.020 C 282.165 27.145,282.000 26.967,282.000 26.624 C 282.000 26.281,281.730 26.000,281.400 26.000 C 281.070 26.000,280.800 25.820,280.800 25.600 C 280.800 25.380,280.440 25.200,280.000 25.200 C 279.560 25.200,279.200 25.020,279.200 24.800 C 279.200 24.580,278.840 24.400,278.400 24.400 C 277.960 24.400,277.600 24.220,277.600 24.000 C 277.600 23.780,277.150 23.600,276.600 23.600 C 276.041 23.600,275.600 23.368,275.600 23.075 C 275.600 22.786,274.970 22.302,274.200 22.000 C 273.430 21.698,272.800 21.304,272.800 21.125 C 272.800 20.946,272.440 20.800,272.000 20.800 C 271.560 20.800,271.200 20.620,271.200 20.400 C 271.200 20.180,270.840 20.000,270.400 20.000 C 269.960 20.000,269.600 19.820,269.600 19.600 C 269.600 19.380,269.249 19.200,268.820 19.200 C 268.391 19.200,267.896 18.950,267.720 18.644 C 267.326 17.961,264.592 16.400,263.788 16.400 C 263.465 16.400,263.200 16.220,263.200 16.000 C 263.200 15.780,262.840 15.600,262.400 15.600 C 261.960 15.600,261.600 15.420,261.600 15.200 C 261.600 14.980,261.349 14.800,261.043 14.800 C 260.736 14.800,260.382 14.530,260.255 14.200 C 260.129 13.870,259.749 13.600,259.413 13.600 C 259.076 13.600,258.800 13.420,258.800 13.200 C 258.800 12.980,258.440 12.800,258.000 12.800 C 257.560 12.800,257.200 12.620,257.200 12.400 C 257.200 12.180,256.750 12.000,256.200 12.000 C 255.650 12.000,255.200 11.820,255.200 11.600 C 255.200 11.380,255.007 11.200,254.771 11.200 C 254.536 11.200,254.092 10.975,253.785 10.700 C 252.279 9.349,251.906 9.181,250.603 9.269 C 249.434 9.348,249.200 9.517,249.200 10.282 M259.600 26.600 C 262.045 28.030,264.111 29.200,264.190 29.200 C 264.269 29.200,265.704 30.010,267.378 31.000 C 269.053 31.990,270.511 32.800,270.619 32.800 C 270.728 32.800,271.487 33.220,272.308 33.733 C 273.129 34.246,274.790 35.210,276.000 35.875 C 279.189 37.627,281.887 39.154,284.097 40.457 C 285.163 41.086,286.102 41.600,286.185 41.600 C 286.267 41.600,287.704 42.410,289.378 43.400 C 291.053 44.390,292.493 45.200,292.578 45.200 C 292.664 45.200,294.054 45.978,295.667 46.929 C 297.280 47.879,299.821 49.325,301.312 50.142 C 302.804 50.959,304.649 51.981,305.412 52.414 C 307.703 53.712,309.303 54.614,311.200 55.678 C 317.878 59.422,318.754 59.996,317.800 60.003 C 317.122 60.007,314.027 59.099,311.000 58.008 C 310.560 57.849,309.570 57.510,308.800 57.254 C 295.772 52.925,277.214 46.671,276.600 46.404 C 276.160 46.212,275.080 45.845,274.200 45.587 C 273.320 45.330,270.800 44.505,268.600 43.754 C 266.400 43.003,263.970 42.199,263.200 41.968 C 262.430 41.737,261.440 41.386,261.000 41.190 C 260.560 40.993,257.365 39.898,253.900 38.756 C 247.032 36.493,247.028 36.490,248.600 34.000 C 249.150 33.129,249.600 32.328,249.600 32.219 C 249.600 32.111,250.365 30.713,251.300 29.112 C 252.235 27.510,253.255 25.705,253.568 25.100 C 254.344 23.595,254.547 23.645,259.600 26.600 M254.862 64.621 C 234.995 71.388,237.510 99.621,258.300 103.225 C 268.193 104.940,278.644 97.705,280.754 87.680 C 283.914 72.664,269.344 59.688,254.862 64.621 M264.593 73.898 C 271.591 76.363,273.660 85.637,268.331 90.652 C 261.590 96.994,251.142 92.692,251.058 83.540 C 250.993 76.352,257.798 71.505,264.593 73.898 M350.862 78.052 C 351.446 78.464,352.026 78.800,352.150 78.800 C 352.275 78.800,353.747 79.610,355.422 80.600 C 357.096 81.590,358.518 82.400,358.582 82.400 C 358.645 82.400,360.476 83.414,362.649 84.653 C 364.822 85.892,367.590 87.453,368.800 88.120 C 370.010 88.788,371.630 89.713,372.400 90.176 C 373.170 90.639,374.295 91.269,374.900 91.577 C 376.431 92.354,376.313 92.948,373.841 96.926 C 373.543 97.406,372.762 98.790,372.107 100.000 C 370.206 103.512,368.716 106.168,368.404 106.600 C 368.245 106.820,367.575 107.990,366.916 109.200 C 365.807 111.234,364.686 113.244,362.678 116.800 C 362.243 117.570,361.437 119.001,360.886 119.979 C 360.336 120.957,359.372 122.630,358.743 123.697 C 358.114 124.763,357.600 125.706,357.600 125.793 C 357.600 125.879,356.132 128.526,354.337 131.675 C 352.543 134.824,350.533 138.390,349.870 139.600 C 349.208 140.810,348.246 142.471,347.733 143.292 C 347.220 144.113,346.800 144.858,346.800 144.948 C 346.800 145.038,345.030 148.237,342.868 152.056 C 340.705 155.875,338.388 159.990,337.719 161.200 C 337.050 162.410,334.977 166.100,333.112 169.400 C 331.247 172.700,329.266 176.210,328.710 177.200 C 328.154 178.190,327.046 180.142,326.249 181.538 C 325.452 182.935,324.800 184.167,324.800 184.277 C 324.800 184.387,324.468 184.954,324.062 185.538 C 323.657 186.122,322.694 187.770,321.923 189.200 C 320.272 192.264,318.723 195.016,317.143 197.697 C 316.514 198.763,316.000 199.702,316.000 199.785 C 316.000 199.867,315.190 201.304,314.200 202.978 C 313.210 204.653,312.400 206.100,312.400 206.194 C 312.400 206.288,311.886 207.237,311.257 208.303 C 310.628 209.370,309.664 211.043,309.114 212.021 C 308.563 212.999,307.757 214.430,307.322 215.200 C 306.888 215.970,306.052 217.455,305.466 218.500 C 302.860 223.146,302.218 224.274,301.143 226.097 C 300.514 227.163,300.000 228.109,300.000 228.200 C 300.000 228.291,299.486 229.237,298.857 230.303 C 297.270 232.994,295.577 235.993,294.906 237.300 C 294.596 237.905,294.175 238.400,293.971 238.400 C 293.767 238.400,293.586 238.805,293.568 239.300 C 293.551 239.795,293.449 239.985,293.342 239.722 C 293.171 239.300,295.108 232.735,296.034 230.600 C 296.225 230.160,297.457 226.560,298.771 222.600 C 300.086 218.640,303.606 208.200,306.595 199.400 C 309.584 190.600,313.184 179.980,314.597 175.800 C 316.009 171.620,319.616 161.000,322.612 152.200 C 325.607 143.400,328.150 135.840,328.263 135.400 C 328.375 134.960,328.624 134.240,328.816 133.800 C 329.008 133.360,330.246 129.760,331.567 125.800 C 332.888 121.840,336.413 111.400,339.400 102.600 C 342.386 93.800,345.578 84.394,346.492 81.698 C 348.313 76.328,348.359 76.290,350.862 78.052 M224.560 118.438 C 217.381 118.888,209.854 120.900,202.941 124.218 C 177.277 136.536,163.481 166.116,170.769 193.200 C 170.976 193.970,171.263 195.050,171.406 195.600 C 171.550 196.150,171.811 196.960,171.987 197.400 C 174.943 204.793,176.229 207.355,179.217 211.800 C 183.165 217.674,188.605 223.166,194.815 227.546 L 197.103 229.159 201.552 226.325 C 205.553 223.775,206.931 222.400,205.487 222.400 C 204.879 222.400,201.534 220.324,198.265 217.918 C 191.522 212.955,183.957 202.558,181.590 195.000 C 181.315 194.120,180.951 193.040,180.782 192.600 C 179.403 189.013,178.706 183.091,178.922 176.800 C 179.147 170.253,179.780 166.415,181.395 161.810 C 186.247 147.975,197.773 136.150,211.200 131.232 C 211.970 130.950,212.960 130.571,213.400 130.390 C 213.840 130.209,214.650 129.970,215.200 129.860 C 215.750 129.751,217.460 129.353,219.000 128.977 C 222.542 128.112,234.668 127.951,238.000 128.724 C 251.310 131.815,260.519 137.279,268.307 146.707 C 270.053 148.822,274.400 155.604,274.400 156.214 C 274.400 156.319,274.809 157.258,275.309 158.302 C 275.809 159.346,276.459 161.010,276.755 162.000 C 277.050 162.990,277.432 164.160,277.604 164.600 C 278.395 166.625,279.600 174.658,279.600 177.907 C 279.600 183.093,277.984 191.504,276.075 196.250 C 271.372 207.948,263.483 216.812,252.674 222.546 C 249.346 224.312,242.775 226.800,241.441 226.800 C 239.739 226.800,239.855 227.569,241.882 229.722 C 242.958 230.865,244.423 232.655,245.138 233.700 C 245.853 234.745,246.516 235.600,246.611 235.600 C 246.763 235.600,248.570 234.949,251.000 234.019 C 273.860 225.271,289.182 202.794,289.185 178.000 C 289.190 143.192,259.928 116.223,224.560 118.438 " stroke="none" fill="#5f9e76" fill-rule="evenodd"></path><path id="path2" d="M114.800 170.280 C 112.639 171.062,106.948 174.500,106.000 175.596 C 105.890 175.724,104.720 176.530,103.400 177.387 C 102.080 178.245,100.910 179.052,100.800 179.179 C 100.690 179.307,99.520 180.128,98.200 181.005 C 96.880 181.882,95.710 182.703,95.600 182.828 C 95.437 183.014,69.503 201.019,60.782 207.000 C 56.004 210.277,52.923 212.418,50.200 214.353 C 48.660 215.447,46.140 217.209,44.600 218.270 C 43.060 219.330,39.151 222.043,35.913 224.299 C 32.675 226.555,29.929 228.400,29.811 228.400 C 29.513 228.400,24.382 231.954,23.374 232.859 C 22.920 233.266,22.441 233.600,22.310 233.600 C 22.179 233.600,20.496 234.776,18.568 236.212 C 16.641 237.649,13.745 239.661,12.132 240.682 L 9.200 242.540 9.200 311.212 L 9.200 379.885 16.300 380.057 C 20.205 380.152,40.320 380.113,61.000 379.972 L 98.600 379.715 102.000 378.719 C 110.940 376.099,114.887 373.531,125.800 363.237 C 127.340 361.785,129.500 359.797,130.600 358.821 C 131.700 357.844,134.490 355.307,136.800 353.183 C 139.110 351.059,144.600 346.019,149.000 341.983 C 153.400 337.948,157.720 333.972,158.600 333.148 C 159.480 332.324,160.650 331.264,161.200 330.792 C 161.750 330.319,164.090 328.184,166.400 326.046 C 176.557 316.644,180.674 312.873,182.764 311.053 C 183.994 309.982,186.260 307.910,187.800 306.448 C 189.340 304.986,192.490 302.082,194.800 299.995 C 197.110 297.908,199.272 295.930,199.603 295.600 C 199.935 295.270,201.199 294.100,202.413 293.000 C 205.119 290.546,212.043 284.200,218.997 277.800 C 221.866 275.160,225.920 271.484,228.006 269.632 C 230.093 267.780,232.910 265.128,234.267 263.739 C 244.714 253.046,240.222 235.720,225.780 231.006 C 218.336 228.576,214.737 229.660,201.549 238.303 C 196.264 241.766,191.508 244.870,190.981 245.200 C 190.001 245.813,179.804 252.502,165.675 261.800 C 161.329 264.660,155.169 268.701,151.986 270.779 C 148.804 272.857,142.060 277.271,137.000 280.586 C 125.358 288.214,124.970 288.397,120.440 288.404 C 109.748 288.420,102.377 277.110,106.780 267.444 C 107.402 266.079,114.272 257.135,115.571 256.000 C 116.141 255.502,121.926 248.483,122.499 247.594 C 123.110 246.646,124.076 243.914,125.182 240.000 C 125.462 239.010,125.830 237.840,126.000 237.400 C 126.170 236.960,126.530 235.790,126.800 234.800 C 127.070 233.810,127.440 232.640,127.622 232.200 C 127.804 231.760,128.432 229.780,129.019 227.800 C 129.605 225.820,130.227 223.840,130.400 223.400 C 130.573 222.960,131.200 220.980,131.791 219.000 C 133.524 213.203,133.696 212.641,134.000 211.800 C 134.159 211.360,134.469 210.370,134.690 209.600 C 135.671 206.170,138.122 198.536,138.445 197.905 C 138.640 197.523,138.800 196.846,138.800 196.400 C 138.800 195.954,138.960 195.277,139.155 194.895 C 139.486 194.248,142.013 186.366,142.904 183.200 C 143.121 182.430,143.456 181.487,143.649 181.105 C 143.842 180.723,144.000 180.046,144.000 179.600 C 144.000 179.154,144.171 178.477,144.380 178.095 C 144.830 177.273,146.800 171.023,146.800 170.418 C 146.800 169.982,115.991 169.849,114.800 170.280 M215.734 220.023 C 213.144 220.360,208.082 221.887,207.400 222.537 C 207.144 222.781,207.288 222.814,207.800 222.631 C 212.455 220.959,215.538 220.397,220.345 220.344 C 224.476 220.298,224.998 220.232,223.200 219.983 C 220.463 219.605,218.876 219.613,215.734 220.023 M226.200 220.768 C 226.640 220.941,227.990 221.401,229.200 221.790 C 231.871 222.649,234.951 224.046,235.133 224.481 C 235.207 224.657,235.444 224.800,235.660 224.800 C 235.876 224.800,236.675 225.274,237.435 225.854 C 238.194 226.433,238.718 226.653,238.599 226.342 C 238.166 225.213,233.262 222.565,229.034 221.177 C 226.720 220.417,224.485 220.095,226.200 220.768 M298.593 252.121 C 298.149 252.825,297.520 253.940,297.194 254.600 C 296.868 255.260,296.511 255.890,296.401 256.000 C 296.290 256.110,296.004 256.560,295.764 257.000 C 295.275 257.897,293.718 260.682,292.522 262.800 C 290.067 267.148,289.347 268.443,288.077 270.800 C 287.306 272.230,286.382 273.850,286.023 274.400 C 285.665 274.950,285.113 275.940,284.798 276.600 C 284.482 277.260,283.667 278.700,282.986 279.800 C 282.305 280.900,281.490 282.385,281.176 283.100 C 280.862 283.815,280.469 284.400,280.302 284.400 C 280.136 284.400,280.000 284.563,280.000 284.762 C 280.000 284.960,279.344 286.265,278.542 287.662 C 275.827 292.388,274.217 295.905,273.169 299.400 C 272.905 300.280,272.546 301.360,272.371 301.800 C 272.196 302.240,271.579 304.040,271.000 305.800 C 270.422 307.560,269.780 309.313,269.574 309.695 C 269.368 310.077,269.200 310.741,269.200 311.171 C 269.200 311.601,269.020 312.064,268.800 312.200 C 268.580 312.336,268.400 312.876,268.400 313.400 C 268.400 313.924,268.220 314.464,268.000 314.600 C 267.780 314.736,267.600 315.131,267.600 315.477 C 267.600 316.169,265.001 323.782,264.385 324.895 C 264.173 325.277,264.000 326.006,264.000 326.515 C 264.000 327.024,263.848 327.611,263.663 327.820 C 263.477 328.029,263.004 329.280,262.611 330.600 C 262.219 331.920,261.740 333.171,261.549 333.380 C 259.927 335.148,263.794 342.272,268.092 345.436 C 275.422 350.832,283.946 350.947,291.426 345.750 C 294.548 343.582,296.783 340.662,298.432 336.600 C 299.557 333.827,299.639 330.402,299.521 291.121 L 299.400 250.843 298.593 252.121 M193.567 315.160 C 193.255 315.512,191.911 316.790,190.580 318.000 C 189.248 319.210,186.278 321.922,183.980 324.028 C 181.681 326.133,178.900 328.653,177.800 329.628 C 176.700 330.602,175.530 331.679,175.200 332.020 C 174.629 332.610,166.757 339.827,163.442 342.800 C 160.152 345.750,160.400 344.833,160.400 354.056 C 160.400 364.995,161.554 369.128,165.800 373.393 C 176.435 384.075,192.389 380.755,198.444 366.600 C 199.435 364.281,199.581 360.813,199.590 339.300 C 199.596 326.705,199.536 316.400,199.459 316.400 C 199.381 316.400,198.151 315.977,196.725 315.460 C 194.360 314.602,194.084 314.576,193.567 315.160 M210.547 320.993 C 210.422 321.320,210.394 329.015,210.485 338.093 L 210.651 354.600 211.793 357.200 C 215.671 366.036,225.949 371.651,233.840 369.247 C 234.478 369.052,235.810 368.652,236.800 368.357 C 237.790 368.062,238.780 367.676,239.000 367.500 C 239.220 367.323,240.259 366.624,241.309 365.946 C 242.359 365.268,243.889 363.877,244.709 362.856 C 245.529 361.835,246.292 360.910,246.405 360.800 C 246.722 360.491,248.274 357.164,248.830 355.600 C 249.477 353.783,249.860 334.833,249.272 333.735 C 249.035 333.291,247.727 332.596,246.133 332.067 C 244.630 331.567,243.040 331.009,242.600 330.826 C 242.160 330.643,239.640 329.808,237.000 328.970 C 234.360 328.133,232.029 327.302,231.820 327.124 C 231.611 326.946,230.972 326.800,230.400 326.800 C 229.828 326.800,229.189 326.653,228.980 326.474 C 228.771 326.294,227.070 325.651,225.200 325.045 C 223.330 324.438,221.487 323.775,221.105 323.571 C 220.723 323.367,220.059 323.200,219.629 323.200 C 219.199 323.200,218.736 323.020,218.600 322.800 C 218.464 322.580,218.001 322.400,217.571 322.400 C 217.141 322.400,216.477 322.242,216.095 322.048 C 215.258 321.625,211.527 320.395,211.087 320.398 C 210.916 320.399,210.672 320.667,210.547 320.993 " stroke="none" fill="#fbeba3" fill-rule="evenodd"></path><path id="path3" d="M253.568 25.100 C 253.255 25.705,252.235 27.510,251.300 29.112 C 250.365 30.713,249.600 32.111,249.600 32.219 C 249.600 32.328,249.150 33.129,248.600 34.000 C 247.028 36.490,247.032 36.493,253.900 38.756 C 257.365 39.898,260.560 40.993,261.000 41.190 C 261.440 41.386,262.430 41.737,263.200 41.968 C 263.970 42.199,266.400 43.003,268.600 43.754 C 270.800 44.505,273.320 45.330,274.200 45.587 C 275.080 45.845,276.160 46.212,276.600 46.404 C 277.214 46.671,295.772 52.925,308.800 57.254 C 309.570 57.510,310.560 57.849,311.000 58.008 C 314.027 59.099,317.122 60.007,317.800 60.003 C 318.754 59.996,317.878 59.422,311.200 55.678 C 309.303 54.614,307.703 53.712,305.412 52.414 C 304.649 51.981,302.804 50.959,301.312 50.142 C 299.821 49.325,297.280 47.879,295.667 46.929 C 294.054 45.978,292.664 45.200,292.578 45.200 C 292.493 45.200,291.053 44.390,289.378 43.400 C 287.704 42.410,286.267 41.600,286.185 41.600 C 286.102 41.600,285.163 41.086,284.097 40.457 C 281.887 39.154,279.189 37.627,276.000 35.875 C 274.790 35.210,273.129 34.246,272.308 33.733 C 271.487 33.220,270.728 32.800,270.619 32.800 C 270.511 32.800,269.053 31.990,267.378 31.000 C 265.704 30.010,264.269 29.200,264.190 29.200 C 264.111 29.200,262.045 28.030,259.600 26.600 C 254.547 23.645,254.344 23.595,253.568 25.100 M204.080 33.280 C 203.816 33.544,203.600 34.086,203.600 34.485 C 203.600 34.884,203.428 35.523,203.217 35.905 C 203.007 36.287,201.393 40.920,199.632 46.200 C 197.870 51.480,196.215 56.430,195.954 57.200 C 195.693 57.970,195.392 58.870,195.286 59.200 C 195.181 59.530,193.487 64.480,191.523 70.200 C 189.559 75.920,187.685 81.500,187.358 82.600 C 187.031 83.700,186.604 84.960,186.409 85.400 C 186.213 85.840,184.939 89.530,183.576 93.600 C 182.213 97.670,178.677 108.110,175.717 116.800 C 172.758 125.490,170.246 132.960,170.135 133.400 C 170.024 133.840,169.778 134.560,169.589 135.000 C 169.303 135.664,167.748 140.251,163.149 154.000 C 162.891 154.770,162.539 155.760,162.366 156.200 C 161.902 157.383,160.664 161.185,158.980 166.600 C 158.159 169.240,157.084 172.660,156.592 174.200 C 156.099 175.740,155.293 178.350,154.799 180.000 C 154.306 181.650,153.581 183.990,153.188 185.200 C 152.795 186.410,151.808 189.560,150.994 192.200 C 150.181 194.840,149.368 197.450,149.187 198.000 C 149.006 198.550,148.193 201.160,147.380 203.800 C 146.566 206.440,145.581 209.590,145.189 210.800 C 144.798 212.010,143.990 214.620,143.394 216.600 C 142.798 218.580,141.990 221.190,141.598 222.400 C 140.344 226.274,138.899 230.915,137.988 234.000 C 137.501 235.650,136.781 237.990,136.388 239.200 C 135.995 240.410,135.001 243.560,134.180 246.200 C 131.732 254.074,129.975 259.664,129.214 262.000 C 128.820 263.210,128.101 265.550,127.617 267.200 C 127.133 268.850,126.408 271.190,126.006 272.400 C 124.431 277.146,124.229 277.156,131.883 272.111 C 135.137 269.965,138.076 268.093,138.414 267.950 C 138.752 267.807,139.269 267.399,139.563 267.045 C 139.857 266.690,140.278 266.400,140.498 266.400 C 140.718 266.400,142.034 265.590,143.421 264.600 C 144.808 263.610,146.136 262.800,146.372 262.800 C 146.607 262.800,146.800 262.650,146.800 262.468 C 146.800 262.285,147.295 261.880,147.900 261.568 C 148.505 261.255,149.990 260.271,151.200 259.381 C 152.410 258.490,155.740 256.250,158.600 254.402 C 161.460 252.554,169.020 247.609,175.400 243.413 C 181.780 239.217,189.102 234.437,191.670 232.792 C 197.471 229.076,197.379 229.408,193.413 226.479 C 185.896 220.928,180.196 214.375,175.947 206.400 C 174.762 204.176,174.038 202.530,171.987 197.400 C 171.811 196.960,171.550 196.150,171.406 195.600 C 171.263 195.050,170.976 193.970,170.769 193.200 C 165.404 173.262,171.519 150.899,186.405 136.013 C 196.000 126.417,207.024 120.984,221.737 118.599 C 228.217 117.548,240.061 118.715,247.400 121.126 C 282.305 132.594,298.927 170.739,283.425 203.798 C 277.677 216.056,267.853 225.978,255.636 231.865 C 251.792 233.717,251.399 233.887,248.800 234.824 C 246.427 235.679,246.446 235.520,248.217 239.800 C 252.457 250.046,248.227 266.433,239.741 272.642 C 238.638 273.448,235.092 276.607,230.400 280.960 C 229.190 282.083,226.130 284.891,223.600 287.201 C 221.070 289.510,218.909 291.490,218.798 291.600 C 218.031 292.360,205.195 304.106,204.092 305.056 C 202.823 306.150,203.100 306.550,205.694 307.367 C 206.852 307.732,208.160 308.193,208.600 308.390 C 209.040 308.588,217.320 311.377,227.000 314.589 C 236.680 317.801,244.960 320.588,245.400 320.784 C 249.171 322.457,253.615 323.519,253.982 322.834 C 254.429 321.999,256.136 317.109,260.210 305.000 C 261.838 300.160,265.613 289.000,268.600 280.200 C 271.586 271.400,275.183 260.780,276.592 256.600 C 278.002 252.420,281.603 241.800,284.594 233.000 C 287.585 224.200,291.113 213.760,292.434 209.800 C 293.754 205.840,294.992 202.240,295.184 201.800 C 295.376 201.360,295.623 200.640,295.733 200.200 C 295.889 199.575,303.153 178.249,304.112 175.600 C 304.231 175.270,304.422 174.640,304.535 174.200 C 304.648 173.760,307.162 166.290,310.120 157.600 C 313.079 148.910,316.618 138.470,317.984 134.400 C 319.351 130.330,320.566 126.730,320.685 126.400 C 321.871 123.120,328.141 104.718,328.386 103.800 C 328.562 103.140,328.928 102.060,329.200 101.400 C 329.472 100.740,329.838 99.660,330.015 99.000 C 330.191 98.340,331.806 93.570,333.603 88.400 C 335.401 83.230,336.963 78.700,337.074 78.334 C 337.328 77.496,336.789 77.218,331.800 75.614 C 329.600 74.906,327.440 74.174,327.000 73.986 C 326.560 73.798,319.450 71.389,311.200 68.632 C 302.950 65.875,295.660 63.436,295.000 63.212 C 288.015 60.841,246.927 47.039,243.600 45.946 C 242.170 45.477,240.640 44.947,240.200 44.768 C 239.760 44.590,232.020 41.997,223.000 39.006 C 213.980 36.015,206.287 33.395,205.905 33.184 C 204.997 32.682,204.660 32.700,204.080 33.280 M267.494 64.619 C 284.341 70.274,285.944 93.750,270.000 101.302 C 250.369 110.600,232.175 87.188,246.000 70.419 C 250.835 64.554,259.963 62.091,267.494 64.619 M257.061 74.175 C 253.004 76.162,251.019 79.259,251.058 83.540 C 251.159 94.486,265.813 97.544,270.512 87.600 C 274.383 79.409,265.163 70.206,257.061 74.175 M263.563 74.226 C 272.311 77.272,273.456 87.240,265.600 91.957 C 263.875 92.992,258.815 93.145,256.956 92.218 C 255.101 91.293,252.400 88.448,252.400 87.421 C 252.400 87.105,252.220 86.736,252.000 86.600 C 251.238 86.129,251.541 81.317,252.455 79.372 C 254.424 75.184,259.526 72.820,263.563 74.226 M346.492 81.698 C 345.578 84.394,342.386 93.800,339.400 102.600 C 336.413 111.400,332.888 121.840,331.567 125.800 C 330.246 129.760,329.008 133.360,328.816 133.800 C 328.624 134.240,328.375 134.960,328.263 135.400 C 328.150 135.840,325.607 143.400,322.612 152.200 C 319.616 161.000,316.009 171.620,314.597 175.800 C 313.184 179.980,309.584 190.600,306.595 199.400 C 303.606 208.200,300.086 218.640,298.771 222.600 C 297.457 226.560,296.225 230.160,296.034 230.600 C 295.108 232.735,293.171 239.300,293.342 239.722 C 293.449 239.985,293.551 239.795,293.568 239.300 C 293.586 238.805,293.767 238.400,293.971 238.400 C 294.175 238.400,294.596 237.905,294.906 237.300 C 295.577 235.993,297.270 232.994,298.857 230.303 C 299.486 229.237,300.000 228.291,300.000 228.200 C 300.000 228.109,300.514 227.163,301.143 226.097 C 302.218 224.274,302.860 223.146,305.466 218.500 C 306.052 217.455,306.888 215.970,307.322 215.200 C 307.757 214.430,308.563 212.999,309.114 212.021 C 309.664 211.043,310.628 209.370,311.257 208.303 C 311.886 207.237,312.400 206.288,312.400 206.194 C 312.400 206.100,313.210 204.653,314.200 202.978 C 315.190 201.304,316.000 199.867,316.000 199.785 C 316.000 199.702,316.514 198.763,317.143 197.697 C 318.723 195.016,320.272 192.264,321.923 189.200 C 322.694 187.770,323.657 186.122,324.062 185.538 C 324.468 184.954,324.800 184.387,324.800 184.277 C 324.800 184.167,325.452 182.935,326.249 181.538 C 327.046 180.142,328.154 178.190,328.710 177.200 C 329.266 176.210,331.247 172.700,333.112 169.400 C 334.977 166.100,337.050 162.410,337.719 161.200 C 338.388 159.990,340.705 155.875,342.868 152.056 C 345.030 148.237,346.800 145.038,346.800 144.948 C 346.800 144.858,347.220 144.113,347.733 143.292 C 348.246 142.471,349.208 140.810,349.870 139.600 C 350.533 138.390,352.543 134.824,354.337 131.675 C 356.132 128.526,357.600 125.879,357.600 125.793 C 357.600 125.706,358.114 124.763,358.743 123.697 C 359.372 122.630,360.336 120.957,360.886 119.979 C 361.437 119.001,362.243 117.570,362.678 116.800 C 364.686 113.244,365.807 111.234,366.916 109.200 C 367.575 107.990,368.245 106.820,368.404 106.600 C 368.716 106.168,370.206 103.512,372.107 100.000 C 372.762 98.790,373.543 97.406,373.841 96.926 C 376.313 92.948,376.431 92.354,374.900 91.577 C 374.295 91.269,373.170 90.639,372.400 90.176 C 371.630 89.713,370.010 88.788,368.800 88.120 C 367.590 87.453,364.822 85.892,362.649 84.653 C 360.476 83.414,358.645 82.400,358.582 82.400 C 358.518 82.400,357.096 81.590,355.422 80.600 C 353.747 79.610,352.275 78.800,352.150 78.800 C 352.026 78.800,351.446 78.464,350.862 78.052 C 348.359 76.290,348.313 76.328,346.492 81.698 M222.600 128.387 C 221.280 128.572,219.390 128.912,218.400 129.144 C 217.410 129.376,216.060 129.677,215.400 129.813 C 214.740 129.949,213.840 130.209,213.400 130.390 C 212.960 130.571,211.970 130.950,211.200 131.232 C 197.773 136.150,186.247 147.975,181.395 161.810 C 179.780 166.415,179.147 170.253,178.922 176.800 C 178.706 183.091,179.403 189.013,180.782 192.600 C 180.951 193.040,181.315 194.120,181.590 195.000 C 183.957 202.558,191.522 212.955,198.265 217.918 C 201.469 220.276,204.875 222.400,205.453 222.400 C 205.717 222.400,206.000 222.601,206.082 222.846 C 206.164 223.091,206.584 223.219,207.015 223.130 C 207.610 223.007,207.293 222.710,205.709 221.905 C 203.800 220.935,199.920 218.440,197.838 216.844 C 194.247 214.091,186.000 204.335,186.000 202.839 C 186.000 202.598,185.864 202.400,185.698 202.400 C 185.531 202.400,185.142 201.815,184.832 201.100 C 184.523 200.385,183.863 198.900,183.367 197.800 C 178.968 188.051,177.984 173.064,181.186 164.600 C 181.353 164.160,181.709 163.080,181.978 162.200 C 182.426 160.736,182.880 159.639,184.713 155.600 C 192.845 137.679,216.523 125.618,236.563 129.188 C 243.361 130.399,245.582 131.133,252.800 134.556 C 257.040 136.567,264.882 143.088,267.870 147.087 C 268.492 147.919,269.225 148.838,269.500 149.129 C 269.775 149.419,270.000 149.790,270.000 149.953 C 270.000 150.116,270.315 150.598,270.700 151.025 C 271.085 151.451,271.664 152.340,271.986 153.000 C 272.308 153.660,272.858 154.650,273.209 155.200 C 273.559 155.750,274.348 157.460,274.962 159.000 C 275.576 160.540,276.227 162.160,276.409 162.600 C 276.591 163.040,276.851 163.940,276.988 164.600 C 277.124 165.260,277.412 166.520,277.628 167.400 C 278.982 172.914,279.048 182.683,277.769 188.200 C 277.413 189.740,277.029 191.587,276.916 192.304 C 276.804 193.021,276.551 193.706,276.356 193.827 C 276.160 193.948,276.000 194.343,276.000 194.705 C 276.000 196.166,271.135 205.251,268.802 208.147 C 264.350 213.673,259.827 217.699,254.693 220.706 C 251.217 222.742,244.666 225.616,243.524 225.606 C 243.152 225.603,242.736 225.780,242.600 226.000 C 242.464 226.220,241.543 226.400,240.553 226.400 C 239.452 226.400,238.849 226.556,239.001 226.801 C 239.913 228.277,251.395 223.830,257.580 219.605 C 266.764 213.330,274.620 202.666,277.250 192.900 C 277.442 192.185,277.779 190.925,277.998 190.100 C 280.024 182.461,279.836 170.314,277.604 164.600 C 277.432 164.160,277.050 162.990,276.755 162.000 C 276.459 161.010,275.809 159.346,275.309 158.302 C 274.809 157.258,274.400 156.319,274.400 156.214 C 274.400 155.604,270.053 148.822,268.307 146.707 C 258.676 135.048,245.603 128.635,230.600 128.211 C 227.520 128.124,223.920 128.203,222.600 128.387 M145.844 173.894 C 145.252 175.822,144.595 177.713,144.384 178.095 C 144.173 178.477,144.000 179.154,144.000 179.600 C 144.000 180.046,143.838 180.723,143.639 181.105 C 143.058 182.223,142.253 185.186,142.471 185.404 C 142.581 185.514,142.904 184.838,143.189 183.902 C 143.474 182.966,144.020 181.210,144.403 180.000 C 146.444 173.548,147.251 170.718,147.095 170.562 C 147.000 170.466,146.437 171.966,145.844 173.894 M140.811 190.084 C 140.102 192.348,139.359 194.513,139.161 194.895 C 138.962 195.277,138.814 195.997,138.832 196.495 C 138.850 196.993,139.300 196.050,139.832 194.400 C 140.365 192.750,141.183 190.267,141.650 188.883 C 142.117 187.499,142.410 186.277,142.300 186.167 C 142.191 186.057,141.521 187.820,140.811 190.084 M138.266 198.043 C 138.182 198.349,137.891 199.288,137.620 200.130 C 137.349 200.971,137.215 201.748,137.323 201.856 C 137.430 201.964,137.825 201.129,138.200 200.000 C 138.575 198.871,138.777 197.844,138.650 197.717 C 138.523 197.590,138.350 197.736,138.266 198.043 M136.146 204.865 C 135.689 206.259,135.089 208.210,134.812 209.200 C 134.535 210.190,134.128 211.387,133.908 211.861 C 133.687 212.334,133.592 212.964,133.697 213.261 C 133.801 213.557,134.285 212.450,134.772 210.800 C 135.259 209.150,136.017 206.760,136.458 205.489 C 136.899 204.219,137.196 202.988,137.118 202.754 C 137.040 202.520,136.603 203.470,136.146 204.865 M133.003 214.870 C 131.876 218.758,130.664 222.732,130.400 223.400 C 130.227 223.840,129.605 225.820,129.019 227.800 C 128.432 229.780,127.804 231.760,127.622 232.200 C 127.440 232.640,127.070 233.810,126.800 234.800 C 126.530 235.790,126.170 236.960,126.000 237.400 C 125.251 239.340,124.690 241.624,124.909 241.842 C 125.040 241.973,125.342 241.358,125.580 240.474 C 125.818 239.591,126.524 237.277,127.148 235.334 C 127.772 233.390,128.691 230.450,129.190 228.800 C 130.079 225.855,130.953 223.076,132.805 217.301 C 133.316 215.706,133.631 214.297,133.504 214.171 C 133.377 214.044,133.152 214.358,133.003 214.870 M123.866 244.261 C 123.543 245.327,123.157 246.560,123.009 247.000 C 122.790 247.650,122.817 247.682,123.151 247.169 C 123.763 246.231,124.888 242.755,124.656 242.523 C 124.545 242.412,124.190 243.194,123.866 244.261 " stroke="none" fill="#bbe3bb" fill-rule="evenodd"></path><path id="path4" d="M258.257 74.346 C 253.975 75.855,251.600 79.217,251.600 83.772 C 251.600 85.191,251.780 86.464,252.000 86.600 C 252.220 86.736,252.400 87.105,252.400 87.421 C 252.400 87.990,253.473 89.419,254.995 90.875 C 259.188 94.889,267.202 93.014,269.849 87.400 C 273.377 79.919,266.005 71.617,258.257 74.346 M221.000 129.241 C 206.981 131.841,194.664 139.778,187.543 150.800 C 185.028 154.693,183.005 158.838,181.978 162.200 C 181.709 163.080,181.353 164.160,181.186 164.600 C 177.984 173.064,178.968 188.051,183.367 197.800 C 183.863 198.900,184.523 200.385,184.832 201.100 C 185.142 201.815,185.531 202.400,185.698 202.400 C 185.864 202.400,186.000 202.598,186.000 202.839 C 186.000 204.360,194.175 214.003,197.963 216.951 C 199.789 218.372,205.402 221.900,206.254 222.162 C 206.760 222.318,208.355 222.007,210.161 221.400 C 217.341 218.990,224.583 219.267,232.000 222.234 C 233.967 223.021,238.120 225.534,238.333 226.067 C 238.523 226.541,242.302 226.481,242.600 226.000 C 242.736 225.780,243.152 225.603,243.524 225.606 C 244.666 225.616,251.217 222.742,254.693 220.706 C 259.827 217.699,264.350 213.673,268.802 208.147 C 271.135 205.251,276.000 196.166,276.000 194.705 C 276.000 194.343,276.160 193.948,276.356 193.827 C 276.551 193.706,276.804 193.021,276.916 192.304 C 277.029 191.587,277.413 189.740,277.769 188.200 C 279.048 182.683,278.982 172.914,277.628 167.400 C 277.412 166.520,277.124 165.260,276.988 164.600 C 276.851 163.940,276.591 163.040,276.409 162.600 C 276.227 162.160,275.576 160.540,274.962 159.000 C 274.348 157.460,273.559 155.750,273.209 155.200 C 272.858 154.650,272.308 153.660,271.986 153.000 C 271.664 152.340,271.085 151.451,270.700 151.025 C 270.315 150.598,270.000 150.116,270.000 149.953 C 270.000 149.790,269.775 149.419,269.500 149.129 C 269.225 148.838,268.492 147.919,267.870 147.087 C 264.882 143.088,257.040 136.567,252.800 134.556 C 245.582 131.133,243.361 130.399,236.563 129.188 C 231.237 128.239,226.312 128.256,221.000 129.241 " stroke="none" fill="#fbfbfb" fill-rule="evenodd"></path></g></svg>